<svg width="19" height="19" viewBox="0 0 19 19" fill="none" xmlns="http://www.w3.org/2000/svg">
<g id="Frame">
<path id="Vector" d="M6.22271 14.6138C6.11454 14.7182 6.02826 14.8432 5.9689 14.9814C5.90955 15.1196 5.8783 15.2682 5.877 15.4186C5.87569 15.5689 5.90434 15.7181 5.96129 15.8573C6.01824 15.9965 6.10233 16.1229 6.20867 16.2292C6.31501 16.3356 6.44147 16.4197 6.58065 16.4766C6.71984 16.5336 6.86898 16.5622 7.01936 16.5609C7.16974 16.5596 7.31835 16.5284 7.45653 16.469C7.59471 16.4097 7.71968 16.3234 7.82415 16.2152L13.487 10.5524C13.6993 10.34 13.8186 10.052 13.8186 9.75168C13.8186 9.45136 13.6993 9.16334 13.487 8.95095L7.82415 3.28814C7.61055 3.08183 7.32446 2.96768 7.02751 2.97026C6.73055 2.97284 6.44649 3.09195 6.23651 3.30193C6.02652 3.51192 5.90741 3.79598 5.90483 4.09294C5.90225 4.38989 6.01641 4.67598 6.22271 4.88958L11.0848 9.75168L6.22271 14.6138Z" fill="#D9D9D9"/>
</g>
</svg>
