<svg width="25" height="14" viewBox="0 0 25 14" fill="none" xmlns="http://www.w3.org/2000/svg">
<path id="Vector" d="M24.5986 0.345758C24.3862 0.133436 24.0982 0.0141591 23.7979 0.0141591C23.4975 0.0141591 23.2095 0.133436 22.9971 0.345758L12.4722 10.8707L1.94732 0.345758C1.84284 0.237587 1.71787 0.151306 1.57969 0.0919492C1.44152 0.0325927 1.2929 0.00134953 1.14252 4.27622e-05C0.99214 -0.00126401 0.843006 0.0273915 0.703819 0.0843378C0.564631 0.141284 0.438177 0.22538 0.331837 0.33172C0.225498 0.438059 0.141401 0.564512 0.0844555 0.7037C0.0275078 0.842888 -0.00114632 0.992023 0.000160217 1.1424C0.00146675 1.29279 0.032711 1.4414 0.0920677 1.57958C0.151424 1.71775 0.237703 1.84273 0.345875 1.9472L11.6715 13.2728C11.8839 13.4852 12.1719 13.6044 12.4722 13.6044C12.7725 13.6044 13.0606 13.4852 13.2729 13.2728L24.5986 1.9472C24.8109 1.73481 24.9302 1.4468 24.9302 1.14648C24.9302 0.846165 24.8109 0.558145 24.5986 0.345758Z" fill="#D9D9D9"/>
</svg>
