<svg width="28" height="28" viewBox="0 0 28 28" fill="none" xmlns="http://www.w3.org/2000/svg">
<path d="M1.71783 19.708C1.93022 19.9203 2.21824 20.0396 2.51855 20.0396C2.81887 20.0396 3.10689 19.9203 3.31927 19.708L13.8442 9.18305L24.3691 19.708C24.4736 19.8161 24.5985 19.9024 24.7367 19.9618C24.8749 20.0211 25.0235 20.0524 25.1739 20.0537C25.3243 20.055 25.4734 20.0263 25.6126 19.9694C25.7518 19.9124 25.8782 19.8283 25.9846 19.722C26.0909 19.6157 26.175 19.4892 26.232 19.35C26.2889 19.2108 26.3176 19.0617 26.3162 18.9113C26.3149 18.7609 26.2837 18.6123 26.2243 18.4741C26.165 18.336 26.0787 18.211 25.9705 18.1065L14.6449 6.78088C14.4325 6.56856 14.1445 6.44928 13.8442 6.44928C13.5439 6.44928 13.2558 6.56856 13.0435 6.78088L1.71783 18.1065C1.50551 18.3189 1.38623 18.6069 1.38623 18.9072C1.38623 19.2075 1.50551 19.4956 1.71783 19.708Z" fill="#D9D9D9"/>
</svg>
