<svg width="19" height="20" viewBox="0 0 19 20" fill="none" xmlns="http://www.w3.org/2000/svg">
<g id="Frame" clip-path="url(#clip0_38_3001)">
<path id="Vector" d="M1.1748 4.36303C1.1748 4.06266 1.29413 3.77459 1.50652 3.56219C1.71892 3.34979 2.00699 3.23047 2.30737 3.23047H6.83762C7.13799 3.23047 7.42606 3.34979 7.63846 3.56219C7.85086 3.77459 7.97018 4.06266 7.97018 4.36303C7.97018 4.66341 7.85086 4.95148 7.63846 5.16387C7.42606 5.37627 7.13799 5.49559 6.83762 5.49559H2.30737C2.00699 5.49559 1.71892 5.37627 1.50652 5.16387C1.29413 4.95148 1.1748 4.66341 1.1748 4.36303ZM1.1748 8.89328C1.1748 8.59291 1.29413 8.30484 1.50652 8.09244C1.71892 7.88004 2.00699 7.76072 2.30737 7.76072H11.3679C11.6682 7.76072 11.9563 7.88004 12.1687 8.09244C12.3811 8.30484 12.5004 8.59291 12.5004 8.89328C12.5004 9.19366 12.3811 9.48173 12.1687 9.69413C11.9563 9.90652 11.6682 10.0258 11.3679 10.0258H2.30737C2.00699 10.0258 1.71892 9.90652 1.50652 9.69413C1.29413 9.48173 1.1748 9.19366 1.1748 8.89328ZM1.1748 13.4235C1.1748 13.1232 1.29413 12.8351 1.50652 12.6227C1.71892 12.4103 2.00699 12.291 2.30737 12.291H6.83762C7.13799 12.291 7.42606 12.4103 7.63846 12.6227C7.85086 12.8351 7.97018 13.1232 7.97018 13.4235C7.97018 13.7239 7.85086 14.012 7.63846 14.2244C7.42606 14.4368 7.13799 14.5561 6.83762 14.5561H2.30737C2.00699 14.5561 1.71892 14.4368 1.50652 14.2244C1.29413 14.012 1.1748 13.7239 1.1748 13.4235ZM14.7656 10.0258C15.0659 10.0258 15.354 10.1452 15.5664 10.3576C15.7788 10.57 15.8981 10.858 15.8981 11.1584V12.291H17.0307C17.3311 12.291 17.6191 12.4103 17.8315 12.6227C18.0439 12.8351 18.1632 13.1232 18.1632 13.4235C18.1632 13.7239 18.0439 14.012 17.8315 14.2244C17.6191 14.4368 17.3311 14.5561 17.0307 14.5561H15.8981V15.6887C15.8981 15.989 15.7788 16.2771 15.5664 16.4895C15.354 16.7019 15.0659 16.8212 14.7656 16.8212C14.4652 16.8212 14.1771 16.7019 13.9647 16.4895C13.7523 16.2771 13.633 15.989 13.633 15.6887V14.5561H12.5004C12.2001 14.5561 11.912 14.4368 11.6996 14.2244C11.4872 14.012 11.3679 13.7239 11.3679 13.4235C11.3679 13.1232 11.4872 12.8351 11.6996 12.6227C11.912 12.4103 12.2001 12.291 12.5004 12.291H13.633V11.1584C13.633 10.858 13.7523 10.57 13.9647 10.3576C14.1771 10.1452 14.4652 10.0258 14.7656 10.0258Z" fill="#D9002A"/>
</g>
<defs>
<clipPath id="clip0_38_3001">
<rect width="18.121" height="18.121" fill="white" transform="translate(0.0419922 0.965332)"/>
</clipPath>
</defs>
</svg>
