<svg width="19" height="19" viewBox="0 0 19 19" fill="none" xmlns="http://www.w3.org/2000/svg">
<g id="Frame" clip-path="url(#clip0_38_3070)">
<path id="Vector" d="M9.29195 -0.00976562C14.914 -0.00976562 18.3525 3.42869 18.3525 9.05074C18.3525 14.6728 14.914 18.1112 9.29195 18.1112C3.66991 18.1112 0.231445 14.6728 0.231445 9.05074C0.231445 3.42869 3.66991 -0.00976562 9.29195 -0.00976562ZM8.2851 13.0781C8.2851 13.3452 8.39118 13.6013 8.58 13.7901C8.76882 13.9789 9.02492 14.085 9.29195 14.085C9.55898 14.085 9.81508 13.9789 10.0039 13.7901C10.1927 13.6013 10.2988 13.3452 10.2988 13.0781V9.05074C10.2988 8.78355 10.1927 8.52731 10.0037 8.33839C9.81481 8.14946 9.55857 8.04332 9.29138 8.04332C9.0242 8.04332 8.76796 8.14946 8.57903 8.33839C8.39011 8.52731 8.28397 8.78355 8.28397 9.05074L8.2851 13.0781ZM10.2999 5.02334C10.2999 4.89112 10.2739 4.7602 10.2233 4.63804C10.1727 4.51588 10.0985 4.40489 10.005 4.31139C9.91154 4.2179 9.80054 4.14374 9.67838 4.09314C9.55623 4.04254 9.4253 4.0165 9.29308 4.0165C9.16086 4.0165 9.02993 4.04254 8.90778 4.09314C8.78562 4.14374 8.67463 4.2179 8.58113 4.31139C8.48764 4.40489 8.41347 4.51588 8.36287 4.63804C8.31228 4.7602 8.28623 4.89112 8.28623 5.02334C8.28623 5.29038 8.39231 5.54647 8.58113 5.73529C8.76995 5.92411 9.02605 6.03019 9.29308 6.03019C9.56011 6.03019 9.81621 5.92411 10.005 5.73529C10.1939 5.54647 10.2999 5.29038 10.2999 5.02334Z" fill="#B3BCC5"/>
</g>
<defs>
<clipPath id="clip0_38_3070">
<rect width="18.121" height="18.121" fill="white" transform="translate(0.231445 -0.00976562)"/>
</clipPath>
</defs>
</svg>
