<svg width="19" height="20" viewBox="0 0 19 20" fill="none" xmlns="http://www.w3.org/2000/svg">
<g id="Frame" clip-path="url(#clip0_38_2997)">
<path id="Vector" d="M5.30308 5.49559C3.65406 5.49559 2.47167 6.71197 2.47167 8.02687C2.47167 10.4121 4.0867 12.317 5.97355 13.7123C6.99734 14.4622 8.10209 15.0947 9.26705 15.5981C10.4314 15.0943 11.5358 14.4618 12.5594 13.7123C14.444 12.3159 16.0624 10.4109 16.0624 8.02687C16.0624 6.7131 14.88 5.49559 13.231 5.49559C11.77 5.49559 10.6125 6.45488 10.3724 7.53874C10.3163 7.79008 10.1763 8.0148 9.97534 8.17585C9.7744 8.3369 9.52457 8.42466 9.26705 8.42466C9.00953 8.42466 8.7597 8.3369 8.55875 8.17585C8.35781 8.0148 8.21774 7.79008 8.16166 7.53874C7.92156 6.45488 6.76408 5.49559 5.30308 5.49559ZM9.26705 17.9538C8.66905 17.9175 8.04954 17.5461 7.52403 17.2878C6.50853 16.7891 5.53906 16.2017 4.62694 15.5324C2.55095 13.9989 0.206543 11.5061 0.206543 8.02801C0.206543 5.2974 2.5736 3.23047 5.30308 3.23047C6.8343 3.23047 8.29078 3.87829 9.26705 4.94517C10.2422 3.87829 11.6998 3.23047 13.231 3.23047C15.9605 3.23047 18.3275 5.2974 18.3275 8.02687C18.3275 11.505 15.9809 13.9977 13.9049 15.5335C12.9919 16.2023 12.0217 16.7894 11.0055 17.2878C10.4993 17.537 9.85032 17.9538 9.26705 17.9538Z" fill="#D9002A"/>
</g>
<defs>
<clipPath id="clip0_38_2997">
<rect width="18.121" height="18.121" fill="white" transform="translate(0.206543 0.965332)"/>
</clipPath>
</defs>
</svg>
