<svg width="29" height="28" viewBox="0 0 29 28" fill="none" xmlns="http://www.w3.org/2000/svg">
<g id="Frame">
<path id="Vector" d="M14.5193 5.82324C13.0174 5.82324 11.577 6.41986 10.515 7.48184C9.45306 8.54383 8.85645 9.98418 8.85645 11.4861C8.85645 12.9879 9.45306 14.4283 10.515 15.4903C11.577 16.5523 13.0174 17.1489 14.5193 17.1489C16.0211 17.1489 17.4615 16.5523 18.5235 15.4903C19.5855 14.4283 20.1821 12.9879 20.1821 11.4861C20.1821 9.98418 19.5855 8.54383 18.5235 7.48184C17.4615 6.41986 16.0211 5.82324 14.5193 5.82324ZM11.1216 11.4861C11.1216 10.5849 11.4795 9.72072 12.1167 9.08353C12.7539 8.44634 13.6181 8.08837 14.5193 8.08837C15.4204 8.08837 16.2846 8.44634 16.9218 9.08353C17.559 9.72072 17.9169 10.5849 17.9169 11.4861C17.9169 12.3872 17.559 13.2514 16.9218 13.8886C16.2846 14.5258 15.4204 14.8837 14.5193 14.8837C13.6181 14.8837 12.7539 14.5258 12.1167 13.8886C11.4795 13.2514 11.1216 12.3872 11.1216 11.4861Z" fill="#001A34"/>
<path id="Vector_2" d="M14.5192 1.29297C11.8159 1.29297 9.22322 2.36688 7.31165 4.27845C5.40008 6.19002 4.32617 8.78267 4.32617 11.486C4.32617 14.3333 5.61276 16.9767 7.38296 19.3483C9.15542 21.7255 11.4953 23.9352 13.774 25.9285C13.9804 26.1088 14.2452 26.2082 14.5192 26.2082C14.7933 26.2082 15.0581 26.1088 15.2645 25.9285C17.5432 23.9352 19.8831 21.7255 21.6566 19.3483C23.4257 16.9767 24.7123 14.3333 24.7123 11.486C24.7123 8.78267 23.6384 6.19002 21.7268 4.27845C19.8153 2.36688 17.2226 1.29297 14.5192 1.29297ZM6.5913 11.486C6.5913 9.38341 7.42656 7.36691 8.91334 5.88013C10.4001 4.39336 12.4166 3.55809 14.5192 3.55809C16.6219 3.55809 18.6384 4.39336 20.1251 5.88013C21.6119 7.36691 22.4472 9.38341 22.4472 11.486C22.4472 13.6424 21.4686 15.8124 19.84 17.9937C18.396 19.9304 16.5046 21.7912 14.5192 23.566C12.5339 21.7912 10.6425 19.9304 9.19732 17.9937C7.56983 15.8124 6.5913 13.6424 6.5913 11.486Z" fill="#001A34"/>
</g>
</svg>
