<svg width="19" height="20" viewBox="0 0 19 20" fill="none" xmlns="http://www.w3.org/2000/svg">
<g id="Frame" clip-path="url(#clip0_38_2992)">
<path id="Vector" d="M10.4316 12.2907C10.4316 12.514 10.3656 12.7322 10.2419 12.918C10.1183 13.1039 9.94245 13.249 9.73655 13.3352C9.53066 13.4215 9.30387 13.4449 9.08468 13.4027C8.8655 13.3604 8.66368 13.2543 8.50459 13.0978C8.3455 12.9412 8.23623 12.7411 8.19051 12.5226C8.14478 12.3041 8.16464 12.077 8.24759 11.8697C8.33054 11.6625 8.47288 11.4844 8.65673 11.3578C8.84058 11.2312 9.05774 11.1617 9.28094 11.1582C9.00649 11.1539 8.74293 11.0501 8.53927 10.8661C8.33562 10.682 8.20572 10.4303 8.17374 10.1577C8.14175 9.8851 8.20986 9.61015 8.3654 9.38398C8.52093 9.15782 8.75331 8.99584 9.01931 8.92815L9.02384 8.92702L9.06688 8.91456C9.33537 8.83293 9.59229 8.71722 9.83136 8.57026C10.2651 8.29845 10.4316 8.03116 10.4316 7.76048C10.4316 7.46011 10.3123 7.17204 10.0999 6.95964C9.8875 6.74724 9.59943 6.62792 9.29906 6.62792C8.99868 6.62792 8.71061 6.74724 8.49821 6.95964C8.28582 7.17204 8.16649 7.46011 8.16649 7.76048C8.16649 8.06086 8.04717 8.34893 7.83477 8.56132C7.62238 8.77372 7.3343 8.89304 7.03393 8.89304C6.73356 8.89304 6.44548 8.77372 6.23309 8.56132C6.02069 8.34893 5.90137 8.06086 5.90137 7.76048C5.90137 6.85936 6.25934 5.99514 6.89653 5.35795C7.53372 4.72076 8.39793 4.36279 9.29906 4.36279C10.2002 4.36279 11.0644 4.72076 11.7016 5.35795C12.3388 5.99514 12.6967 6.85936 12.6967 7.76048C12.6967 9.18751 11.7307 10.0539 11.0319 10.49C10.6236 10.7428 10.1843 10.9415 9.7249 11.0812C9.59311 11.1267 9.45536 11.1526 9.31604 11.1582C9.61347 11.1626 9.89719 11.2839 10.1059 11.4958C10.3147 11.7078 10.4317 11.9933 10.4316 12.2907Z" fill="#D9002A"/>
<path id="Vector_2" d="M0.23877 12.291C0.238903 13.2954 0.572676 14.2713 1.18766 15.0655C1.80265 15.8596 2.66401 16.427 3.63646 16.6785V17.9538C3.63656 18.1468 3.68597 18.3365 3.78 18.505C3.87403 18.6735 4.00957 18.8152 4.17374 18.9167C4.33791 19.0181 4.52528 19.0759 4.71806 19.0846C4.91085 19.0933 5.10265 19.0525 5.27528 18.9663L8.84965 17.1802C9.32119 16.9443 9.84116 16.8214 10.3684 16.8212H12.697C13.4406 16.8212 14.177 16.6747 14.864 16.3902C15.5511 16.1056 16.1753 15.6885 16.7012 15.1626C17.227 14.6368 17.6441 14.0125 17.9287 13.3255C18.2133 12.6384 18.3598 11.902 18.3598 11.1584V6.62815C18.3598 5.12627 17.7632 3.68592 16.7012 2.62393C15.6392 1.56195 14.1988 0.965332 12.697 0.965332L5.90158 0.965332C4.39971 0.965332 2.95935 1.56195 1.89737 2.62393C0.835386 3.68592 0.23877 5.12627 0.23877 6.62815L0.23877 12.291ZM2.5039 6.62815C2.5039 5.72702 2.86187 4.86281 3.49906 4.22562C4.13625 3.58843 5.00046 3.23046 5.90158 3.23046H12.697C13.5981 3.23046 14.4623 3.58843 15.0995 4.22562C15.7367 4.86281 16.0947 5.72702 16.0947 6.62815V11.1584C16.0946 12.0595 15.7367 12.9237 15.0995 13.5609C14.4623 14.1981 13.5981 14.5561 12.697 14.5561H10.3684C9.4893 14.5561 8.62228 14.7609 7.836 15.1541L5.90158 16.1213V15.6886C5.90158 15.3883 5.78226 15.1002 5.56986 14.8878C5.35747 14.6754 5.0694 14.5561 4.76902 14.5561C4.16827 14.5561 3.59213 14.3174 3.16734 13.8926C2.74254 13.4679 2.5039 12.8917 2.5039 12.291V6.62815Z" fill="#D9002A"/>
</g>
<defs>
<clipPath id="clip0_38_2992">
<rect width="18.121" height="18.121" fill="white" transform="translate(0.23877 0.965332)"/>
</clipPath>
</defs>
</svg>
