<svg width="19" height="20" viewBox="0 0 19 20" fill="none" xmlns="http://www.w3.org/2000/svg">
<g id="Frame">
<path id="Vector" d="M8.88675 2.42926C9.09913 2.21693 9.38715 2.09766 9.68747 2.09766C9.98778 2.09766 10.2758 2.21693 10.4882 2.42926L12.7533 4.69438C12.9596 4.90798 13.0738 5.19407 13.0712 5.49103C13.0686 5.78798 12.9495 6.07204 12.7395 6.28203C12.5295 6.49201 12.2455 6.61113 11.9485 6.61371C11.6516 6.61629 11.3655 6.50213 11.1519 6.29582L10.82 5.96398V11.1579C10.82 11.4583 10.7007 11.7464 10.4883 11.9588C10.2759 12.1712 9.98784 12.2905 9.68747 12.2905C9.38709 12.2905 9.09902 12.1712 8.88662 11.9588C8.67423 11.7464 8.5549 11.4583 8.5549 11.1579V5.96398L8.22306 6.29582C8.00946 6.50213 7.72337 6.61629 7.42642 6.61371C7.12946 6.61113 6.8454 6.49201 6.63542 6.28203C6.42543 6.07204 6.30632 5.78798 6.30374 5.49103C6.30116 5.19407 6.41531 4.90798 6.62162 4.69438L8.88675 2.42926ZM2.89209 11.1579C2.89209 10.2568 3.25006 9.39258 3.88725 8.75539C4.52444 8.1182 5.38866 7.76023 6.28978 7.76023C6.59015 7.76023 6.87822 7.87955 7.09062 8.09195C7.30302 8.30435 7.42234 8.59242 7.42234 8.89279C7.42234 9.19317 7.30302 9.48124 7.09062 9.69363C6.87822 9.90603 6.59015 10.0254 6.28978 10.0254C5.9894 10.0254 5.70133 10.1447 5.48894 10.3571C5.27654 10.5695 5.15722 10.8575 5.15722 11.1579V14.5556C5.15722 14.856 5.27654 15.1441 5.48894 15.3564C5.70133 15.5688 5.9894 15.6882 6.28978 15.6882H13.0852C13.3855 15.6882 13.6736 15.5688 13.886 15.3564C14.0984 15.1441 14.2177 14.856 14.2177 14.5556V11.1579C14.2177 10.8575 14.0984 10.5695 13.886 10.3571C13.6736 10.1447 13.3855 10.0254 13.0852 10.0254C12.7848 10.0254 12.4967 9.90603 12.2843 9.69363C12.0719 9.48124 11.9526 9.19317 11.9526 8.89279C11.9526 8.59242 12.0719 8.30435 12.2843 8.09195C12.4967 7.87955 12.7848 7.76023 13.0852 7.76023C13.9863 7.76023 14.8505 8.1182 15.4877 8.75539C16.1249 9.39258 16.4828 10.2568 16.4828 11.1579V14.5556C16.4828 15.4567 16.1249 16.3209 15.4877 16.9581C14.8505 17.5953 13.9863 17.9533 13.0852 17.9533H6.28978C5.38866 17.9533 4.52444 17.5953 3.88725 16.9581C3.25006 16.3209 2.89209 15.4567 2.89209 14.5556V11.1579Z" fill="#D9002A"/>
</g>
</svg>
