<svg width="19" height="19" viewBox="0 0 19 19" fill="none" xmlns="http://www.w3.org/2000/svg">
<g id="Frame" clip-path="url(#clip0_38_3054)">
<path id="Vector" d="M9.06039 0.700195C9.32768 0.700355 9.59014 0.771455 9.82096 0.906234C10.0518 1.04101 10.2427 1.23464 10.3742 1.46734L12.6968 5.57945L16.898 6.39039C17.1633 6.44181 17.4099 6.56345 17.6121 6.74263C17.8143 6.92182 17.9648 7.15198 18.0478 7.40912C18.1308 7.66625 18.1432 7.94095 18.0839 8.20455C18.0246 8.46815 17.8956 8.71101 17.7105 8.90779L14.6645 12.147L15.4377 17.0791C15.48 17.3513 15.447 17.6298 15.3424 17.8845C15.2378 18.1392 15.0656 18.3605 14.8443 18.5245C14.623 18.6884 14.3611 18.7886 14.0869 18.8144C13.8128 18.8402 13.5368 18.7906 13.2888 18.6708L9.06039 16.6291L4.832 18.6708C4.5839 18.7907 4.30772 18.8404 4.03339 18.8145C3.75906 18.7887 3.49703 18.6883 3.27568 18.5242C3.05433 18.3601 2.8821 18.1385 2.77764 17.8835C2.67319 17.6286 2.64049 17.3499 2.68308 17.0776L3.45627 12.1455L0.410323 8.90779C0.225165 8.71101 0.0961934 8.46815 0.03686 8.20455C-0.0224734 7.94095 -0.00999541 7.66625 0.0729919 7.40912C0.155979 7.15198 0.306436 6.92182 0.508673 6.74263C0.710909 6.56345 0.957516 6.44181 1.22278 6.39039L5.42398 5.57945L7.74506 1.46734C7.87669 1.23442 8.06784 1.04065 8.29895 0.905853C8.53007 0.77106 8.79284 0.700087 9.06039 0.700195Z" fill="#FED540"/>
</g>
<defs>
<clipPath id="clip0_38_3054">
<rect width="18.121" height="18.121" fill="white" transform="translate(0 0.700195)"/>
</clipPath>
</defs>
</svg>
