<svg width="19" height="20" viewBox="0 0 19 20" fill="none" xmlns="http://www.w3.org/2000/svg">
<g id="Frame" clip-path="url(#clip0_38_2987)">
<path id="Vector" d="M7.47606 7.19434C7.64595 7.19434 7.80337 7.28494 7.88718 7.43444L8.61202 8.71877L9.9258 8.97246C10.0087 8.98861 10.0857 9.0267 10.1489 9.08275C10.2121 9.1388 10.2591 9.21076 10.285 9.29114C10.3109 9.37152 10.3148 9.45738 10.2962 9.53977C10.2777 9.62216 10.2374 9.69807 10.1795 9.75959L9.22814 10.771L9.46937 12.3113C9.48266 12.3963 9.47242 12.4834 9.43978 12.5631C9.40714 12.6428 9.35332 12.7121 9.28417 12.7634C9.21501 12.8147 9.13313 12.8461 9.0474 12.8543C8.96167 12.8624 8.87535 12.847 8.79776 12.8096L7.47606 12.1731L6.15436 12.8118C6.07678 12.8492 5.99045 12.8647 5.90472 12.8565C5.81899 12.8484 5.73712 12.817 5.66796 12.7656C5.5988 12.7143 5.54499 12.6451 5.51234 12.5654C5.4797 12.4857 5.46947 12.3986 5.48275 12.3135L5.72512 10.7721L4.77377 9.76072C4.71591 9.6992 4.6756 9.6233 4.65705 9.54091C4.63849 9.45852 4.64237 9.37266 4.66828 9.29228C4.69419 9.21189 4.74117 9.13993 4.80435 9.08388C4.86752 9.02783 4.94457 8.98974 5.02746 8.97359L6.3401 8.7199L7.06494 7.43557C7.10592 7.36252 7.16559 7.30167 7.23783 7.25928C7.31008 7.21689 7.3923 7.19448 7.47606 7.19434Z" fill="#D9002A"/>
<path id="Vector_2" d="M3.51243 3.23047C2.61131 3.23047 1.7471 3.58844 1.10991 4.22563C0.472716 4.86282 0.114746 5.72703 0.114746 6.62816L0.114746 13.4235C0.114746 14.3247 0.472716 15.1889 1.10991 15.8261C1.7471 16.4633 2.61131 16.8212 3.51243 16.8212H11.4404C13.0033 16.8212 14.3216 15.7645 14.7169 14.3262L16.4746 15.4984C16.6452 15.6122 16.8434 15.6775 17.0482 15.6875C17.253 15.6974 17.4567 15.6516 17.6375 15.5549C17.8183 15.4581 17.9694 15.3141 18.0748 15.1382C18.1801 14.9623 18.2358 14.7611 18.2358 14.5561V5.49559C18.2358 5.29055 18.1801 5.08935 18.0748 4.91345C17.9694 4.73755 17.8183 4.59355 17.6375 4.49682C17.4567 4.40008 17.253 4.35425 17.0482 4.3642C16.8434 4.37414 16.6452 4.4395 16.4746 4.5533L14.7169 5.7255C14.5191 5.00836 14.0914 4.37592 13.4996 3.92522C12.9077 3.47452 12.1843 3.23046 11.4404 3.23047H3.51243ZM12.5729 7.76072C12.5729 7.96576 12.6285 8.16697 12.7339 8.34287C12.8393 8.51877 12.9904 8.66277 13.1712 8.7595C13.352 8.85623 13.5556 8.90207 13.7604 8.89212C13.9652 8.88217 14.1635 8.81681 14.3341 8.70301L15.9706 7.61235V12.4405L14.3341 11.3487C14.1635 11.2349 13.9652 11.1695 13.7604 11.1596C13.5556 11.1496 13.352 11.1955 13.1712 11.2922C12.9904 11.3889 12.8393 11.5329 12.7339 11.7088C12.6285 11.8847 12.5729 12.0859 12.5729 12.291V13.4235C12.5729 13.7239 12.4536 14.012 12.2412 14.2244C12.0288 14.4368 11.7407 14.5561 11.4404 14.5561H3.51243C3.21206 14.5561 2.92399 14.4368 2.71159 14.2244C2.4992 14.012 2.37987 13.7239 2.37987 13.4235V6.62816C2.37987 6.32778 2.4992 6.03971 2.71159 5.82731C2.92399 5.61492 3.21206 5.49559 3.51243 5.49559H11.4404C11.7407 5.49559 12.0288 5.61492 12.2412 5.82731C12.4536 6.03971 12.5729 6.32778 12.5729 6.62816V7.76072Z" fill="#D9002A"/>
</g>
<defs>
<clipPath id="clip0_38_2987">
<rect width="18.121" height="18.121" fill="white" transform="translate(0.114746 0.965332)"/>
</clipPath>
</defs>
</svg>
