<svg width="20" height="20" viewBox="0 0 20 20" fill="none" xmlns="http://www.w3.org/2000/svg">
<g id="trace - 2024-01-13T184513.752 1">
<path id="Vector" fill-rule="evenodd" clip-rule="evenodd" d="M6.31587 16.5536C6.43775 16.8009 6.72443 16.918 7.059 16.8572C7.19216 16.833 7.54845 16.49 10.4207 13.6207C12.1877 11.8555 13.6599 10.3555 13.6922 10.2874C13.7674 10.129 13.7674 9.87031 13.6922 9.71188C13.6599 9.64379 12.1877 8.14383 10.4207 6.37863C6.92478 2.88629 7.1472 3.08321 6.75806 3.13539C6.37021 3.18742 6.14357 3.61309 6.29193 4.01078C6.31482 4.07211 7.63204 5.42086 9.27009 7.0602L12.2072 9.99965L9.27009 12.9391C7.63204 14.5784 6.31482 15.9272 6.29193 15.9885C6.23228 16.1484 6.24322 16.4062 6.31587 16.5536Z" fill="#333333"/>
</g>
</svg>
