<svg width="23" height="23" viewBox="0 0 23 23" fill="none" xmlns="http://www.w3.org/2000/svg">
<g id="Group">
<path id="Vector" d="M22 6.131L11.8442 10.5652L11.1558 9.04646L21.3117 4.6123L22 6.131ZM10.6537 21.9997V9.80581H12.3463V21.9997H10.6537ZM11.1558 10.5652L0.999998 6.131L1.68834 4.6123L11.8442 9.04646L11.1558 10.5652Z" fill="black"/>
<path id="Vector_2" d="M21.6562 17.1335V5.80425C21.6562 5.67568 21.6183 5.54988 21.547 5.44207C21.4757 5.33425 21.3741 5.24905 21.2545 5.19677L11.7758 1.05748C11.6891 1.01958 11.5953 1 11.5004 1C11.4056 1 11.3117 1.01958 11.2251 1.05748L1.74631 5.19677C1.62675 5.24905 1.52517 5.33425 1.45388 5.44207C1.38258 5.54988 1.34462 5.67568 1.34459 5.80425V17.1335C1.34462 17.2621 1.38258 17.3879 1.45388 17.4957C1.52517 17.6035 1.62675 17.6887 1.74631 17.741L11.2251 21.8803C11.3117 21.9182 11.4056 21.9378 11.5004 21.9378C11.5953 21.9378 11.6891 21.9182 11.7758 21.8803L21.2545 17.741C21.3741 17.6887 21.4757 17.6035 21.547 17.4957C21.6183 17.3879 21.6562 17.2621 21.6562 17.1335Z" stroke="black" stroke-width="1.5" stroke-linecap="round" stroke-linejoin="round"/>
<path id="Vector_3" d="M16.5781 3.15527L6.82402 7.41428C6.70445 7.46656 6.60288 7.55177 6.53158 7.65958C6.46029 7.76739 6.42233 7.8932 6.42229 8.02176V12.0236" stroke="black" stroke-width="1.5" stroke-linecap="round" stroke-linejoin="round"/>
</g>
</svg>
