<svg width="44" height="44" viewBox="0 0 44 44" fill="none" xmlns="http://www.w3.org/2000/svg">
<g id="Group 90">
<rect id="Rectangle 130" width="44" height="44" rx="4" fill="#D9012A"/>
<g id="Group 49">
<g id="Group">
<g id="Group_2">
<path id="Vector" d="M21.9935 11C16.3625 11 11.7357 15.4095 11.4044 20.968C11.2285 21.1233 11.1042 21.351 11.1042 21.6097V23.8766C11.1042 24.3528 11.4872 24.7357 11.9634 24.7357H17.3355C17.8117 24.7357 18.1947 24.3528 18.1947 23.8766V21.6097C18.1947 21.4234 18.1326 21.2578 18.0394 21.1129C18.2878 19.1462 19.9647 17.6246 21.9935 17.6246C24.1879 17.6246 25.9786 19.4153 25.9786 21.6097V33.0269C25.9786 33.503 26.3616 33.886 26.8377 33.886H31.7441C32.2202 33.886 32.6032 33.503 32.6032 33.0269V21.6097C32.6032 15.7614 27.8418 11 21.9935 11ZM16.4764 23.0071H12.8329V22.4689H16.4764V23.0071ZM30.885 32.1677H27.7072V21.6097C27.7072 18.463 25.1505 15.896 21.9935 15.896C19.1366 15.896 16.7662 17.9973 16.3522 20.7403H13.1538C13.5885 16.2479 17.3873 12.7183 22.0038 12.7183C26.8998 12.7183 30.8953 16.7034 30.8953 21.6097L30.885 32.1677Z" fill="white"/>
<path id="Vector_2" d="M13.7948 26.0297C13.329 26.4955 11 28.9176 11 30.5945C11 32.468 12.532 34 14.4055 34C16.279 34 17.8109 32.468 17.8109 30.5945C17.8109 28.9176 15.482 26.4955 15.0162 26.0297C14.6953 25.7088 14.126 25.7088 13.7948 26.0297ZM14.4055 32.2714C13.4739 32.2714 12.7183 31.5158 12.7183 30.5842C12.7183 30.077 13.5049 28.9073 14.4055 27.8929C15.2957 28.9073 16.0927 30.077 16.0927 30.5842C16.0927 31.5158 15.3371 32.2714 14.4055 32.2714Z" fill="white"/>
</g>
</g>
</g>
</g>
</svg>
