<svg width="44" height="44" viewBox="0 0 44 44" fill="none" xmlns="http://www.w3.org/2000/svg">
<g id="Group 94">
<g id="Group 91">
<rect id="Rectangle 130" width="44" height="44" rx="4" fill="#D9012A"/>
</g>
<path id="Vector" d="M33.0342 15.5565C32.9523 15.5565 31.921 15.6048 30.595 15.9758C30.9961 13.3709 30.1858 11.0403 30.1448 10.9194L29.8175 10L28.9171 10.3952C28.7861 10.4516 26.0851 11.6451 24.4235 14.1129C23.8096 13.1048 23.2285 12.4758 23.1794 12.4274L22.5082 11.7177L21.837 12.4274C21.7797 12.4839 21.1577 13.1613 20.5111 14.25C18.8495 11.7984 16.1648 10.6129 16.0338 10.5565L15.1335 10.1613L14.8061 11.0806C14.7651 11.2016 13.9548 13.5323 14.3559 16.1452C13.0626 15.7984 12.0723 15.75 11.9904 15.75L11 15.7096L11.0409 16.6855C11.0491 16.8468 11.221 20.6935 13.7993 23.2258C15.7228 25.1209 17.8918 26.2903 19.4715 26.2903C20.3228 26.2903 20.8384 25.9597 21.1167 25.6774C21.1904 25.6048 21.2477 25.5242 21.3132 25.4435C21.4032 25.5 21.4933 25.5484 21.5833 25.5967V26.6371H17.589L18.8004 34H26.1915L27.4029 26.6371H23.4085V25.5967C23.5395 25.5322 23.6623 25.4597 23.7769 25.371C23.8178 25.4113 23.8424 25.4596 23.8833 25.5C24.1698 25.7822 24.6854 26.1129 25.5285 26.1129C27.1082 26.1129 29.2854 24.9355 31.2007 23.0484C33.779 20.5081 33.9509 16.6694 33.9591 16.5081L34 15.5322L33.0342 15.5565ZM24.6363 32.1855H20.3637L19.7417 28.4274H25.2502L24.6363 32.1855ZM25.4221 16.0403C26.1669 14.3468 27.6811 13.1855 28.6797 12.5645C28.8843 13.5887 29.0317 15.2097 28.516 16.7661C27.7712 17.1452 27.0345 17.629 26.3797 18.2742C26.216 18.4355 26.0523 18.6048 25.8968 18.7742C25.8722 17.7742 25.6513 16.8387 25.332 16.0081L25.4221 16.0403ZM22.5082 14.5C23.1712 15.4516 24.0879 17.1129 24.0879 18.9677C24.0879 20.2581 23.9078 21.3064 23.6705 22.1129C23.5804 22.3306 23.5068 22.5483 23.4413 22.7661C23.1057 23.5806 22.721 24.0081 22.5 24.0081C22.0416 24.0081 20.9121 22.2419 20.9121 18.9758C20.9203 17.121 21.837 15.4596 22.5082 14.5ZM16.263 12.7177C17.2616 13.3387 18.7758 14.5 19.5206 16.1855L19.6107 16.1452C19.3078 16.9839 19.1032 17.9194 19.095 18.9193C18.9477 18.7581 18.7922 18.5967 18.6367 18.4435C17.9573 17.7742 17.1879 17.2742 16.4185 16.8951C15.9111 15.3629 16.0666 13.7419 16.263 12.7177ZM19.8235 24.3951C19.7662 24.4516 19.6352 24.4838 19.4715 24.4838C18.6039 24.4838 16.8605 23.6855 15.0925 21.9435C13.7665 20.6371 13.2264 18.8226 13.0135 17.6855C14.1758 17.9032 16.0175 18.4355 17.3352 19.7339C19.6844 22.0403 20.1509 24.0726 19.8235 24.3951ZM29.9239 21.758C28.1559 23.5 26.4125 24.2984 25.5449 24.2984C25.373 24.2984 25.242 24.2661 25.1929 24.2097C25.0783 24.0968 25.0701 23.7742 25.1929 23.3145C25.2666 23.129 25.332 22.9355 25.3975 22.7338C25.7495 21.8871 26.4616 20.758 27.6893 19.5484C29.0153 18.2419 30.857 17.7097 32.0192 17.5C31.7982 18.6371 31.258 20.4516 29.9239 21.758Z" fill="white"/>
</g>
</svg>
