<svg width="44" height="44" viewBox="0 0 44 44" fill="none" xmlns="http://www.w3.org/2000/svg">
<g id="Group 96">
<g id="Group 92">
<rect id="Rectangle 130" width="44" height="44" rx="4" fill="#D9012A"/>
</g>
<g id="Group">
<g id="Group_2">
<path id="Vector" d="M22.3998 14.3765C22.8338 14.3765 23.1847 14.0257 23.1847 13.5917V10.7848C23.1847 10.3509 22.8338 10 22.3998 10C21.9659 10 21.615 10.3509 21.615 10.7848V13.5917C21.615 14.0257 21.9659 14.3765 22.3998 14.3765Z" fill="white"/>
<path id="Vector_2" d="M15.623 16.7214C15.7707 16.8692 15.9646 16.9523 16.177 16.9523C16.3893 16.9523 16.5832 16.8692 16.731 16.7214C17.0357 16.4167 17.0357 15.9181 16.731 15.6134L14.7458 13.6283C14.5981 13.4806 14.4042 13.3975 14.1918 13.3975C13.9794 13.3975 13.7855 13.4806 13.6378 13.6283C13.4901 13.776 13.407 13.9699 13.407 14.1823C13.407 14.3947 13.4901 14.5886 13.6378 14.7363L15.623 16.7214Z" fill="white"/>
<path id="Vector_3" d="M29.1769 28.0599C29.0292 27.9122 28.8353 27.8291 28.623 27.8291C28.4106 27.8291 28.2167 27.9122 28.069 28.0599C27.9212 28.2077 27.8381 28.4016 27.8381 28.6139C27.8381 28.8263 27.9212 29.0202 28.069 29.1679L30.0541 31.1531C30.2018 31.3008 30.3957 31.3839 30.6081 31.3839C30.8205 31.3839 31.0144 31.3008 31.1621 31.1531C31.4668 30.8484 31.4668 30.3498 31.1621 30.0451L29.1769 28.0599Z" fill="white"/>
<path id="Vector_4" d="M14.3765 22.3913C14.3765 21.9573 14.0257 21.6064 13.5917 21.6064H10.7848C10.3509 21.6064 10 21.9573 10 22.3913C10 22.8252 10.3509 23.1761 10.7848 23.1761H13.5917C14.0257 23.1761 14.3765 22.8252 14.3765 22.3913Z" fill="white"/>
<path id="Vector_5" d="M34.0072 21.6064H31.2003C30.7664 21.6064 30.4155 21.9573 30.4155 22.3913C30.4155 22.8252 30.7664 23.1761 31.2003 23.1761H34.0072C34.4412 23.1761 34.7921 22.8252 34.7921 22.3913C34.7921 21.9573 34.4412 21.6064 34.0072 21.6064Z" fill="white"/>
<path id="Vector_6" d="M16.1773 27.8291C15.965 27.8291 15.7711 27.9122 15.6233 28.0599L13.6382 30.0451C13.3335 30.3498 13.3335 30.8484 13.6382 31.1531C13.7859 31.3008 13.9798 31.3839 14.1922 31.3839C14.4046 31.3839 14.5985 31.3008 14.7462 31.1531L16.7313 29.1679C16.8791 29.0202 16.9622 28.8263 16.9622 28.6139C16.9622 28.4016 16.8791 28.2077 16.7313 28.0599C16.5836 27.9122 16.3897 27.8291 16.1773 27.8291Z" fill="white"/>
<path id="Vector_7" d="M28.623 16.9523C28.8353 16.9523 29.0292 16.8692 29.1769 16.7214L31.1621 14.7363C31.3098 14.5886 31.3929 14.3947 31.3929 14.1823C31.3929 13.9699 31.3098 13.776 31.1621 13.6283C31.0144 13.4806 30.8205 13.3975 30.6081 13.3975C30.3957 13.3975 30.2018 13.4806 30.0541 13.6283L28.069 15.6134C27.9212 15.7612 27.8381 15.9551 27.8381 16.1674C27.8381 16.3798 27.9212 16.5737 28.069 16.7214C28.2167 16.8692 28.4106 16.9523 28.623 16.9523Z" fill="white"/>
<path id="Vector_8" d="M22.4276 16.6758C19.279 16.6758 16.7214 19.2334 16.7214 22.3819C16.7214 24.6441 18.0141 27.1371 19.8053 28.4112V31.7444C19.8053 32.0953 20.0454 32.4 20.3778 32.4923L22.2337 32.9725C22.2983 32.9909 22.3629 33.0002 22.4276 33.0002C22.4922 33.0002 22.5569 32.9909 22.6215 32.9725L24.4773 32.4923C24.819 32.4 25.0498 32.0953 25.0498 31.7444V28.4112C26.8318 27.1371 28.1337 24.6441 28.1337 22.3819C28.1337 19.2334 25.5761 16.6758 22.4276 16.6758ZM22.4276 31.4305L21.3381 31.1535V30.2117H23.5079V31.1535L22.4276 31.4305ZM23.8403 27.3679C23.5356 27.5433 23.3878 27.8942 23.4802 28.2358C23.4894 28.2727 23.4986 28.3097 23.5171 28.3374V29.0576H21.3473V28.3374C21.3658 28.3004 21.375 28.2727 21.3842 28.2358C21.4765 27.9034 21.3288 27.5433 21.0241 27.3679C19.4822 26.4815 18.2726 24.2932 18.2726 22.3819C18.2726 20.0829 20.1377 18.2177 22.4368 18.2177C24.7359 18.2177 26.601 20.0829 26.601 22.3819C26.5918 24.2932 25.3822 26.4815 23.8403 27.3679Z" fill="white"/>
</g>
</g>
</g>
</svg>
