<svg width="44" height="44" viewBox="0 0 44 44" fill="none" xmlns="http://www.w3.org/2000/svg">
<g id="Group 100">
<g id="Group 95">
<rect id="Rectangle 130" width="44" height="44" rx="4" fill="#D9012A"/>
</g>
<path id="Vector" d="M26.2 13.2289C25.0933 12.7343 23.6867 12.4904 21.8867 12.4904H19.3267V11.8943C19.3267 11.3997 18.9333 11 18.4467 11H14.88C14.3933 11 14 11.3997 14 11.8943V19.7055C14 20.2 14.3933 20.5997 14.88 20.5997H18.4467C18.9333 20.5997 19.3267 20.2 19.3267 19.7055V19.2245H19.6667V22.2527H18.9467C18.46 22.2527 18.0667 22.6524 18.0667 23.147V33.1057C18.0667 33.6003 18.46 34 18.9467 34H25.0533C25.54 34 25.9333 33.6003 25.9333 33.1057V23.1538C25.9333 22.6592 25.54 22.2595 25.0533 22.2595H24.3333V19.2583C25.5267 19.3328 26.7067 19.6377 28.52 21.3653C28.6867 21.5211 28.9 21.6091 29.12 21.6091C29.24 21.6091 29.36 21.582 29.4667 21.5346C29.7867 21.3924 30 21.0672 30 20.7149V19.0686C30 16.6298 27.9933 14.0351 26.2 13.2289ZM24.1667 32.2047H19.8267V24.0412H20.5467H23.4467H24.1667V32.2047ZM21.4267 22.2527V19.5225H22.5667V22.2527H21.4267ZM23.62 17.4359H18.4467C17.96 17.4359 17.5667 17.8356 17.5667 18.3302V18.8112H15.76V12.7885H17.5667V13.3847C17.5667 13.8792 17.96 14.2789 18.4467 14.2789H21.8867C23.4333 14.2789 24.6133 14.4686 25.4867 14.8616C26.6667 15.39 28.08 17.2124 28.22 18.7976C26.5133 17.6053 25.1533 17.463 23.62 17.4359Z" fill="white"/>
</g>
</svg>
