<svg width="11" height="14" viewBox="0 0 11 14" fill="none" xmlns="http://www.w3.org/2000/svg">
<path id="Vector" d="M10.206 5.10304C10.206 2.28971 7.91636 0 5.10304 0C2.28971 0 0 2.28971 0 5.10304V6.6168H0.571239L0.566474 8.60183C0.566474 8.63515 0.571244 8.66846 0.576004 8.70654V14H9.6253V8.82081V6.6168H10.2013V5.10304H10.206ZM5.10304 0.799724C7.42129 0.799724 9.31586 2.64672 9.39679 4.94594H0.804488C0.890174 2.64672 2.78478 0.799724 5.10304 0.799724ZM1.38049 13.1955V9.9585C1.65659 10.1251 1.98029 10.2203 2.33255 10.2203C3.30365 10.2203 4.08909 9.492 4.08909 8.59706C4.08909 8.21148 4.40326 7.89732 4.78884 7.89732C5.17442 7.89732 5.48862 8.21148 5.48862 8.59706V11.439C5.48862 12.2292 6.13126 12.8718 6.92147 12.8718C7.71167 12.8718 8.35429 12.2292 8.35429 11.439V9.47297C8.35429 9.16355 8.55899 8.90173 8.83984 8.81128V13.2002H1.38049V13.1955Z" fill="#001818"/>
</svg>
