<svg width="14" height="14" viewBox="0 0 14 14" fill="none" xmlns="http://www.w3.org/2000/svg">
<path id="Vector" d="M13.295 0.587528C13.295 0.566544 13.2908 0.541363 13.2866 0.52038C13.2824 0.499397 13.2782 0.482604 13.274 0.461621C13.2698 0.440637 13.2614 0.419661 13.2572 0.402874C13.2488 0.386088 13.2404 0.365102 13.232 0.348316C13.2236 0.331529 13.2152 0.310544 13.2027 0.293757C13.1901 0.276971 13.1775 0.260186 13.1649 0.2434C13.1523 0.226613 13.1397 0.209833 13.1271 0.197243C13.1103 0.180456 13.0935 0.16786 13.0767 0.151073C13.0642 0.14268 13.0558 0.130087 13.0432 0.121693C13.039 0.117497 13.0348 0.117506 13.0348 0.117506C13.0138 0.104916 12.9928 0.0923144 12.9718 0.0797245C12.955 0.0713312 12.9425 0.0629389 12.9257 0.0545456C12.9047 0.0461523 12.8879 0.0419608 12.8669 0.0335675C12.8459 0.0293709 12.8292 0.020974 12.8082 0.0167774C12.7914 0.0125807 12.7746 0.0125853 12.7536 0.00838868C12.7284 0.00419203 12.7074 0 12.6823 0C12.6781 0 12.6739 0 12.6697 0H6.37052C6.36212 0 6.35792 0 6.34952 0C6.32435 0 6.30337 0.00419203 6.27819 0.00838868C6.2614 0.0125853 6.24042 0.0125807 6.22363 0.0167774C6.20265 0.020974 6.18585 0.0293709 6.16487 0.0335675C6.14389 0.0419608 6.12291 0.0461564 6.10192 0.0587464C6.09773 0.062943 6.08934 0.0629384 6.08095 0.067135L0.402887 2.94184C0.390297 2.94604 0.381901 2.95444 0.373507 2.96283C0.352524 2.97542 0.335736 2.98801 0.318949 3.0006C0.302162 3.01319 0.285382 3.02578 0.272792 3.03837C0.256006 3.05096 0.243413 3.06355 0.230823 3.08034C0.218233 3.09712 0.205641 3.11391 0.188854 3.13069C0.176264 3.14748 0.16368 3.16426 0.155287 3.18105C0.142697 3.19784 0.1343 3.21463 0.125907 3.23561C0.117514 3.2524 0.109121 3.27338 0.100728 3.29017C0.0923349 3.31115 0.0881347 3.32793 0.083938 3.34891C0.0797414 3.3699 0.0755452 3.38669 0.0713486 3.40767C0.0671519 3.42866 0.0671566 3.45384 0.0629599 3.47482C0.0629599 3.48741 0.0587592 3.5 0.0587592 3.50839V7.77218C0.0293827 7.98201 0.00839329 8.20443 0 8.43525H0.0587592V13.3705C0.0587592 13.7188 0.339934 14 0.688256 14H10.5504C10.5881 14 10.6259 13.9958 10.6637 13.9874C10.6763 13.9832 10.6889 13.9832 10.6973 13.979C10.7224 13.9706 10.7476 13.9664 10.7686 13.958C10.7812 13.9538 10.7938 13.9496 10.8064 13.9413C10.8315 13.9287 10.8525 13.9161 10.8735 13.9035C10.8819 13.8993 10.8903 13.8951 10.9029 13.8867C10.9323 13.8657 10.9616 13.8405 10.9868 13.8153C10.991 13.8111 10.9952 13.807 10.9952 13.8028C11.0162 13.7776 11.0372 13.7566 11.0582 13.7272C11.0666 13.7188 11.0708 13.7062 11.0792 13.6936C11.0917 13.6727 11.1043 13.6517 11.1127 13.6307C11.1211 13.6181 11.1253 13.6013 11.1295 13.5887C11.1337 13.5803 11.1379 13.5719 11.1421 13.5635L13.253 7.12171C13.2572 7.10912 13.2572 7.10072 13.2614 7.08813C13.2656 7.06714 13.274 7.04616 13.274 7.02518C13.2782 7.0042 13.2782 6.97901 13.2824 6.95803C13.2824 6.94544 13.2866 6.93705 13.2866 6.92446V0.625296C13.2992 0.616903 13.295 0.600118 13.295 0.587528ZM1.32195 4.13789H2.73202C2.22003 4.41486 1.73742 4.7548 1.32195 5.17866V4.13789ZM7.59593 12.741H7.29797C7.34833 11.9688 7.81835 11.4275 8.69965 11.1253C9.16967 10.9658 9.6439 10.9113 9.92507 10.8945V11.1966C9.03958 11.3058 7.93166 11.7128 7.59593 12.741ZM2.29977 9.53896C2.39629 5.94244 8.20865 5.52278 9.92507 5.48082V5.69484C9.33754 5.70743 7.91487 5.77877 6.46703 6.16906C3.92386 6.85311 2.55157 8.20444 2.50121 10.0803V12.741H2.29977V9.53896ZM3.13489 10.0845C3.22722 6.68945 8.64929 6.35791 9.92926 6.32433V6.63069C9.3879 6.64328 8.14989 6.70623 6.88251 7.05036C4.60793 7.67146 3.3825 8.90108 3.33634 10.6091L3.23562 12.741H3.13489V10.0845ZM3.96583 10.6301C4.04977 7.59172 8.75 7.28957 9.92926 7.26019V7.53717C9.43826 7.54976 8.3765 7.60851 7.29377 7.91487C5.29197 8.47722 4.21343 9.60192 4.17147 11.1673V12.7368H3.86931L3.96583 10.6301ZM4.79677 11.1757C4.86812 8.494 8.85072 8.20024 9.92926 8.16667V8.43106C9.35432 8.41007 7.43226 8.43105 6.11871 9.63129C5.30457 10.3741 4.8891 11.4191 4.87651 12.7368H4.80096V11.1757H4.79677ZM6.53838 10.1013C7.68826 9.05215 9.46764 9.04796 9.92507 9.06474V9.30395C9.42148 9.23681 8.53179 9.32913 7.81416 9.64388C6.94126 10.0258 5.92567 10.8735 5.8795 12.741H5.50181C5.51859 11.6079 5.86272 10.7182 6.53838 10.1013ZM7.45324 10.5881C8.33454 9.88309 9.55996 9.89148 9.88311 9.92925V9.98381C9.8957 9.98381 9.91248 9.98381 9.92926 9.98381V10.2608C8.69965 10.307 6.7566 10.8609 6.66847 12.741H6.5132C6.53838 11.7926 6.85312 11.0707 7.45324 10.5881ZM1.32195 6.16486C1.90529 5.29196 2.84952 4.63309 4.15888 4.18824C4.21343 4.17146 4.26379 4.15467 4.31835 4.13368H5.73682H6.67686C6.29497 4.20503 5.90049 4.29316 5.50181 4.40228C3.42027 4.97302 2.006 5.90887 1.31775 7.15107L1.32195 6.16486ZM1.32195 10.9281L1.46883 8.99341C1.59053 4.41906 9.84114 4.45263 9.92507 4.44843L9.92926 4.13368V4.84712C9.18226 4.86391 7.68826 4.94783 6.16907 5.32553C3.28178 6.04735 1.72903 7.4952 1.67447 9.52637V12.7368H1.32614V10.9281H1.32195ZM8.27998 12.741C8.45624 12.4053 8.78358 12.1577 9.27039 11.994C9.5012 11.9143 9.73202 11.8681 9.92926 11.8387V12.741H8.27998ZM10.2398 2.87889H7.00001H5.74102H3.32795L5.74102 1.65767L6.52159 1.26318H7.00001H11.4275L10.2398 2.87889ZM12.0696 6.73141L11.7968 7.55815L11.1841 9.42986V7.55815V6.29915V3.71402L12.036 2.55155V6.29915C12.0402 6.29915 12.0738 6.72302 12.0696 6.73141Z" fill="#001818"/>
</svg>
