<svg width="9" height="15" viewBox="0 0 9 15" fill="none" xmlns="http://www.w3.org/2000/svg">
<g id="Group">
<g id="Group_2">
<g id="Group_3">
<path id="Vector" d="M6.62939 12.033H2.15705V10.384C2.12373 10.0884 2.09042 9.99675 2.07793 9.97176C1.86972 9.50121 1.5699 8.99734 1.28257 8.51013C0.649614 7.4441 0 6.34891 0 5.22458C0 2.79269 1.97799 0.810547 4.41404 0.810547C6.84592 0.810547 8.82808 2.78853 8.82808 5.22458C8.82808 6.34891 8.17846 7.44409 7.54967 8.50596C7.25818 9.0015 6.96252 9.5012 6.75431 9.96759C6.71267 10.0592 6.6627 10.3965 6.63355 10.9503V12.033H6.62939ZM2.62344 11.5667H6.163V10.942C6.18382 10.5256 6.22963 9.99674 6.3254 9.78437C6.54611 9.29299 6.85009 8.77664 7.14158 8.2811C7.74539 7.26504 8.36169 6.21982 8.36169 5.22458C8.36169 3.04671 6.59191 1.27693 4.41404 1.27693C2.23617 1.27693 0.466387 3.04671 0.466387 5.22458C0.466387 6.21982 1.08269 7.26086 1.67817 8.2686C1.97799 8.77246 2.28197 9.28467 2.50268 9.78437C2.53182 9.85516 2.57763 9.98843 2.61927 10.3465V10.3715L2.62344 11.5667ZM5.28019 9.50537C5.2094 9.50537 5.13861 9.49287 5.07198 9.46789C4.92207 9.41375 4.80131 9.30133 4.74301 9.16391C4.68888 9.03482 4.69304 8.89323 4.7555 8.76414C4.84295 8.58508 4.86794 8.34774 4.82213 8.05624C3.71446 7.96047 2.94824 7.594 2.55264 6.96937C1.62819 5.51191 3.1398 3.2924 3.20226 3.19662C3.28555 3.07586 3.43129 3.00091 3.58953 3.00091H3.627C3.8019 3.01341 3.95181 3.11335 4.01844 3.26326C4.19334 3.65469 4.42653 3.77545 4.77632 3.95867C5.13861 4.14606 5.58834 4.37925 6.01725 4.93725C6.51279 5.58686 6.67519 6.2115 6.50446 6.79865C6.38786 7.19425 6.14217 7.48991 5.91731 7.68563C6.04223 8.26861 6.00476 8.77247 5.80071 9.18889C5.73408 9.32631 5.605 9.43042 5.44676 9.47622C5.39679 9.49704 5.33849 9.50537 5.28019 9.50537Z" fill="#001818"/>
</g>
<g id="Group_4">
<path id="Vector_2" d="M5.57993 14.8103H3.19385V14.3064H2.16113V12.3076H6.62931V14.3064H5.57993V14.8103Z" fill="#001818"/>
</g>
</g>
</g>
</svg>
