<svg width="15" height="14" viewBox="0 0 15 14" fill="none" xmlns="http://www.w3.org/2000/svg">
<g id="Group">
<g id="Group_2">
<path id="Vector" d="M13.6505 0H6.88548C6.62217 0 6.40747 0.2147 6.40747 0.482061V3.82003C6.40747 4.08334 6.62217 4.29804 6.88548 4.29804H7.85365V12.6916C7.85365 12.9225 8.01974 13.1209 8.24659 13.1655L10.1789 13.518C10.2072 13.522 10.2356 13.526 10.2639 13.526C10.2923 13.526 10.3207 13.522 10.349 13.518L12.2813 13.1655C12.5082 13.125 12.6743 12.9265 12.6743 12.6916V4.30209H13.6424C13.9057 4.30209 14.1204 4.08739 14.1204 3.82408V0.486116C14.1326 0.214704 13.9179 0 13.6505 0ZM7.85771 3.33797H7.36754V0.96008H7.85771V3.33797ZM10.268 12.5538L8.81372 12.2905V11.1117L11.4509 12.3391L10.268 12.5538ZM11.7223 11.4034L8.81778 10.0503V9.42246L11.7223 10.7755V11.4034ZM11.7223 9.71818L8.81778 8.36517V7.65221L11.7223 9.00521V9.71818ZM11.7223 7.94793L8.81778 6.59491V5.71586L11.7223 7.06887V7.94793ZM11.7223 6.00753L8.81778 4.65452V4.29804H11.7223V6.00753ZM13.1725 3.33797H12.2043H8.81778V0.96008H13.1725V3.33797Z" fill="#001818"/>
<path id="Vector_2" d="M5.84852 7.55932C5.76345 7.40943 5.60547 7.32031 5.43128 7.32031H2.12978C1.95964 7.32031 1.80165 7.41348 1.71253 7.55932L0.0638021 10.4193C-0.0212674 10.5692 -0.0212674 10.7514 0.0638021 10.9013L1.71253 13.7613C1.7976 13.9112 1.95559 14.0003 2.12978 14.0003H5.43128C5.60142 14.0003 5.7594 13.9071 5.84852 13.7613L7.49725 10.9013C7.58232 10.7514 7.58232 10.5692 7.49725 10.4193L5.84852 7.55932ZM5.15582 13.0362H2.40929L1.03602 10.6583L2.40929 8.28038H5.15582L6.52909 10.6583L5.15582 13.0362Z" fill="#001818"/>
<path id="Vector_3" d="M3.78254 8.96094C2.79817 8.96094 1.99609 9.76301 1.99609 10.7474C1.99609 11.7318 2.79817 12.5338 3.78254 12.5338C4.76692 12.5338 5.569 11.7318 5.569 10.7474C5.569 9.75896 4.76692 8.96094 3.78254 8.96094ZM3.78254 11.5697C3.32884 11.5697 2.95616 11.2011 2.95616 10.7433C2.95616 10.2896 3.32479 9.91695 3.78254 9.91695C4.23625 9.91695 4.60893 10.2856 4.60893 10.7433C4.60893 11.2011 4.2403 11.5697 3.78254 11.5697Z" fill="#001818"/>
</g>
</g>
</svg>
