<svg width="13" height="14" viewBox="0 0 13 14" fill="none" xmlns="http://www.w3.org/2000/svg">
<path id="Vector" d="M12.624 6.17882C12.624 5.45529 12.2866 4.81167 11.7628 4.38998C11.8072 4.19023 11.8339 3.98605 11.8339 3.77299C11.8339 2.24604 10.5954 1.00761 9.06848 1.00761C8.66899 1.00761 8.28725 1.09638 7.94546 1.2473C7.47495 0.670259 6.7603 0.301842 5.96131 0.301842C5.6506 0.301842 5.3532 0.363984 5.078 0.466076C4.63855 0.173115 4.11033 0 3.54217 0C2.01522 0 0.776791 1.23843 0.776791 2.76537C0.776791 3.27584 0.918831 3.75523 1.16297 4.16804C0.466073 4.62524 0 5.41534 0 6.31198C0 7.46163 0.759035 8.43817 1.80215 8.75776C2.05517 9.90298 3.08053 10.7597 4.3012 10.7597C4.44325 10.7597 4.58529 10.7464 4.72289 10.7242C4.64743 9.75206 4.70514 8.62904 5.10463 7.59924C5.20228 7.64363 5.30881 7.67914 5.41091 7.70577C4.58529 9.8142 5.28218 12.3532 5.49524 13.0235H3.82625C3.55548 13.0235 3.33798 13.241 3.33798 13.5117C3.33798 13.7825 3.55548 14 3.82625 14H8.80215C9.07292 14 9.29042 13.7825 9.29042 13.5117C9.29042 13.241 9.07292 13.0235 8.80215 13.0235H6.50285C6.50285 12.9702 6.49397 12.9125 6.47622 12.8592C6.47178 12.8459 6.34305 12.4819 6.2232 11.9226C6.2454 11.9004 6.26759 11.8738 6.28091 11.8472C6.4629 11.5409 7.00888 10.8307 7.69245 10.4978C8.00761 10.6576 8.36271 10.7508 8.73557 10.7508C10.0006 10.7508 11.026 9.72542 11.026 8.46036C11.026 8.42485 11.0216 8.38935 11.0216 8.35384C11.9493 8.06975 12.624 7.20418 12.624 6.17882ZM6.04122 10.8085C6.0279 10.6576 6.01458 10.5022 6.0057 10.3424C5.96132 9.41471 5.96132 9.73875 6.09448 8.89537C6.14775 8.59353 6.23208 8.29613 6.35193 8.01205C6.45846 8.03868 6.56944 8.06087 6.68041 8.07419C6.565 8.34052 6.47622 8.63348 6.41851 8.95307C6.39188 9.13062 6.36969 9.25935 6.35193 9.36144C6.31198 9.5967 6.3031 9.63665 6.31642 9.92962C6.48066 9.85416 6.63602 9.7565 6.76918 9.64109C6.83576 9.7565 6.91566 9.86303 6.99999 9.96512C6.60494 10.2093 6.28091 10.5289 6.04122 10.8085Z" fill="#001818"/>
</svg>
