<svg width="5" height="14" viewBox="0 0 5 14" fill="none" xmlns="http://www.w3.org/2000/svg">
<path id="Vector" d="M3.95581 6.64306H3.32833V3.38292C3.58751 3.38292 3.80123 3.16921 3.80123 2.91004C3.80123 2.87821 3.79667 2.84183 3.79213 2.81L3.59661 0.43195C3.57843 0.186416 3.37382 0 3.12374 0H1.30952C1.06398 0 0.859355 0.190963 0.83662 0.43195L0.636554 2.86911C0.62746 3.00098 0.668392 3.13283 0.75933 3.22831C0.850269 3.3238 0.973036 3.37837 1.10035 3.38292V6.64306H0.472871C0.213696 6.64306 0 6.85677 0 7.11595V13.5271C0 13.7909 0.213696 14 0.472871 14H3.95581C4.21953 14 4.42871 13.7863 4.42871 13.5271V7.11595C4.42871 6.85677 4.21953 6.64306 3.95581 6.64306ZM1.61871 2.4417L1.74146 0.945756H2.68267L2.80545 2.4417C2.56446 2.46444 2.37804 2.66905 2.37804 2.91459V6.64762H2.04612V2.91459C2.04612 2.66451 1.8597 2.46444 1.61871 2.4417ZM3.48294 13.0588H0.945742V7.59337H1.57322H2.85091H3.47839L3.48294 13.0588Z" fill="#001818"/>
</svg>
