<svg width="18" height="16" viewBox="0 0 18 16" fill="none" xmlns="http://www.w3.org/2000/svg">
<g id="Group">
<g id="Group_2">
<path id="Vector" d="M8.62629 3.04455C8.92818 3.04455 9.17226 2.80047 9.17226 2.49858V0.545969C9.17226 0.244083 8.92818 0 8.62629 0C8.3244 0 8.08032 0.244083 8.08032 0.545969V2.49858C8.08032 2.80047 8.3244 3.04455 8.62629 3.04455Z" fill="#001818"/>
<path id="Vector_2" d="M3.91142 4.67659C4.01419 4.77936 4.14908 4.83716 4.29681 4.83716C4.44454 4.83716 4.57943 4.77936 4.6822 4.67659C4.89416 4.46462 4.89416 4.11777 4.6822 3.9058L3.30123 2.52484C3.19846 2.42207 3.06357 2.36426 2.91584 2.36426C2.76811 2.36426 2.63322 2.42207 2.53045 2.52484C2.42768 2.62761 2.36987 2.7625 2.36987 2.91023C2.36987 3.05796 2.42768 3.19285 2.53045 3.29562L3.91142 4.67659Z" fill="#001818"/>
<path id="Vector_3" d="M13.341 12.5639C13.2382 12.4611 13.1034 12.4033 12.9556 12.4033C12.8079 12.4033 12.673 12.4611 12.5702 12.5639C12.4675 12.6667 12.4097 12.8016 12.4097 12.9493C12.4097 13.097 12.4675 13.2319 12.5702 13.3347L13.9512 14.7156C14.054 14.8184 14.1889 14.8762 14.3366 14.8762C14.4843 14.8762 14.6192 14.8184 14.722 14.7156C14.934 14.5037 14.934 14.1568 14.722 13.9449L13.341 12.5639Z" fill="#001818"/>
<path id="Vector_4" d="M3.04455 8.61921C3.04455 8.31732 2.80049 8.07324 2.4986 8.07324H0.545969C0.244083 8.07324 0 8.31732 0 8.61921C0 8.9211 0.244083 9.16518 0.545969 9.16518H2.4986C2.80049 9.16518 3.04455 8.9211 3.04455 8.61921Z" fill="#001818"/>
<path id="Vector_5" d="M16.7002 8.07324H14.7476C14.4457 8.07324 14.2017 8.31732 14.2017 8.61921C14.2017 8.9211 14.4457 9.16518 14.7476 9.16518H16.7002C17.0021 9.16518 17.2462 8.9211 17.2462 8.61921C17.2462 8.31732 17.0021 8.07324 16.7002 8.07324Z" fill="#001818"/>
<path id="Vector_6" d="M4.29691 12.4033C4.14918 12.4033 4.01429 12.4611 3.91152 12.5639L2.53055 13.9449C2.31859 14.1568 2.31859 14.5037 2.53055 14.7156C2.63332 14.8184 2.76821 14.8762 2.91595 14.8762C3.06368 14.8762 3.19857 14.8184 3.30134 14.7156L4.6823 13.3347C4.78507 13.2319 4.84288 13.097 4.84288 12.9493C4.84288 12.8016 4.78507 12.6667 4.6823 12.5639C4.57953 12.4611 4.44464 12.4033 4.29691 12.4033Z" fill="#001818"/>
<path id="Vector_7" d="M12.9556 4.83716C13.1034 4.83716 13.2382 4.77936 13.341 4.67659L14.722 3.29562C14.8248 3.19285 14.8826 3.05796 14.8826 2.91023C14.8826 2.7625 14.8248 2.62761 14.722 2.52484C14.6192 2.42207 14.4843 2.36426 14.3366 2.36426C14.1889 2.36426 14.054 2.42207 13.9512 2.52484L12.5702 3.9058C12.4675 4.00857 12.4097 4.14346 12.4097 4.29119C12.4097 4.43893 12.4675 4.57382 12.5702 4.67659C12.673 4.77936 12.8079 4.83716 12.9556 4.83716Z" fill="#001818"/>
<path id="Vector_8" d="M8.64551 4.64355C6.45523 4.64355 4.67603 6.42277 4.67603 8.61306C4.67603 10.1867 5.57526 11.921 6.82135 12.8074V15.1261C6.82135 15.3702 6.98834 15.5821 7.21958 15.6464L8.51063 15.9804C8.55559 15.9932 8.60055 15.9997 8.64551 15.9997C8.69047 15.9997 8.73545 15.9932 8.78041 15.9804L10.0714 15.6464C10.3091 15.5821 10.4697 15.3702 10.4697 15.1261V12.8074C11.7093 11.921 12.615 10.1867 12.615 8.61306C12.615 6.42277 10.8358 4.64355 8.64551 4.64355ZM8.64551 14.9077L7.88759 14.715V14.0599H9.39702V14.715L8.64551 14.9077ZM9.62825 12.0815C9.41628 12.2036 9.31352 12.4477 9.37776 12.6853C9.38418 12.711 9.39061 12.7367 9.40345 12.756V13.257H7.89402V12.756C7.90686 12.7303 7.91327 12.711 7.91969 12.6853C7.98393 12.4541 7.88117 12.2036 7.6692 12.0815C6.59654 11.4649 5.75511 9.94265 5.75511 8.61306C5.75511 7.0137 7.05258 5.71622 8.65194 5.71622C10.2513 5.71622 11.5488 7.0137 11.5488 8.61306C11.5424 9.94265 10.7009 11.4649 9.62825 12.0815Z" fill="#001818"/>
</g>
</g>
</svg>
