<svg width="14" height="14" viewBox="0 0 14 14" fill="none" xmlns="http://www.w3.org/2000/svg">
<path id="Vector" d="M12.664 3.24127C12.6169 3.24127 12.0242 3.26948 11.2621 3.48587C11.4926 1.96638 11.0269 0.606862 11.0034 0.536297L10.8152 0L10.2977 0.230506C10.2225 0.263436 8.67004 0.959666 7.71506 2.39918C7.36224 1.81114 7.02823 1.44422 7 1.416L6.61426 1.00202L6.2285 1.416C6.19557 1.44893 5.83805 1.84407 5.46641 2.47915C4.51144 1.04904 2.96842 0.357528 2.89316 0.324598L2.37568 0.0940917L2.18751 0.63036C2.16399 0.700925 1.69826 2.06048 1.92877 3.58467C1.18549 3.38239 0.616274 3.35417 0.569231 3.35417L0 3.33062L0.0235301 3.89985C0.0282344 3.99394 0.127022 6.23788 1.60888 7.71503C2.71439 8.82054 3.96102 9.50269 4.86895 9.50269C5.3582 9.50269 5.65458 9.30981 5.81452 9.14516C5.85686 9.10282 5.88979 9.05576 5.92742 9.00872C5.97917 9.04165 6.03092 9.06987 6.08267 9.0981V9.70497H3.78697L4.4832 14H8.73119L9.42742 9.70497H7.13172V9.0981C7.20699 9.06046 7.27756 9.01814 7.34342 8.96639C7.36694 8.98991 7.38106 9.01813 7.40458 9.04165C7.56923 9.2063 7.86559 9.39918 8.35013 9.39918C9.25806 9.39918 10.5094 8.71236 11.6102 7.61155C13.0921 6.1297 13.1909 3.89046 13.1956 3.79637L13.2191 3.22714L12.664 3.24127ZM7.83736 12.9415H5.38172L5.0242 10.7493H8.19019L7.83736 12.9415ZM8.28899 3.52352C8.71708 2.53561 9.58737 1.85819 10.1613 1.49596C10.2789 2.09341 10.3636 3.03898 10.0672 3.94691C9.63912 4.16802 9.21573 4.45027 8.83938 4.82662C8.7453 4.9207 8.65121 5.01949 8.56183 5.11828C8.54772 4.53495 8.4207 3.98925 8.23723 3.50471L8.28899 3.52352ZM6.61426 2.62498C6.99531 3.18009 7.52218 4.14919 7.52218 5.23118C7.52218 5.98387 7.41869 6.59541 7.28226 7.06584C7.23051 7.19285 7.18818 7.31987 7.15054 7.44689C6.95766 7.92202 6.73657 8.17137 6.60955 8.17137C6.34611 8.17137 5.69691 7.14113 5.69691 5.23589C5.70162 4.1539 6.22851 3.18479 6.61426 2.62498ZM3.02488 1.58535C3.5988 1.94758 4.46909 2.62499 4.89718 3.60819L4.94893 3.58467C4.77487 4.07392 4.65726 4.61962 4.65256 5.20295C4.56788 5.10887 4.4785 5.01477 4.38912 4.92539C3.99866 4.53493 3.55646 4.24327 3.11426 4.02217C2.82259 3.12835 2.91197 2.18279 3.02488 1.58535ZM5.07123 8.39716C5.0383 8.43009 4.96304 8.4489 4.86895 8.4489C4.3703 8.4489 3.36828 7.9832 2.35215 6.96707C1.59005 6.20497 1.27958 5.14649 1.15727 4.48318C1.82528 4.6102 2.88375 4.9207 3.64114 5.67809C4.99127 7.02352 5.25941 8.20899 5.07123 8.39716ZM10.8764 6.85885C9.86022 7.87498 8.8582 8.34071 8.35955 8.34071C8.26076 8.34071 8.18549 8.3219 8.15727 8.28897C8.09141 8.22311 8.0867 8.03495 8.15727 7.7668C8.19961 7.6586 8.23724 7.54569 8.27488 7.42808C8.47716 6.93413 8.88643 6.27552 9.59207 5.56987C10.3542 4.80778 11.4126 4.4973 12.0807 4.37499C11.9536 5.0383 11.6432 6.09675 10.8764 6.85885Z" fill="#001818"/>
</svg>
