<svg width="14" height="14" viewBox="0 0 14 14" fill="none" xmlns="http://www.w3.org/2000/svg">
<path d="M6.69133 0C3.26381 0 0.447452 2.68405 0.245833 6.06747C0.138723 6.16198 0.0631104 6.30059 0.0631104 6.4581V7.83794C0.0631104 8.12776 0.296233 8.36088 0.58606 8.36088H3.85607C4.1459 8.36088 4.37902 8.12776 4.37902 7.83794V6.4581C4.37902 6.34469 4.34121 6.24388 4.2845 6.15567C4.43572 4.95856 5.45642 4.03237 6.69133 4.03237C8.02706 4.03237 9.11706 5.12238 9.11706 6.4581V13.4077C9.11706 13.6975 9.35018 13.9306 9.64001 13.9306H12.6265C12.9163 13.9306 13.1494 13.6975 13.1494 13.4077V6.4581C13.1494 2.89827 10.2512 0 6.69133 0ZM3.33312 7.30869H1.11531V6.98105H3.33312V7.30869ZM12.1035 12.8847H10.1693V6.4581C10.1693 4.54273 8.61301 2.98019 6.69133 2.98019C4.95237 2.98019 3.50954 4.2592 3.25751 5.92886H1.31063C1.57526 3.1944 3.88757 1.0459 6.69763 1.0459C9.67781 1.0459 12.1098 3.47163 12.1098 6.4581L12.1035 12.8847Z" fill="#001818"/>
<path d="M1.70117 9.14844C1.41764 9.43197 0 10.9063 0 11.927C0 13.0674 0.932493 13.9999 2.0729 13.9999C3.21331 13.9999 4.14579 13.0674 4.14579 11.927C4.14579 10.9063 2.72816 9.43197 2.44463 9.14844C2.24931 8.95312 1.90279 8.95312 1.70117 9.14844ZM2.0729 12.9477C1.50585 12.9477 1.0459 12.4878 1.0459 11.9207C1.0459 11.612 1.52475 10.9 2.0729 10.2826C2.61475 10.9 3.0999 11.612 3.0999 11.9207C3.0999 12.4878 2.63995 12.9477 2.0729 12.9477Z" fill="#001818"/>
</svg>
