<svg width="10" height="14" viewBox="0 0 10 14" fill="none" xmlns="http://www.w3.org/2000/svg">
<path id="Vector" d="M7.5464 1.3567C6.86186 1.05567 5.99176 0.907221 4.87836 0.907221H3.29484V0.544333C3.29484 0.243302 3.05155 0 2.75052 0H0.544333C0.243302 0 0 0.243302 0 0.544333V5.29897C0 5.6 0.243302 5.8433 0.544333 5.8433H2.75052C3.05155 5.8433 3.29484 5.6 3.29484 5.29897V5.00619H3.50515V6.84949H3.0598C2.75877 6.84949 2.51547 7.09278 2.51547 7.39381V13.4557C2.51547 13.7567 2.75877 14 3.0598 14H6.83712C7.13815 14 7.38144 13.7567 7.38144 13.4557V7.39794C7.38144 7.09691 7.13815 6.8536 6.83712 6.8536H6.39175V5.0268C7.12989 5.07216 7.85979 5.25774 8.98144 6.30928C9.08453 6.40413 9.21649 6.45773 9.35257 6.45773C9.4268 6.45773 9.50103 6.44124 9.56701 6.41238C9.76495 6.32578 9.8969 6.12783 9.8969 5.9134V4.91134C9.8969 3.4268 8.65567 1.84743 7.5464 1.3567ZM6.28866 12.9072H3.60412V7.93814H4.04949H5.8433H6.28866V12.9072ZM4.59382 6.84949V5.18763H5.29897V6.84949H4.59382ZM5.95051 3.91752H2.75052C2.44949 3.91752 2.20619 4.16083 2.20619 4.46186V4.75464H1.08867V1.08867H2.20619V1.45154C2.20619 1.75257 2.44949 1.99587 2.75052 1.99587H4.87836C5.83506 1.99587 6.56495 2.11134 7.10516 2.35052C7.83505 2.67217 8.70928 3.78145 8.79588 4.74639C7.74021 4.02062 6.89896 3.93402 5.95051 3.91752Z" fill="#001818"/>
</svg>
