<svg width="18" height="18" viewBox="0 0 18 18" fill="none" xmlns="http://www.w3.org/2000/svg">
<g id="Frame">
<path id="Vector" d="M4.17053 5.95478C4.06675 5.84733 3.94261 5.76162 3.80536 5.70266C3.6681 5.6437 3.52048 5.61267 3.3711 5.61137C3.22173 5.61007 3.07359 5.63854 2.93533 5.6951C2.79707 5.75167 2.67146 5.8352 2.56583 5.94083C2.4602 6.04646 2.37667 6.17207 2.3201 6.31033C2.26354 6.44859 2.23507 6.59673 2.23637 6.7461C2.23767 6.89548 2.2687 7.0431 2.32766 7.18036C2.38662 7.31761 2.47233 7.44175 2.57978 7.54553L8.20478 13.1705C8.41575 13.3814 8.70184 13.4999 9.00015 13.4999C9.29846 13.4999 9.58456 13.3814 9.79553 13.1705L15.4205 7.54553C15.6255 7.33335 15.7388 7.04917 15.7363 6.7542C15.7337 6.45923 15.6154 6.17707 15.4068 5.96848C15.1982 5.7599 14.9161 5.64158 14.6211 5.63902C14.3261 5.63646 14.042 5.74985 13.8298 5.95478L9.00015 10.7844L4.17053 5.95478Z" fill="#D9D9D9"/>
</g>
</svg>
