<svg width="20" height="20" viewBox="0 0 20 20" fill="none" xmlns="http://www.w3.org/2000/svg">
<path fill-rule="evenodd" clip-rule="evenodd" d="M8.12385 1.67697C7.94725 1.73072 7.78084 1.83244 7.69861 1.93697C7.65416 1.9935 6.65682 3.76975 5.48228 5.8842C3.63553 9.20881 3.34424 9.75498 3.32807 9.92354C3.304 10.1738 3.39334 10.4123 3.58162 10.6006C3.83639 10.8554 3.87365 10.8592 6.09994 10.8592C7.67533 10.8592 8.08502 10.8694 8.08502 10.9087C8.08502 10.9359 7.75842 12.4256 7.35924 14.2192C6.64932 17.4089 6.63443 17.4849 6.67978 17.6914C6.74389 17.9835 7.00498 18.2485 7.29771 18.3187C7.53592 18.3759 7.79006 18.3296 7.97978 18.1945C8.1442 18.0774 16.4843 8.06252 16.5906 7.85459C16.8263 7.39315 16.5558 6.8235 16.0342 6.68299C15.9331 6.6558 15.2332 6.64084 14.0518 6.64072C13.0474 6.64061 12.2256 6.63198 12.2256 6.62155C12.2256 6.61115 12.6651 5.72283 13.2022 4.64752C14.0679 2.91436 14.1787 2.67155 14.1779 2.50826C14.1769 2.28112 14.076 2.05213 13.9028 1.88365C13.6521 1.63975 13.6571 1.64014 10.8025 1.64385C9.3831 1.64569 8.17768 1.66061 8.12385 1.67697Z" fill="#001A34"/>
</svg>
