<svg width="19" height="19" viewBox="0 0 19 19" fill="none" xmlns="http://www.w3.org/2000/svg">
<rect width="19" height="19" rx="4" fill="#247BCB"/>
<g clip-path="url(#clip0_119_736)">
<path fill-rule="evenodd" clip-rule="evenodd" d="M14.9081 4.6879C14.8425 4.69732 14.7212 4.73454 14.6386 4.77064C14.4957 4.833 14.3362 4.98809 11.4004 7.91968L8.31248 11.0031L6.91211 9.60439C5.38075 8.07483 5.42613 8.11339 5.09024 8.05585C4.68843 7.98701 4.26712 8.21511 4.08459 8.60025C4.01744 8.74198 4.01172 8.77339 4.01172 9.00014C4.01172 9.22974 4.0169 9.25725 4.08902 9.4103C4.16235 9.56597 4.25765 9.6657 5.9523 11.3603C7.62841 13.0365 7.74798 13.1509 7.89592 13.2197C8.08335 13.307 8.26108 13.3354 8.45439 13.3089C8.78219 13.2641 8.51638 13.5112 12.3052 9.72898C14.2426 7.79503 15.804 6.218 15.8465 6.15249C16.0433 5.84843 16.0537 5.45417 15.873 5.14585C15.8029 5.02618 15.6149 4.848 15.4934 4.78601C15.3214 4.69826 15.0974 4.66072 14.9081 4.6879Z" fill="white"/>
</g>
<defs>
<clipPath id="clip0_119_736">
<rect width="12" height="12" fill="white" transform="translate(4 3)"/>
</clipPath>
</defs>
</svg>
