<svg width="24" height="24" viewBox="0 0 24 24" fill="none" xmlns="http://www.w3.org/2000/svg">
<g clip-path="url(#clip0_119_780)">
<path fill-rule="evenodd" clip-rule="evenodd" d="M7.99261 0.655828L7.33805 1.31166L4.99327 1.3238L2.64844 1.33594V2.67188V4.00781H12H21.3516V2.67188V1.33594L19.0067 1.3238L16.662 1.31166L16.0074 0.655828L15.3528 0H12H8.64717L7.99261 0.655828ZM3.98508 13.4648C3.98569 20.6066 3.99469 21.6708 4.05698 21.935C4.28114 22.886 5.05341 23.6784 6.00211 23.9309C6.38489 24.0327 17.6151 24.0327 17.9979 23.9309C18.9466 23.6784 19.7189 22.886 19.943 21.935C20.0053 21.6708 20.0143 20.6066 20.0149 13.4648L20.0156 5.29688H12H3.98438L3.98508 13.4648Z" fill="#001A34"/>
</g>
<defs>
<clipPath id="clip0_119_780">
<rect width="24" height="24" fill="white"/>
</clipPath>
</defs>
</svg>
