<svg width="25" height="25" viewBox="0 0 25 25" fill="none" xmlns="http://www.w3.org/2000/svg">
<g id="trace (77) 1" clip-path="url(#clip0_158_1692)">
<path id="Vector" fill-rule="evenodd" clip-rule="evenodd" d="M8.32466 0.683154L7.64282 1.36631L5.20034 1.37896L2.75781 1.3916V2.7832V4.1748H12.499H22.2402V2.7832V1.3916L19.7977 1.37896L17.3552 1.36631L16.6734 0.683154L15.9916 0H12.499H9.00649L8.32466 0.683154ZM4.15015 14.0259C4.15078 21.4652 4.16016 22.5737 4.22505 22.849C4.45855 23.8396 5.26299 24.665 6.25122 24.928C6.64995 25.0341 18.3481 25.0341 18.7468 24.928C19.7351 24.665 20.5395 23.8396 20.773 22.849C20.8379 22.5737 20.8473 21.4652 20.8479 14.0259L20.8486 5.51758H12.499H4.14941L4.15015 14.0259Z" fill="#001A34"/>
</g>
<defs>
<clipPath id="clip0_158_1692">
<rect width="25" height="25" fill="white"/>
</clipPath>
</defs>
</svg>
