<svg width="26" height="26" viewBox="0 0 26 26" fill="none" xmlns="http://www.w3.org/2000/svg">
<g id="trace (74) 1">
<path id="Vector" fill-rule="evenodd" clip-rule="evenodd" d="M12.5428 1.28225C12.4078 1.32292 11.7762 1.92178 9.91126 3.77804C8.55108 5.13177 7.39677 6.32218 7.32141 6.44883C7.20812 6.63926 7.18562 6.73661 7.18674 7.03282C7.18867 7.545 7.40266 7.90473 7.84558 8.14046C8.11436 8.28351 8.67859 8.29138 8.93737 8.15569C9.03513 8.10445 9.71499 7.46578 10.4481 6.73646L11.7811 5.41036V12.1571C11.7811 17.3252 11.7956 18.9528 11.8432 19.1129C11.9248 19.3877 12.2993 19.7622 12.5741 19.8438C12.8818 19.9352 13.2474 19.9181 13.5077 19.8C13.8148 19.6608 13.9552 19.5229 14.0979 19.2203L14.2176 18.9664L14.2181 12.1884L14.2186 5.41036L15.5516 6.73646C16.2848 7.46578 16.9646 8.10445 17.0624 8.15569C17.3212 8.29138 17.8854 8.28351 18.1542 8.14046C18.5971 7.90473 18.8111 7.545 18.813 7.03282C18.8141 6.73661 18.7916 6.63926 18.6783 6.44883C18.6029 6.32208 17.4495 5.13284 16.0885 3.77855C13.4263 1.12955 13.5269 1.21186 12.9686 1.22354C12.8322 1.22639 12.6406 1.25279 12.5428 1.28225ZM1.9873 11.8504C1.72913 11.9438 1.44861 12.2046 1.32628 12.4648L1.2168 12.6977L1.23041 17.9902L1.24402 23.2828L1.40052 23.613C1.60101 24.0361 1.96343 24.3985 2.38644 24.599L2.71667 24.7555H12.9999H23.2831L23.6133 24.599C24.0363 24.3985 24.3987 24.0361 24.5992 23.613L24.7557 23.2828L24.7704 18.0523C24.7817 14.0154 24.7707 12.7698 24.7222 12.5935C24.6415 12.3004 24.2784 11.9291 23.9881 11.8429C23.3478 11.6528 22.7121 11.9098 22.4514 12.4645C22.3439 12.6932 22.3436 12.7066 22.3436 17.5186V22.3434H12.9999H3.65613V17.5631C3.65613 13.9445 3.64104 12.7321 3.59407 12.5739C3.51241 12.299 3.13795 11.9246 2.86312 11.8429C2.60297 11.7657 2.21221 11.769 1.9873 11.8504Z" fill="#001A34"/>
</g>
</svg>
