<svg width="18" height="18" viewBox="0 0 18 18" fill="none" xmlns="http://www.w3.org/2000/svg">
<g clip-path="url(#clip0_119_728)">
<path fill-rule="evenodd" clip-rule="evenodd" d="M8.68291 0.887821C8.58939 0.915981 8.15219 1.33058 6.86104 2.61568C5.91938 3.55288 5.12024 4.37701 5.06807 4.46469C4.98964 4.59652 4.97406 4.66392 4.97484 4.86899C4.97617 5.22357 5.12432 5.47262 5.43095 5.63581C5.61703 5.73485 6.00766 5.7403 6.18681 5.64636C6.25449 5.61089 6.72516 5.16873 7.23271 4.66381L8.15556 3.74574V8.41657C8.15556 11.9945 8.16562 13.1212 8.19852 13.2321C8.25505 13.4224 8.5143 13.6816 8.70456 13.7381C8.91757 13.8014 9.17066 13.7895 9.35087 13.7078C9.5635 13.6114 9.66071 13.5159 9.7595 13.3065L9.84236 13.1307L9.84271 8.43822L9.84306 3.74574L10.7659 4.66381C11.2735 5.16873 11.7441 5.61089 11.8118 5.64636C11.991 5.7403 12.3816 5.73485 12.5677 5.63581C12.8743 5.47262 13.0225 5.22357 13.0238 4.86899C13.0246 4.66392 13.009 4.59652 12.9306 4.46469C12.8783 4.37694 12.0798 3.55361 11.1376 2.61603C9.29455 0.782106 9.36416 0.839094 8.97766 0.84718C8.88323 0.849149 8.75058 0.86743 8.68291 0.887821ZM1.37522 8.20422C1.19649 8.26891 1.00229 8.44944 0.917594 8.62958L0.841797 8.79084L0.851219 12.4549L0.860641 16.119L0.968992 16.3476C1.10779 16.6405 1.3587 16.8914 1.65155 17.0302L1.88017 17.1385H8.99931H16.1185L16.3471 17.0302C16.6399 16.8914 16.8908 16.6405 17.0296 16.3476L17.138 16.119L17.1481 12.4979C17.1559 9.70308 17.1483 8.84073 17.1147 8.7187C17.0589 8.51578 16.8076 8.25875 16.6066 8.19906C16.1632 8.06743 15.7232 8.24539 15.5427 8.62937C15.4683 8.78771 15.4681 8.79696 15.4681 12.1284V15.4686H8.99931H2.53056V12.1592C2.53056 9.654 2.52012 8.81464 2.4876 8.70509C2.43107 8.51483 2.17183 8.25559 1.98156 8.19906C1.80146 8.14558 1.53093 8.14787 1.37522 8.20422Z" fill="#5AC15C"/>
</g>
<defs>
<clipPath id="clip0_119_728">
<rect width="18" height="18" fill="white"/>
</clipPath>
</defs>
</svg>
