<svg width="20" height="20" viewBox="0 0 20 20" fill="none" xmlns="http://www.w3.org/2000/svg">
<g id="trace - 2024-01-13T184513.752 2" opacity="0.6">
<path id="Vector" fill-rule="evenodd" clip-rule="evenodd" d="M13.6851 16.5536C13.5632 16.8009 13.2765 16.918 12.942 16.8572C12.8088 16.833 12.4525 16.49 9.5803 13.6207C7.81327 11.8555 6.34112 10.3555 6.30881 10.2874C6.23362 10.129 6.23362 9.87031 6.30881 9.71188C6.34112 9.64379 7.81327 8.14383 9.5803 6.37863C13.0762 2.88629 12.8538 3.08321 13.2429 3.13539C13.6308 3.18742 13.8574 3.61309 13.709 4.01078C13.6862 4.07211 12.3689 5.42086 10.7309 7.0602L7.79374 9.99965L10.7309 12.9391C12.3689 14.5784 13.6862 15.9272 13.709 15.9885C13.7687 16.1484 13.7578 16.4062 13.6851 16.5536Z" fill="#333333"/>
</g>
</svg>
