<svg width="20" height="20" viewBox="0 0 20 20" fill="none" xmlns="http://www.w3.org/2000/svg">
<g clip-path="url(#clip0_158_4087)">
<path fill-rule="evenodd" clip-rule="evenodd" d="M0.898496 0.0339727C0.56252 0.144324 0.276738 0.387293 0.111738 0.70284C0.0340039 0.851512 0.0198242 0.935887 0.0198242 1.24971C0.0198242 1.56257 0.0341602 1.64839 0.111152 1.79659C0.174629 1.91874 1.42564 3.19663 4.21256 5.98604L8.22256 9.99971L4.21256 14.0134C1.42564 16.8028 0.174629 18.0807 0.111152 18.2028C0.0341602 18.351 0.0198242 18.4369 0.0198242 18.7497C0.0198242 19.0635 0.0340039 19.1479 0.111738 19.2966C0.237012 19.5361 0.44959 19.7515 0.683652 19.876C0.855567 19.9674 0.923418 19.9798 1.25006 19.9799C1.56303 19.9799 1.64869 19.9657 1.79693 19.8886C1.91908 19.8251 3.19697 18.5741 5.98639 15.7872L10.0001 11.7772L14.0137 15.7872C16.8031 18.5741 18.081 19.8251 18.2032 19.8886C18.3514 19.9657 18.4371 19.9799 18.7501 19.9799C19.0762 19.9798 19.145 19.9672 19.318 19.8761C19.5603 19.7484 19.8011 19.4911 19.8969 19.2575C19.9366 19.1608 19.9848 19.0512 20.0041 19.0139C20.0532 18.9189 20.0496 18.4261 20.0001 18.4567C19.9786 18.47 19.961 18.4528 19.961 18.4184C19.961 18.2061 19.6771 17.9064 15.7877 14.0135L11.7777 9.99991L15.8042 5.96659C19.1408 2.62421 19.8424 1.90319 19.8998 1.75753C19.9379 1.66085 19.9848 1.55124 20.0041 1.51393C20.0532 1.41889 20.0496 0.926121 20.0001 0.956746C19.9786 0.970027 19.961 0.952918 19.961 0.918699C19.961 0.805496 19.7748 0.490262 19.6226 0.345652C19.3497 0.0864337 19.1705 0.0194805 18.7501 0.0194805C18.4372 0.0194805 18.3514 0.0338165 18.2032 0.110809C18.081 0.174285 16.8031 1.4253 14.0137 4.21221L10.0001 8.22221L5.98639 4.21221C3.11049 1.33889 1.92287 0.177098 1.79693 0.113738C1.60736 0.0183477 1.08678 -0.0278632 0.898496 0.0339727ZM0.0131836 1.24971C0.0131836 1.41085 0.0200977 1.47679 0.0284961 1.3962C0.0369336 1.31565 0.0369336 1.18382 0.0284961 1.10323C0.0200977 1.02268 0.0131836 1.08858 0.0131836 1.24971ZM0.0131836 18.7497C0.0131836 18.9108 0.0200977 18.9768 0.0284961 18.8962C0.0369336 18.8157 0.0369336 18.6838 0.0284961 18.6032C0.0200977 18.5227 0.0131836 18.5886 0.0131836 18.7497Z" fill="#333333"/>
</g>
<defs>
<clipPath id="clip0_158_4087">
<rect width="20" height="20" fill="white"/>
</clipPath>
</defs>
</svg>
