<svg width="21" height="21" viewBox="0 0 21 21" fill="none" xmlns="http://www.w3.org/2000/svg">
<path d="M15.0259 0C13.2074 0 11.5934 0.83263 10.5 2.26375C9.40655 0.83263 7.79263 0 5.97414 0C4.39029 0.0022229 2.87185 0.733042 1.7519 2.03216C0.631948 3.33127 0.00191634 5.09261 0 6.92983C0 14.5254 9.57763 20.5942 9.98496 20.8494C10.1432 20.9482 10.3202 21 10.5 21C10.6798 21 10.8568 20.9482 11.015 20.8494C11.4224 20.5942 21 14.5254 21 6.92983C20.9981 5.09261 20.3681 3.33127 19.2481 2.03216C18.1281 0.733042 16.6097 0.0022229 15.0259 0ZM14.5289 14.9474C13.2683 16.1883 11.9206 17.3052 10.5 18.2864C9.07938 17.3052 7.73174 16.1883 6.47108 14.9474C4.50957 12.9955 2.17241 10.0189 2.17241 6.92983C2.17241 5.76026 2.57295 4.63858 3.28591 3.81157C3.99887 2.98455 4.96586 2.51994 5.97414 2.51994C7.58534 2.51994 8.93405 3.50692 9.49435 5.09658C9.5759 5.32832 9.71511 5.52663 9.89422 5.66622C10.0733 5.80581 10.2842 5.88036 10.5 5.88036C10.7158 5.88036 10.9267 5.80581 11.1058 5.66622C11.2849 5.52663 11.4241 5.32832 11.5056 5.09658C12.0659 3.50692 13.4147 2.51994 15.0259 2.51994C16.0341 2.51994 17.0011 2.98455 17.7141 3.81157C18.427 4.63858 18.8276 5.76026 18.8276 6.92983C18.8276 10.0189 16.4904 12.9955 14.5289 14.9474Z" fill="black"/>
</svg>
