<svg width="12" height="15" viewBox="0 0 12 15" fill="none" xmlns="http://www.w3.org/2000/svg">
<path d="M5.66667 7.08333C6.05625 7.08333 6.38987 6.9445 6.66754 6.66683C6.94521 6.38917 7.08381 6.05578 7.08333 5.66667C7.08333 5.27708 6.9445 4.94346 6.66683 4.66579C6.38917 4.38812 6.05578 4.24953 5.66667 4.25C5.27708 4.25 4.94346 4.38883 4.66579 4.6665C4.38812 4.94417 4.24953 5.27756 4.25 5.66667C4.25 6.05625 4.38883 6.38988 4.6665 6.66754C4.94417 6.94521 5.27756 7.08381 5.66667 7.08333ZM5.66667 12.2896C7.10694 10.9674 8.17535 9.76603 8.87187 8.68558C9.5684 7.60514 9.91667 6.64606 9.91667 5.80833C9.91667 4.52153 9.5063 3.468 8.68558 2.64775C7.86486 1.8275 6.85856 1.41714 5.66667 1.41667C4.47431 1.41667 3.46776 1.82703 2.64704 2.64775C1.82632 3.46847 1.41619 4.522 1.41667 5.80833C1.41667 6.64653 1.76493 7.60585 2.46146 8.68629C3.15799 9.76674 4.22639 10.9678 5.66667 12.2896ZM5.66667 14.1667C3.76597 12.5493 2.34647 11.0472 1.40817 9.66025C0.469861 8.27333 0.000472222 6.98936 0 5.80833C0 4.0375 0.569736 2.62674 1.70921 1.57604C2.84868 0.525347 4.16783 0 5.66667 0C7.16597 0 8.48536 0.525347 9.62483 1.57604C10.7643 2.62674 11.3338 4.0375 11.3333 5.80833C11.3333 6.98889 10.8639 8.27286 9.92517 9.66025C8.98639 11.0476 7.56689 12.5498 5.66667 14.1667Z" fill="black"/>
</svg>
