<svg width="194" height="41" viewBox="0 0 194 41" fill="none" xmlns="http://www.w3.org/2000/svg">
<g clip-path="url(#clip0_145_644)">
<path d="M35.875 0H5.125C2.29454 0 0 2.29454 0 5.125V35.875C0 38.7055 2.29454 41 5.125 41H35.875C38.7055 41 41 38.7055 41 35.875V5.125C41 2.29454 38.7055 0 35.875 0Z" fill="#D9012A"/>
<path d="M20.5496 12.4678C18.4408 12.4706 16.417 13.3003 14.9131 14.7786C13.4092 16.2569 12.5448 18.266 12.5057 20.3745V32.3108H14.5175V20.5178C14.5175 19.3262 14.8707 18.1613 15.5326 17.1705C16.1945 16.1796 17.1353 15.4073 18.236 14.951C19.3369 14.4948 20.5482 14.375 21.7169 14.607C22.8857 14.839 23.9595 15.4124 24.8024 16.2546C25.6455 17.0967 26.2199 18.1699 26.4531 19.3384C26.6863 20.5069 26.5677 21.7183 26.1126 22.8196C25.6574 23.9208 24.8861 24.8624 23.8958 25.5253C22.9057 26.1882 21.7413 26.5426 20.5496 26.5438V28.5647C22.6571 28.5237 24.6644 27.6577 26.1403 26.1527C27.6162 24.6479 28.443 22.624 28.443 20.5163C28.443 18.4083 27.6162 16.3846 26.1403 14.8796C24.6644 13.3748 22.6571 12.5088 20.5496 12.4678Z" fill="white"/>
<path d="M20.5501 32.3904C20.3916 32.3904 20.2453 32.3904 20.0776 32.3904L20.1569 30.3725C20.288 30.3725 20.419 30.3725 20.5501 30.3725C22.5918 30.3722 24.5825 29.7347 26.2447 28.5493C27.907 27.364 29.1581 25.6896 29.8237 23.7594C30.4893 21.8293 30.5362 19.7396 29.9578 17.7816C29.3796 15.8236 28.2048 14.0946 26.5973 12.8358C24.99 11.577 23.0298 10.851 20.9903 10.759C18.9507 10.6669 16.9333 11.2134 15.219 12.3223C13.5046 13.4312 12.179 15.0473 11.4266 16.9452C10.6743 18.8432 10.5327 20.9286 11.0218 22.9108L9.05879 23.3924C8.46756 21.0006 8.63734 18.4838 9.54444 16.1931C10.4515 13.9022 12.0508 11.9516 14.1193 10.6128C16.1877 9.27414 18.6222 8.61414 21.0836 8.72485C23.5449 8.83555 25.9105 9.71145 27.8504 11.2304C29.7902 12.7494 31.2079 14.8359 31.9057 17.1989C32.6035 19.5617 32.5466 22.0836 31.7431 24.4127C30.9395 26.7419 29.4293 28.7623 27.4229 30.1923C25.4164 31.6223 23.0139 32.3908 20.5501 32.3904Z" fill="white"/>
<path d="M51.0338 33.7143L52.6205 31.2041H53.0373V34.2093H52.689V31.6992L51.1082 34.2093H50.6855V31.2041H51.0338V33.7143ZM55.9857 32.5443V32.873H54.219V32.5443H55.9857ZM54.3051 31.2041V34.2093H53.9568V31.2041H54.3051ZM56.2419 31.2041V34.2093H55.8937V31.2041H56.2419ZM56.7482 31.5329V31.2041H59.0959V31.5329H58.1021V34.2093H57.7538V31.5329H56.7482ZM60.891 34.2719C60.6105 34.2719 60.368 34.2067 60.1632 34.0763C59.9583 33.9444 59.7998 33.7625 59.6877 33.5303C59.5769 33.2969 59.5214 33.0282 59.5214 32.7243C59.5214 32.4217 59.5769 32.153 59.6877 31.9183C59.7998 31.6821 59.9545 31.4976 60.1514 31.3646C60.3496 31.2302 60.5786 31.1631 60.8382 31.1631C61.0011 31.1631 61.1584 31.1931 61.3097 31.253C61.461 31.3117 61.5965 31.4024 61.7166 31.525C61.8379 31.6462 61.9338 31.7996 62.0042 31.9848C62.0746 32.1687 62.1098 32.3866 62.1098 32.6382V32.8104H59.762V32.5033H61.7538C61.7538 32.3102 61.7147 32.1367 61.6364 31.9828C61.5594 31.8275 61.4518 31.7051 61.3135 31.615C61.1765 31.525 61.0182 31.4801 60.8382 31.4801C60.6476 31.4801 60.4801 31.5309 60.3353 31.6327C60.1905 31.7344 60.0771 31.8687 59.9949 32.0356C59.914 32.2026 59.873 32.3851 59.8716 32.5835V32.7673C59.8716 33.006 59.9127 33.2147 59.9949 33.3934C60.0784 33.5708 60.1964 33.7084 60.349 33.8062C60.5016 33.9041 60.6822 33.953 60.891 33.953C61.0332 33.953 61.1577 33.9308 61.2647 33.8864C61.3728 33.8421 61.4635 33.7827 61.5366 33.7084C61.6109 33.6327 61.667 33.5499 61.7048 33.46L62.0355 33.5675C61.9899 33.6941 61.9148 33.8108 61.8105 33.9178C61.7075 34.0248 61.5783 34.1107 61.4231 34.1759C61.2692 34.2399 61.0919 34.2719 60.891 34.2719ZM62.8773 35.3361V31.2041H63.2157V31.7774H63.2568C63.2986 31.6874 63.356 31.5954 63.429 31.5015C63.502 31.4063 63.5985 31.3261 63.7185 31.2608C63.8399 31.1956 63.9925 31.1631 64.1763 31.1631C64.4241 31.1631 64.6407 31.2283 64.8259 31.3587C65.0124 31.4879 65.1571 31.6692 65.2601 31.9026C65.3646 32.1348 65.4167 32.4054 65.4167 32.7146C65.4167 33.025 65.3646 33.2969 65.2601 33.5303C65.1571 33.7639 65.0124 33.9458 64.8259 34.0763C64.6407 34.2067 64.4254 34.2719 64.1802 34.2719C63.9989 34.2719 63.8469 34.2392 63.7244 34.174C63.6031 34.1088 63.5046 34.0286 63.429 33.9334C63.3547 33.8369 63.2973 33.743 63.2568 33.6517H63.2255V35.3361H62.8773ZM63.2215 32.7087C63.2215 32.9512 63.2574 33.1664 63.3292 33.3543C63.4022 33.5408 63.5066 33.6875 63.6422 33.7945C63.7792 33.9001 63.9448 33.953 64.1392 33.953C64.3387 33.953 64.507 33.8982 64.6439 33.7886C64.7822 33.6778 64.8872 33.5284 64.9589 33.3406C65.032 33.1527 65.0685 32.9421 65.0685 32.7087C65.0685 32.4778 65.0326 32.2697 64.9608 32.0846C64.8904 31.8993 64.7861 31.7526 64.6478 31.6443C64.5096 31.5348 64.3401 31.4801 64.1392 31.4801C63.9435 31.4801 63.7772 31.5329 63.6403 31.6384C63.5033 31.7429 63.399 31.8876 63.3273 32.0728C63.2568 32.2568 63.2215 32.4687 63.2215 32.7087ZM68.2096 32.5443V32.873H66.4429V32.5443H68.2096ZM66.529 31.2041V34.2093H66.1807V31.2041H66.529ZM68.4658 31.2041V34.2093H68.1176V31.2041H68.4658ZM70.6077 34.2719C70.3272 34.2719 70.0847 34.2067 69.8798 34.0763C69.6751 33.9444 69.5166 33.7625 69.4045 33.5303C69.2937 33.2969 69.2382 33.0282 69.2382 32.7243C69.2382 32.4217 69.2937 32.153 69.4045 31.9183C69.5166 31.6821 69.6712 31.4976 69.8682 31.3646C70.0664 31.2302 70.2953 31.1631 70.5549 31.1631C70.7179 31.1631 70.8751 31.1931 71.0264 31.253C71.1776 31.3117 71.3133 31.4024 71.4333 31.525C71.5545 31.6462 71.6505 31.7996 71.7208 31.9848C71.7913 32.1687 71.8266 32.3866 71.8266 32.6382V32.8104H69.4788V32.5033H71.4705C71.4705 32.3102 71.4313 32.1367 71.3531 31.9828C71.2761 31.8275 71.1685 31.7051 71.0303 31.615C70.8933 31.525 70.7348 31.4801 70.5549 31.4801C70.3644 31.4801 70.1968 31.5309 70.052 31.6327C69.9072 31.7344 69.7938 31.8687 69.7116 32.0356C69.6307 32.2026 69.5896 32.3851 69.5883 32.5835V32.7673C69.5883 33.006 69.6295 33.2147 69.7116 33.3934C69.7951 33.5708 69.9131 33.7084 70.0657 33.8062C70.2183 33.9041 70.399 33.953 70.6077 33.953C70.7498 33.953 70.8745 33.9308 70.9813 33.8864C71.0896 33.8421 71.1803 33.7827 71.2533 33.7084C71.3276 33.6327 71.3838 33.5499 71.4216 33.46L71.7522 33.5675C71.7065 33.6941 71.6315 33.8108 71.5273 33.9178C71.4241 34.0248 71.2951 34.1107 71.1398 34.1759C70.9859 34.2399 70.8086 34.2719 70.6077 34.2719ZM72.3024 31.5329V31.2041H74.6502V31.5329H73.6563V34.2093H73.3081V31.5329H72.3024ZM76.8523 32.3271V32.6559H75.1854V32.3271H76.8523ZM79.2978 33.7221L80.4267 31.2041H80.7651L79.4367 34.2093H79.1589L77.8461 31.2041H78.1787L79.2978 33.7221ZM78.075 31.2041V34.2093H77.7267V31.2041H78.075ZM80.5206 34.2093V31.2041H80.8688V34.2093H80.5206ZM82.6335 34.2777C82.4522 34.2777 82.2866 34.2426 82.1365 34.1721C81.9866 34.1003 81.8672 33.9973 81.7785 33.8629C81.6899 33.7274 81.6455 33.563 81.6455 33.3699C81.6455 33.2213 81.6736 33.096 81.7296 32.9942C81.7857 32.8925 81.8653 32.8091 81.9683 32.7439C82.0713 32.6787 82.1933 32.6272 82.3342 32.5894C82.475 32.5514 82.6303 32.5221 82.7998 32.5012C82.9681 32.4805 83.1103 32.4621 83.2263 32.4465C83.3437 32.4309 83.433 32.406 83.4944 32.3722C83.5556 32.3382 83.5863 32.2834 83.5863 32.2078V32.1373C83.5863 31.9326 83.525 31.7716 83.4024 31.6542C83.2811 31.5354 83.1063 31.4761 82.8781 31.4761C82.6616 31.4761 82.4849 31.5238 82.3479 31.619C82.2122 31.7142 82.117 31.8263 82.0622 31.9554L81.7316 31.8361C81.7994 31.6717 81.8933 31.5407 82.0133 31.4428C82.1333 31.3437 82.2677 31.2726 82.4163 31.2296C82.5651 31.1853 82.7156 31.1631 82.8682 31.1631C82.983 31.1631 83.1025 31.1781 83.2263 31.2081C83.3515 31.238 83.4676 31.2902 83.5746 31.3646C83.6816 31.4377 83.7683 31.54 83.8348 31.6717C83.9013 31.8022 83.9346 31.9678 83.9346 32.1687V34.2093H83.5863V33.7338H83.5647C83.5231 33.8226 83.4611 33.9087 83.3789 33.9921C83.2968 34.0756 83.1937 34.144 83.0698 34.1975C82.9459 34.251 82.8005 34.2777 82.6335 34.2777ZM82.6805 33.9588C82.8657 33.9588 83.0261 33.9178 83.1618 33.8355C83.2975 33.7534 83.4018 33.6445 83.4748 33.5088C83.5491 33.3718 83.5863 33.2213 83.5863 33.0569V32.6226C83.5602 32.6474 83.5166 32.6696 83.4552 32.6891C83.3952 32.7087 83.3254 32.7262 83.246 32.742C83.1677 32.7563 83.0894 32.7686 83.0111 32.7791C82.9328 32.7895 82.8625 32.7986 82.7998 32.8064C82.6303 32.8273 82.4855 32.86 82.3655 32.9043C82.2456 32.9486 82.1536 33.01 82.0896 33.0882C82.0257 33.1652 81.9938 33.2643 81.9938 33.3855C81.9938 33.5682 82.059 33.7097 82.1894 33.8101C82.3199 33.9093 82.4835 33.9588 82.6805 33.9588ZM86.6472 31.2041V31.5329H85.2092V34.2093H84.861V31.2041H86.6472ZM88.0622 34.2777C87.8809 34.2777 87.7152 34.2426 87.5653 34.1721C87.4153 34.1003 87.2959 33.9973 87.2072 33.8629C87.1185 33.7274 87.0742 33.563 87.0742 33.3699C87.0742 33.2213 87.1023 33.096 87.1582 32.9942C87.2144 32.8925 87.2939 32.8091 87.3969 32.7439C87.5001 32.6787 87.6219 32.6272 87.7629 32.5894C87.9037 32.5514 88.059 32.5221 88.2285 32.5012C88.3967 32.4805 88.5389 32.4621 88.655 32.4465C88.7724 32.4309 88.8617 32.406 88.923 32.3722C88.9843 32.3382 89.015 32.2834 89.015 32.2078V32.1373C89.015 31.9326 88.9537 31.7716 88.8311 31.6542C88.7097 31.5354 88.5349 31.4761 88.3068 31.4761C88.0902 31.4761 87.9135 31.5238 87.7766 31.619C87.6409 31.7142 87.5457 31.8263 87.4909 31.9554L87.1603 31.8361C87.2281 31.6717 87.322 31.5407 87.442 31.4428C87.562 31.3437 87.6964 31.2726 87.845 31.2296C87.9937 31.1853 88.1443 31.1631 88.297 31.1631C88.4117 31.1631 88.5311 31.1781 88.655 31.2081C88.7802 31.238 88.8963 31.2902 89.0033 31.3646C89.1102 31.4377 89.197 31.54 89.2635 31.6717C89.33 31.8022 89.3633 31.9678 89.3633 32.1687V34.2093H89.015V33.7338H88.9935C88.9517 33.8226 88.8897 33.9087 88.8076 33.9921C88.7255 34.0756 88.6223 34.144 88.4984 34.1975C88.3745 34.251 88.2291 34.2777 88.0622 34.2777ZM88.1092 33.9588C88.2943 33.9588 88.4548 33.9178 88.5904 33.8355C88.7261 33.7534 88.8304 33.6445 88.9034 33.5088C88.9778 33.3718 89.015 33.2213 89.015 33.0569V32.6226C88.9889 32.6474 88.9452 32.6696 88.884 32.6891C88.8239 32.7087 88.7542 32.7262 88.6746 32.742C88.5963 32.7563 88.518 32.7686 88.4398 32.7791C88.3615 32.7895 88.2911 32.7986 88.2285 32.8064C88.059 32.8273 87.9142 32.86 87.7941 32.9043C87.6742 32.9486 87.5822 33.01 87.5183 33.0882C87.4543 33.1652 87.4224 33.2643 87.4224 33.3855C87.4224 33.5682 87.4877 33.7097 87.6181 33.8101C87.7485 33.9093 87.9121 33.9588 88.1092 33.9588ZM90.0959 33.4423H90.4657C90.4762 33.6027 90.5452 33.728 90.6731 33.818C90.8008 33.9079 90.9692 33.953 91.1778 33.953C91.3943 33.953 91.5731 33.9047 91.7139 33.8082C91.8548 33.7103 91.9253 33.5682 91.9253 33.3817C91.9253 33.2682 91.8985 33.1698 91.8449 33.0862C91.7928 33.0028 91.721 32.9376 91.6298 32.8906C91.5397 32.8423 91.4374 32.8176 91.3226 32.8163H90.7983V32.4974H91.3168C91.4954 32.4869 91.6311 32.4387 91.7237 32.3526C91.8164 32.2652 91.8626 32.1511 91.8626 32.0102C91.8626 31.8498 91.8059 31.7213 91.6923 31.6247C91.5789 31.527 91.4251 31.478 91.2307 31.478C91.0338 31.478 90.87 31.5263 90.7396 31.6228C90.6092 31.7194 90.54 31.8433 90.5322 31.9945H90.1664C90.1729 31.8315 90.2218 31.688 90.3131 31.5641C90.4044 31.4389 90.5277 31.3411 90.6828 31.2707C90.8394 31.2002 91.0167 31.165 91.2151 31.165C91.4185 31.165 91.5952 31.2015 91.7453 31.2746C91.8952 31.3476 92.0112 31.4474 92.0935 31.5739C92.1756 31.6992 92.2168 31.8413 92.2168 32.0004C92.2168 32.166 92.171 32.3024 92.0798 32.4094C91.9897 32.5149 91.8744 32.5894 91.7335 32.6323V32.6618C91.8404 32.6734 91.9344 32.7126 92.0152 32.7791C92.0973 32.8456 92.1619 32.9311 92.2089 33.0354C92.2558 33.1397 92.2793 33.2551 92.2793 33.3817C92.2793 33.559 92.233 33.715 92.1404 33.8492C92.0478 33.9823 91.9187 34.086 91.7531 34.1603C91.5887 34.2348 91.3989 34.2719 91.1837 34.2719C90.9764 34.2719 90.7917 34.2373 90.63 34.1681C90.4684 34.0978 90.3398 34.0005 90.2446 33.8766C90.1507 33.7515 90.1012 33.6067 90.0959 33.4423ZM93.3441 33.7143L94.9308 31.2041H95.3475V34.2093H94.9992V31.6992L93.4184 34.2093H92.9959V31.2041H93.3441V33.7143ZM98.2959 32.5443V32.873H96.5292V32.5443H98.2959ZM96.6153 31.2041V34.2093H96.267V31.2041H96.6153ZM98.5522 31.2041V34.2093H98.2039V31.2041H98.5522ZM102.202 34.2719C101.934 34.2719 101.7 34.2046 101.5 34.0704C101.302 33.936 101.148 33.7521 101.038 33.5187C100.929 33.2852 100.874 33.0191 100.874 32.7204C100.874 32.4191 100.93 32.1511 101.04 31.9163C101.152 31.6815 101.308 31.4976 101.506 31.3646C101.704 31.2302 101.934 31.1631 102.197 31.1631C102.397 31.1631 102.579 31.2022 102.742 31.2804C102.905 31.3575 103.04 31.4664 103.145 31.6072C103.252 31.7467 103.32 31.9098 103.347 32.0963H102.995C102.958 31.9267 102.87 31.7819 102.731 31.662C102.592 31.5407 102.416 31.4801 102.202 31.4801C102.011 31.4801 101.841 31.5322 101.694 31.6365C101.546 31.7395 101.431 31.8837 101.347 32.0689C101.265 32.2528 101.224 32.4661 101.224 32.7087C101.224 32.9526 101.265 33.1684 101.346 33.3562C101.426 33.5428 101.54 33.6888 101.686 33.7945C101.833 33.9001 102.006 33.953 102.202 33.953C102.336 33.953 102.457 33.9282 102.566 33.8786C102.677 33.8277 102.77 33.7559 102.844 33.6634C102.92 33.5708 102.971 33.4606 102.997 33.3328H103.349C103.323 33.5141 103.258 33.6757 103.155 33.818C103.054 33.9588 102.921 34.0697 102.758 34.1506C102.596 34.2314 102.411 34.2719 102.202 34.2719ZM103.847 31.5329V31.2041H106.195V31.5329H105.201V34.2093H104.852V31.5329H103.847ZM106.931 35.3361V31.2041H107.269V31.7774H107.31C107.352 31.6874 107.409 31.5954 107.482 31.5015C107.555 31.4063 107.652 31.3261 107.772 31.2608C107.893 31.1956 108.046 31.1631 108.23 31.1631C108.478 31.1631 108.694 31.2283 108.879 31.3587C109.066 31.4879 109.211 31.6692 109.314 31.9026C109.418 32.1348 109.47 32.4054 109.47 32.7146C109.47 33.025 109.418 33.2969 109.314 33.5303C109.211 33.7639 109.066 33.9458 108.879 34.0763C108.694 34.2067 108.479 34.2719 108.234 34.2719C108.052 34.2719 107.901 34.2392 107.778 34.174C107.657 34.1088 107.558 34.0286 107.482 33.9334C107.408 33.8369 107.351 33.743 107.31 33.6517H107.279V35.3361H106.931ZM107.275 32.7087C107.275 32.9512 107.311 33.1664 107.383 33.3543C107.456 33.5408 107.56 33.6875 107.696 33.7945C107.833 33.9001 107.998 33.953 108.193 33.953C108.392 33.953 108.561 33.8982 108.697 33.7886C108.836 33.6778 108.941 33.5284 109.012 33.3406C109.085 33.1527 109.122 32.9421 109.122 32.7087C109.122 32.4778 109.086 32.2697 109.014 32.0846C108.944 31.8993 108.84 31.7526 108.701 31.6443C108.563 31.5348 108.394 31.4801 108.193 31.4801C107.997 31.4801 107.831 31.5329 107.694 31.6384C107.557 31.7429 107.452 31.8876 107.381 32.0728C107.31 32.2568 107.275 32.4687 107.275 32.7087ZM111.402 34.2719C111.143 34.2719 110.913 34.2061 110.714 34.0742C110.515 33.9425 110.36 33.7606 110.248 33.5284C110.136 33.295 110.08 33.0256 110.08 32.7204C110.08 32.4126 110.136 32.142 110.248 31.9085C110.36 31.6737 110.515 31.4911 110.714 31.3607C110.913 31.2289 111.143 31.1631 111.402 31.1631C111.662 31.1631 111.891 31.2289 112.089 31.3607C112.287 31.4924 112.442 31.6749 112.555 31.9085C112.668 32.142 112.725 32.4126 112.725 32.7204C112.725 33.0256 112.669 33.295 112.556 33.5284C112.444 33.7606 112.288 33.9425 112.089 34.0742C111.891 34.2061 111.662 34.2719 111.402 34.2719ZM111.402 33.953C111.611 33.953 111.788 33.8969 111.932 33.7847C112.077 33.6725 112.187 33.5231 112.261 33.3367C112.337 33.1502 112.375 32.9448 112.375 32.7204C112.375 32.4961 112.337 32.2899 112.261 32.1021C112.187 31.9143 112.077 31.7637 111.932 31.6502C111.788 31.5367 111.611 31.4801 111.402 31.4801C111.195 31.4801 111.018 31.5367 110.872 31.6502C110.727 31.7637 110.617 31.9143 110.541 32.1021C110.467 32.2899 110.43 32.4961 110.43 32.7204C110.43 32.9448 110.467 33.1502 110.541 33.3367C110.617 33.5231 110.727 33.6725 110.872 33.7847C111.017 33.8969 111.193 33.953 111.402 33.953ZM113.837 33.7143L115.424 31.2041H115.841V34.2093H115.493V31.6992L113.912 34.2093H113.489V31.2041H113.837V33.7143ZM116.34 31.5329V31.2041H118.688V31.5329H117.694V34.2093H117.345V31.5329H116.34ZM120.483 34.2719C120.202 34.2719 119.96 34.2067 119.755 34.0763C119.55 33.9444 119.392 33.7625 119.279 33.5303C119.168 33.2969 119.113 33.0282 119.113 32.7243C119.113 32.4217 119.168 32.153 119.279 31.9183C119.392 31.6821 119.546 31.4976 119.743 31.3646C119.941 31.2302 120.17 31.1631 120.43 31.1631C120.593 31.1631 120.75 31.1931 120.901 31.253C121.053 31.3117 121.188 31.4024 121.308 31.525C121.43 31.6462 121.525 31.7996 121.596 31.9848C121.666 32.1687 121.702 32.3866 121.702 32.6382V32.8104H119.354V32.5033H121.345C121.345 32.3102 121.306 32.1367 121.228 31.9828C121.151 31.8275 121.043 31.7051 120.905 31.615C120.768 31.525 120.61 31.4801 120.43 31.4801C120.239 31.4801 120.072 31.5309 119.927 31.6327C119.782 31.7344 119.669 31.8687 119.587 32.0356C119.506 32.2026 119.465 32.3851 119.463 32.5835V32.7673C119.463 33.006 119.504 33.2147 119.587 33.3934C119.67 33.5708 119.788 33.7084 119.941 33.8062C120.093 33.9041 120.274 33.953 120.483 33.953C120.625 33.953 120.749 33.9308 120.856 33.8864C120.965 33.8421 121.055 33.7827 121.128 33.7084C121.203 33.6327 121.259 33.5499 121.297 33.46L121.627 33.5675C121.581 33.6941 121.507 33.8108 121.402 33.9178C121.299 34.0248 121.17 34.1107 121.015 34.1759C120.861 34.2399 120.683 34.2719 120.483 34.2719ZM122.173 34.2093V33.8806H122.267C122.374 33.8806 122.46 33.861 122.526 33.8219C122.592 33.7814 122.644 33.7137 122.68 33.6183C122.717 33.5231 122.744 33.3934 122.762 33.2291C122.781 33.0647 122.795 32.8587 122.805 32.6109L122.87 31.2041H124.779V34.2093H124.429V31.5329H123.201L123.144 32.7283C123.132 32.9721 123.113 33.1867 123.085 33.3718C123.059 33.5571 123.016 33.7116 122.956 33.8355C122.897 33.9595 122.815 34.0527 122.709 34.1153C122.605 34.178 122.468 34.2093 122.299 34.2093H122.173ZM125.992 32.3643H126.87C127.208 32.3643 127.469 32.4465 127.653 32.6109C127.837 32.7752 127.929 32.9976 127.929 33.278C127.929 33.4645 127.888 33.6276 127.806 33.7671C127.723 33.9066 127.603 34.0155 127.446 34.0938C127.288 34.1708 127.096 34.2093 126.87 34.2093H125.702V31.2041H126.051V33.8806H126.87C127.083 33.8806 127.255 33.8297 127.385 33.728C127.515 33.6263 127.581 33.4815 127.581 33.2937C127.581 33.1019 127.515 32.9539 127.385 32.8495C127.255 32.7452 127.083 32.693 126.87 32.693H125.992V32.3643ZM130.723 32.5443V32.873H128.956V32.5443H130.723ZM129.042 31.2041V34.2093H128.693V31.2041H129.042ZM130.979 31.2041V34.2093H130.631V31.2041H130.979ZM132.199 32.3643H133.079C133.417 32.3643 133.679 32.4465 133.862 32.6109C134.046 32.7752 134.139 32.9976 134.139 33.278C134.139 33.4645 134.096 33.6276 134.013 33.7671C133.931 33.9066 133.811 34.0155 133.653 34.0938C133.496 34.1708 133.305 34.2093 133.079 34.2093H131.909V31.2041H132.26V33.8806H133.079C133.292 33.8806 133.464 33.8297 133.593 33.728C133.722 33.6263 133.788 33.4815 133.788 33.2937C133.788 33.1019 133.722 32.9539 133.593 32.8495C133.464 32.7452 133.292 32.693 133.079 32.693H132.199V32.3643ZM134.645 34.2093V31.2041H134.993V34.2093H134.645ZM136.135 31.2041L136.91 32.4856L137.684 31.2041H138.089L137.123 32.7067L138.089 34.2093H137.684L136.91 32.9689L136.135 34.2093H135.731L136.686 32.7067L135.731 31.2041H136.135ZM141.94 33.7221L143.069 31.2041H143.407L142.079 34.2093H141.801L140.489 31.2041H140.82L141.94 33.7221ZM140.717 31.2041V34.2093H140.369V31.2041H140.717ZM143.163 34.2093V31.2041H143.511V34.2093H143.163ZM145.275 34.2777C145.095 34.2777 144.929 34.2426 144.778 34.1721C144.628 34.1003 144.509 33.9973 144.421 33.8629C144.332 33.7274 144.288 33.563 144.288 33.3699C144.288 33.2213 144.316 33.096 144.372 32.9942C144.428 32.8925 144.508 32.8091 144.61 32.7439C144.714 32.6787 144.836 32.6272 144.977 32.5894C145.118 32.5514 145.273 32.5221 145.442 32.5012C145.61 32.4805 145.752 32.4621 145.869 32.4465C145.986 32.4309 146.075 32.406 146.136 32.3722C146.198 32.3382 146.229 32.2834 146.229 32.2078V32.1373C146.229 31.9326 146.167 31.7716 146.044 31.6542C145.924 31.5354 145.748 31.4761 145.52 31.4761C145.304 31.4761 145.127 31.5238 144.99 31.619C144.854 31.7142 144.759 31.8263 144.704 31.9554L144.373 31.8361C144.441 31.6717 144.536 31.5407 144.655 31.4428C144.776 31.3437 144.91 31.2726 145.059 31.2296C145.207 31.1853 145.357 31.1631 145.511 31.1631C145.625 31.1631 145.744 31.1781 145.869 31.2081C145.994 31.238 146.109 31.2902 146.217 31.3646C146.323 31.4377 146.411 31.54 146.477 31.6717C146.544 31.8022 146.577 31.9678 146.577 32.1687V34.2093H146.229V33.7338H146.207C146.166 33.8226 146.103 33.9087 146.021 33.9921C145.939 34.0756 145.837 34.144 145.712 34.1975C145.588 34.251 145.443 34.2777 145.275 34.2777ZM145.323 33.9588C145.509 33.9588 145.669 33.9178 145.805 33.8355C145.939 33.7534 146.044 33.6445 146.117 33.5088C146.191 33.3718 146.229 33.2213 146.229 33.0569V32.6226C146.203 32.6474 146.158 32.6696 146.098 32.6891C146.038 32.7087 145.967 32.7262 145.888 32.742C145.81 32.7563 145.731 32.7686 145.653 32.7791C145.575 32.7895 145.505 32.7986 145.442 32.8064C145.273 32.8273 145.128 32.86 145.008 32.9043C144.887 32.9486 144.796 33.01 144.732 33.0882C144.668 33.1652 144.636 33.2643 144.636 33.3855C144.636 33.5682 144.701 33.7097 144.832 33.8101C144.961 33.9093 145.125 33.9588 145.323 33.9588ZM147.082 31.5329V31.2041H149.43V31.5329H148.436V34.2093H148.088V31.5329H147.082ZM151.225 34.2719C150.945 34.2719 150.703 34.2067 150.498 34.0763C150.293 33.9444 150.134 33.7625 150.022 33.5303C149.911 33.2969 149.856 33.0282 149.856 32.7243C149.856 32.4217 149.911 32.153 150.022 31.9183C150.134 31.6821 150.289 31.4976 150.486 31.3646C150.684 31.2302 150.913 31.1631 151.173 31.1631C151.336 31.1631 151.493 31.1931 151.644 31.253C151.796 31.3117 151.931 31.4024 152.051 31.525C152.172 31.6462 152.268 31.7996 152.339 31.9848C152.409 32.1687 152.444 32.3866 152.444 32.6382V32.8104H150.097V32.5033H152.088C152.088 32.3102 152.049 32.1367 151.971 31.9828C151.894 31.8275 151.787 31.7051 151.648 31.615C151.511 31.525 151.352 31.4801 151.173 31.4801C150.982 31.4801 150.814 31.5309 150.669 31.6327C150.525 31.7344 150.412 31.8687 150.33 32.0356C150.248 32.2026 150.207 32.3851 150.206 32.5835V32.7673C150.206 33.006 150.247 33.2147 150.33 33.3934C150.413 33.5708 150.531 33.7084 150.684 33.8062C150.836 33.9041 151.017 33.953 151.225 33.953C151.368 33.953 151.492 33.9308 151.6 33.8864C151.707 33.8421 151.798 33.7827 151.871 33.7084C151.946 33.6327 152.002 33.5499 152.039 33.46L152.37 33.5675C152.325 33.6941 152.249 33.8108 152.145 33.9178C152.042 34.0248 151.912 34.1107 151.757 34.1759C151.603 34.2399 151.427 34.2719 151.225 34.2719ZM153.211 35.3361V31.2041H153.55V31.7774H153.591C153.633 31.6874 153.691 31.5954 153.764 31.5015C153.837 31.4063 153.933 31.3261 154.053 31.2608C154.174 31.1956 154.327 31.1631 154.511 31.1631C154.758 31.1631 154.974 31.2283 155.16 31.3587C155.347 31.4879 155.492 31.6692 155.595 31.9026C155.698 32.1348 155.751 32.4054 155.751 32.7146C155.751 33.025 155.698 33.2969 155.595 33.5303C155.492 33.7639 155.347 33.9458 155.16 34.0763C154.974 34.2067 154.76 34.2719 154.514 34.2719C154.334 34.2719 154.181 34.2392 154.058 34.174C153.938 34.1088 153.839 34.0286 153.764 33.9334C153.689 33.8369 153.632 33.743 153.591 33.6517H153.56V35.3361H153.211ZM153.556 32.7087C153.556 32.9512 153.592 33.1664 153.664 33.3543C153.737 33.5408 153.841 33.6875 153.976 33.7945C154.113 33.9001 154.279 33.953 154.473 33.953C154.673 33.953 154.841 33.8982 154.978 33.7886C155.117 33.6778 155.222 33.5284 155.293 33.3406C155.366 33.1527 155.402 32.9421 155.402 32.7087C155.402 32.4778 155.366 32.2697 155.295 32.0846C155.224 31.8993 155.12 31.7526 154.982 31.6443C154.844 31.5348 154.675 31.4801 154.473 31.4801C154.277 31.4801 154.112 31.5329 153.975 31.6384C153.838 31.7429 153.733 31.8876 153.661 32.0728C153.591 32.2568 153.556 32.4687 153.556 32.7087ZM156.863 33.7143L158.45 31.2041H158.867V34.2093H158.518V31.6992L156.937 34.2093H156.514V31.2041H156.863V33.7143ZM160.626 34.2777C160.444 34.2777 160.279 34.2426 160.129 34.1721C159.979 34.1003 159.86 33.9973 159.77 33.8629C159.682 33.7274 159.638 33.563 159.638 33.3699C159.638 33.2213 159.665 33.096 159.721 32.9942C159.778 32.8925 159.857 32.8091 159.961 32.7439C160.064 32.6787 160.185 32.6272 160.326 32.5894C160.467 32.5514 160.622 32.5221 160.791 32.5012C160.96 32.4805 161.103 32.4621 161.218 32.4465C161.336 32.4309 161.426 32.406 161.487 32.3722C161.547 32.3382 161.578 32.2834 161.578 32.2078V32.1373C161.578 31.9326 161.516 31.7716 161.395 31.6542C161.273 31.5354 161.099 31.4761 160.871 31.4761C160.654 31.4761 160.477 31.5238 160.34 31.619C160.204 31.7142 160.11 31.8263 160.055 31.9554L159.724 31.8361C159.792 31.6717 159.885 31.5407 160.006 31.4428C160.125 31.3437 160.26 31.2726 160.408 31.2296C160.557 31.1853 160.708 31.1631 160.86 31.1631C160.976 31.1631 161.095 31.1781 161.218 31.2081C161.344 31.238 161.46 31.2902 161.566 31.3646C161.674 31.4377 161.76 31.54 161.827 31.6717C161.893 31.8022 161.926 31.9678 161.926 32.1687V34.2093H161.578V33.7338H161.557C161.515 33.8226 161.454 33.9087 161.37 33.9921C161.288 34.0756 161.186 34.144 161.062 34.1975C160.937 34.251 160.793 34.2777 160.626 34.2777ZM160.672 33.9588C160.858 33.9588 161.018 33.9178 161.154 33.8355C161.29 33.7534 161.393 33.6445 161.467 33.5088C161.541 33.3718 161.578 33.2213 161.578 33.0569V32.6226C161.552 32.6474 161.509 32.6696 161.447 32.6891C161.387 32.7087 161.318 32.7262 161.238 32.742C161.16 32.7563 161.081 32.7686 161.003 32.7791C160.925 32.7895 160.854 32.7986 160.791 32.8064C160.622 32.8273 160.477 32.86 160.357 32.9043C160.238 32.9486 160.146 33.01 160.081 33.0882C160.017 33.1652 159.985 33.2643 159.985 33.3855C159.985 33.5682 160.051 33.7097 160.181 33.8101C160.312 33.9093 160.476 33.9588 160.672 33.9588ZM162.558 34.2093V33.8806H162.652C162.758 33.8806 162.845 33.861 162.909 33.8219C162.976 33.7814 163.028 33.7137 163.064 33.6183C163.101 33.5231 163.128 33.3934 163.146 33.2291C163.164 33.0647 163.18 32.8587 163.19 32.6109L163.254 31.2041H165.164V34.2093H164.813V31.5329H163.584L163.528 32.7283C163.517 32.9721 163.497 33.1867 163.469 33.3718C163.443 33.5571 163.4 33.7116 163.34 33.8355C163.282 33.9595 163.199 34.0527 163.094 34.1153C162.99 34.178 162.853 34.2093 162.682 34.2093H162.558ZM167.254 34.2719C166.995 34.2719 166.766 34.2061 166.566 34.0742C166.367 33.9425 166.212 33.7606 166.101 33.5284C165.988 33.295 165.932 33.0256 165.932 32.7204C165.932 32.4126 165.988 32.142 166.101 31.9085C166.212 31.6737 166.367 31.4911 166.566 31.3607C166.766 31.2289 166.995 31.1631 167.254 31.1631C167.514 31.1631 167.743 31.2289 167.941 31.3607C168.139 31.4924 168.294 31.6749 168.407 31.9085C168.52 32.142 168.577 32.4126 168.577 32.7204C168.577 33.0256 168.521 33.295 168.408 33.5284C168.297 33.7606 168.141 33.9425 167.941 34.0742C167.743 34.2061 167.514 34.2719 167.254 34.2719ZM167.254 33.953C167.463 33.953 167.64 33.8969 167.784 33.7847C167.929 33.6725 168.039 33.5231 168.114 33.3367C168.189 33.1502 168.226 32.9448 168.226 32.7204C168.226 32.4961 168.189 32.2899 168.114 32.1021C168.039 31.9143 167.929 31.7637 167.784 31.6502C167.64 31.5367 167.463 31.4801 167.254 31.4801C167.048 31.4801 166.871 31.5367 166.725 31.6502C166.58 31.7637 166.47 31.9143 166.394 32.1021C166.32 32.2899 166.283 32.4961 166.283 32.7204C166.283 32.9448 166.32 33.1502 166.394 33.3367C166.47 33.5231 166.58 33.6725 166.725 33.7847C166.87 33.8969 167.046 33.953 167.254 33.953ZM169.341 34.2093V31.2041H170.525C170.845 31.2041 171.096 31.2733 171.281 31.4115C171.465 31.5498 171.558 31.7363 171.558 31.971C171.558 32.1498 171.506 32.2926 171.404 32.3995C171.3 32.5065 171.163 32.5822 170.989 32.6265C171.105 32.646 171.213 32.6884 171.312 32.7536C171.412 32.8188 171.494 32.9049 171.556 33.0119C171.619 33.1189 171.65 33.2467 171.65 33.3954C171.65 33.5518 171.611 33.6915 171.533 33.814C171.455 33.9366 171.345 34.0332 171.203 34.1036C171.061 34.174 170.891 34.2093 170.698 34.2093H169.341ZM169.674 33.8864H170.698C170.881 33.8864 171.027 33.8395 171.134 33.7456C171.241 33.6504 171.294 33.5238 171.294 33.3661C171.294 33.1977 171.244 33.0634 171.141 32.963C171.041 32.8613 170.905 32.8104 170.736 32.8104H169.674V33.8864ZM169.674 32.5012H170.547C170.683 32.5012 170.8 32.4805 170.899 32.4387C170.998 32.3969 171.075 32.3382 171.128 32.2625C171.182 32.1857 171.209 32.0956 171.208 31.9926C171.208 31.8452 171.148 31.7311 171.028 31.6502C170.908 31.5681 170.74 31.527 170.525 31.527H169.674V32.5012Z" fill="#333333"/>
<path d="M50.2246 25.241V5.50977H58.3426C60.0902 5.50977 61.5842 5.79164 62.8244 6.35539C64.0835 6.91914 65.0512 7.72719 65.7277 8.77952C66.4042 9.83184 66.7425 11.0815 66.7425 12.5285C66.7425 13.9754 66.4042 15.2251 65.7277 16.2774C65.0512 17.3297 64.0835 18.1378 62.8244 18.7015C61.5842 19.2653 60.0902 19.5471 58.3426 19.5471H52.2541L53.889 17.8277V25.241H50.2246ZM53.889 18.2223L52.2541 16.4465H58.1735C59.7895 16.4465 61.0016 16.1083 61.8097 15.4318C62.6365 14.7364 63.0499 13.7687 63.0499 12.5285C63.0499 11.2694 62.6365 10.3016 61.8097 9.62514C61.0016 8.94864 59.7895 8.61039 58.1735 8.61039H52.2541L53.889 6.80639V18.2223Z" fill="#333333"/>
<path d="M70.0517 22.1404C71.0853 22.4975 71.9966 22.5914 72.7859 22.4223C73.5751 22.2531 74.2798 21.68 74.8999 20.7028L75.8583 19.2089L76.2248 18.8143L83.1025 5.50977H86.7105L78.1415 21.4357C77.4462 22.7699 76.6194 23.7846 75.661 24.48C74.7026 25.1753 73.669 25.5604 72.5604 25.6356C71.4704 25.7296 70.3336 25.5229 69.1497 25.0155L70.0517 22.1404ZM76.1402 21.9713L67.3457 5.50977H71.2638L78.1415 19.1525L76.1402 21.9713Z" fill="#333333"/>
<path d="M89.3014 25.4379C88.6624 25.4379 88.1175 25.2218 87.6665 24.7896C87.2155 24.3386 86.99 23.7749 86.99 23.0984C86.99 22.3843 87.2155 21.8206 87.6665 21.4071C88.1175 20.9749 88.6624 20.7588 89.3014 20.7588C89.9403 20.7588 90.4852 20.9749 90.9362 21.4071C91.3872 21.8206 91.6127 22.3843 91.6127 23.0984C91.6127 23.7749 91.3872 24.3386 90.9362 24.7896C90.4852 25.2218 89.9403 25.4379 89.3014 25.4379Z" fill="#333333"/>
<path d="M95.7728 25.5229C95.4534 25.5229 95.134 25.4947 94.8144 25.4383C94.495 25.382 94.1474 25.3162 93.7715 25.241L94.0252 22.0558C94.2883 22.131 94.5702 22.1686 94.8708 22.1686C95.66 22.1686 96.2896 21.8492 96.7594 21.2102C97.2292 20.5525 97.5674 19.5942 97.7741 18.3351C97.9809 17.076 98.1218 15.5257 98.1969 13.6841L98.4788 5.50977H112.995V25.241H109.387V7.70839L110.233 8.61039H100.847L101.636 7.6802L101.438 13.5432C101.382 15.4975 101.251 17.2169 101.044 18.7015C100.837 20.1861 100.518 21.4357 100.085 22.4505C99.6721 23.4464 99.1178 24.2074 98.4224 24.7336C97.7272 25.2598 96.8439 25.5229 95.7728 25.5229Z" fill="#333333"/>
<path d="M121.929 13.7123H131.738V16.7284H121.929V13.7123ZM122.211 22.1686H133.345V25.241H118.547V5.50977H132.95V8.5822H122.211V22.1686Z" fill="#333333"/>
<path d="M141.574 25.241V7.70839L142.448 8.61039H135.062V5.50977H151.749V8.61039H144.363L145.21 7.70839V25.241H141.574Z" fill="#333333"/>
<path d="M167.961 25.241L161.281 15.6291L164.24 13.7969L172.105 25.241H167.961ZM154.91 25.241V5.50977H158.518V25.241H154.91ZM157.419 16.9257V13.7687H164.071V16.9257H157.419ZM164.578 15.7982L161.224 15.3472L167.961 5.50977H171.851L164.578 15.7982Z" fill="#333333"/>
<path d="M171.752 25.241L180.631 5.50977H184.239L193.146 25.241H189.313L181.674 7.4547H183.14L175.529 25.241H171.752ZM175.839 20.6746L176.826 17.7995H187.481L188.467 20.6746H175.839Z" fill="#333333"/>
</g>
<defs>
<clipPath id="clip0_145_644">
<rect width="193.212" height="41" fill="white"/>
</clipPath>
</defs>
</svg>
