<svg width="213" height="46" viewBox="0 0 213 46" fill="none" xmlns="http://www.w3.org/2000/svg">
<g clip-path="url(#clip0_145_718)">
<path d="M39.5491 0.398438H5.64987C2.52953 0.398438 0 2.92797 0 6.04831V39.9475C0 43.0678 2.52953 45.5974 5.64987 45.5974H39.5491C42.6694 45.5974 45.1989 43.0678 45.1989 39.9475V6.04831C45.1989 2.92797 42.6694 0.398438 39.5491 0.398438Z" fill="#D9012A"/>
<path d="M22.6547 14.1426C20.33 14.1457 18.099 15.0603 16.441 16.69C14.7831 18.3197 13.8302 20.5346 13.7871 22.8591V36.0178H16.0049V23.017C16.0049 21.7034 16.3943 20.4192 17.124 19.327C17.8536 18.2346 18.8908 17.3831 20.1043 16.8801C21.3178 16.3772 22.6532 16.2451 23.9416 16.5009C25.2301 16.7567 26.4139 17.3888 27.3431 18.3172C28.2725 19.2456 28.9058 20.4287 29.1628 21.7168C29.4199 23.005 29.2892 24.3405 28.7875 25.5545C28.2857 26.7685 27.4354 27.8066 26.3437 28.5374C25.2521 29.2682 23.9685 29.6589 22.6547 29.6601V31.888C24.9781 31.8428 27.191 30.8881 28.818 29.229C30.4451 27.5701 31.3565 25.339 31.3565 23.0153C31.3565 20.6915 30.4451 18.4605 28.818 16.8015C27.191 15.1425 24.9781 14.1878 22.6547 14.1426Z" fill="white"/>
<path d="M22.655 36.1063C22.4802 36.1063 22.3189 36.1063 22.1341 36.1063L22.2215 33.8818C22.366 33.8818 22.5105 33.8818 22.655 33.8818C24.9057 33.8814 27.1003 33.1787 28.9328 31.8719C30.7654 30.5652 32.1445 28.7192 32.8783 26.5913C33.612 24.4636 33.6637 22.1599 33.0261 20.0013C32.3887 17.8428 31.0936 15.9368 29.3215 14.5491C27.5496 13.1614 25.3887 12.361 23.1403 12.2596C20.8918 12.1581 18.6677 12.7605 16.7778 13.983C14.888 15.2055 13.4265 16.987 12.5971 19.0793C11.7677 21.1717 11.6117 23.4706 12.1508 25.6559L9.98679 26.1868C9.33501 23.55 9.52218 20.7755 10.5222 18.2502C11.5222 15.7247 13.2852 13.5743 15.5655 12.0984C17.8458 10.6226 20.5296 9.89504 23.2431 10.0171C25.9565 10.1391 28.5643 11.1047 30.7029 12.7793C32.8414 14.4538 34.4043 16.7539 35.1735 19.3589C35.9428 21.9638 35.88 24.744 34.9943 27.3116C34.1084 29.8793 32.4435 32.1066 30.2316 33.6831C28.0197 35.2595 25.3711 36.1067 22.655 36.1063Z" fill="white"/>
<path d="M56.2589 37.5664L58.0081 34.7991H58.4676V38.112H58.0837V35.3449L56.341 38.112H55.875V34.7991H56.2589V37.5664ZM61.7179 36.2765V36.639H59.7703V36.2765H61.7179ZM59.8652 34.7991V38.112H59.4813V34.7991H59.8652ZM62.0004 34.7991V38.112H61.6165V34.7991H62.0004ZM62.5585 35.1615V34.7991H65.1467V35.1615H64.0511V38.112H63.6672V35.1615H62.5585ZM67.1256 38.1811C66.8164 38.1811 66.549 38.1092 66.3233 37.9654C66.0974 37.8201 65.9227 37.6195 65.7991 37.3636C65.677 37.1062 65.6158 36.81 65.6158 36.475C65.6158 36.1414 65.677 35.8452 65.7991 35.5864C65.9227 35.3261 66.0932 35.1227 66.3103 34.9761C66.5288 34.8279 66.7812 34.7539 67.0674 34.7539C67.2471 34.7539 67.4204 34.787 67.5872 34.8531C67.754 34.9178 67.9034 35.0178 68.0358 35.1529C68.1695 35.2865 68.2752 35.4556 68.3529 35.6597C68.4304 35.8626 68.4693 36.1027 68.4693 36.3801V36.5699H65.8811V36.2313H68.0767C68.0767 36.0185 68.0337 35.8272 67.9474 35.6576C67.8625 35.4864 67.7438 35.3514 67.5914 35.2521C67.4404 35.1529 67.2658 35.1034 67.0674 35.1034C66.8574 35.1034 66.6726 35.1594 66.513 35.2716C66.3534 35.3837 66.2284 35.5318 66.1377 35.7158C66.0486 35.8998 66.0034 36.1011 66.0018 36.3198V36.5225C66.0018 36.7856 66.0472 37.0157 66.1377 37.2126C66.2298 37.4082 66.3599 37.5599 66.5281 37.6677C66.6963 37.7756 66.8955 37.8296 67.1256 37.8296C67.2824 37.8296 67.4197 37.8051 67.5376 37.7561C67.6568 37.7072 67.7568 37.6418 67.8373 37.5599C67.9192 37.4764 67.9811 37.3852 68.0228 37.286L68.3873 37.4045C68.3371 37.5441 68.2543 37.6728 68.1393 37.7907C68.0257 37.9087 67.8834 38.0034 67.7122 38.0753C67.5425 38.1458 67.3471 38.1811 67.1256 38.1811ZM69.3153 39.3543V34.7991H69.6884V35.4312H69.7337C69.7797 35.3319 69.843 35.2305 69.9235 35.1269C70.004 35.022 70.1104 34.9336 70.2428 34.8617C70.3765 34.7898 70.5447 34.7539 70.7474 34.7539C71.0206 34.7539 71.2593 34.8258 71.4635 34.9696C71.6691 35.112 71.8287 35.3118 71.9422 35.5692C72.0573 35.8251 72.1148 36.1234 72.1148 36.4643C72.1148 36.8065 72.0573 37.1062 71.9422 37.3636C71.8287 37.6211 71.6691 37.8216 71.4635 37.9654C71.2593 38.1092 71.022 38.1811 70.7517 38.1811C70.5518 38.1811 70.3843 38.1451 70.2493 38.0732C70.1155 38.0013 70.0069 37.9129 69.9235 37.8079C69.8416 37.7016 69.7783 37.5981 69.7337 37.4973H69.6992V39.3543H69.3153ZM69.6949 36.4578C69.6949 36.7251 69.7344 36.9624 69.8135 37.1695C69.894 37.3752 70.0091 37.5369 70.1586 37.6548C70.3096 37.7712 70.4922 37.8296 70.7065 37.8296C70.9264 37.8296 71.112 37.7691 71.2628 37.6483C71.4154 37.5262 71.5311 37.3615 71.6102 37.1544C71.6907 36.9473 71.7309 36.7151 71.7309 36.4578C71.7309 36.2032 71.6914 35.9739 71.6123 35.7698C71.5346 35.5655 71.4196 35.4038 71.2672 35.2844C71.1148 35.1637 70.9279 35.1034 70.7065 35.1034C70.4908 35.1034 70.3074 35.1615 70.1564 35.2779C70.0055 35.393 69.8905 35.5527 69.8114 35.7568C69.7337 35.9596 69.6949 36.1932 69.6949 36.4578ZM75.1937 36.2765V36.639H73.2461V36.2765H75.1937ZM73.341 34.7991V38.112H72.9571V34.7991H73.341ZM75.4762 34.7991V38.112H75.0923V34.7991H75.4762ZM77.8374 38.1811C77.5283 38.1811 77.2609 38.1092 77.035 37.9654C76.8093 37.8201 76.6346 37.6195 76.511 37.3636C76.3888 37.1062 76.3277 36.81 76.3277 36.475C76.3277 36.1414 76.3888 35.8452 76.511 35.5864C76.6346 35.3261 76.8051 35.1227 77.0222 34.9761C77.2407 34.8279 77.4931 34.7539 77.7793 34.7539C77.9589 34.7539 78.1322 34.787 78.299 34.8531C78.4657 34.9178 78.6153 35.0178 78.7476 35.1529C78.8813 35.2865 78.987 35.4556 79.0646 35.6597C79.1423 35.8626 79.1811 36.1027 79.1811 36.3801V36.5699H76.5929V36.2313H78.7886C78.7886 36.0185 78.7454 35.8272 78.6592 35.6576C78.5743 35.4864 78.4557 35.3514 78.3033 35.2521C78.1523 35.1529 77.9776 35.1034 77.7793 35.1034C77.5692 35.1034 77.3845 35.1594 77.2249 35.2716C77.0653 35.3837 76.9402 35.5318 76.8496 35.7158C76.7604 35.8998 76.7151 36.1011 76.7137 36.3198V36.5225C76.7137 36.7856 76.759 37.0157 76.8496 37.2126C76.9417 37.4082 77.0717 37.5599 77.24 37.6677C77.4082 37.7756 77.6074 37.8296 77.8374 37.8296C77.9941 37.8296 78.1315 37.8051 78.2493 37.7561C78.3687 37.7072 78.4687 37.6418 78.5492 37.5599C78.6311 37.4764 78.693 37.3852 78.7346 37.286L79.0992 37.4045C79.0488 37.5441 78.9661 37.6728 78.8512 37.7907C78.7375 37.9087 78.5952 38.0034 78.424 38.0753C78.2544 38.1458 78.0589 38.1811 77.8374 38.1811ZM79.7057 35.1615V34.7991H82.2939V35.1615H81.1983V38.112H80.8144V35.1615H79.7057ZM84.7215 36.0371V36.3996H82.8839V36.0371H84.7215ZM87.4175 37.575L88.662 34.7991H89.0351L87.5706 38.112H87.2644L85.8172 34.7991H86.1839L87.4175 37.575ZM86.0694 34.7991V38.112H85.6855V34.7991H86.0694ZM88.7656 38.112V34.7991H89.1495V38.112H88.7656ZM91.0949 38.1875C90.895 38.1875 90.7124 38.1488 90.547 38.0711C90.3817 37.992 90.2501 37.8784 90.1523 37.7303C90.0546 37.5808 90.0057 37.3996 90.0057 37.1867C90.0057 37.0229 90.0366 36.8848 90.0984 36.7726C90.1602 36.6605 90.2479 36.5685 90.3615 36.4966C90.4751 36.4247 90.6095 36.3679 90.7649 36.3263C90.9201 36.2845 91.0913 36.2521 91.2782 36.2291C91.4637 36.2062 91.6204 36.186 91.7484 36.1688C91.8778 36.1515 91.9762 36.1241 92.0439 36.0869C92.1114 36.0494 92.1452 35.989 92.1452 35.9056V35.8279C92.1452 35.6022 92.0777 35.4247 91.9425 35.2953C91.8087 35.1644 91.6161 35.099 91.3645 35.099C91.1258 35.099 90.931 35.1515 90.78 35.2565C90.6304 35.3614 90.5255 35.485 90.465 35.6274L90.1006 35.4959C90.1753 35.3147 90.2789 35.1702 90.4111 35.0622C90.5434 34.9531 90.6916 34.8747 90.8554 34.8272C91.0194 34.7783 91.1854 34.7539 91.3536 34.7539C91.4802 34.7539 91.6118 34.7704 91.7484 34.8035C91.8864 34.8365 92.0144 34.894 92.1323 34.9761C92.2503 35.0566 92.3459 35.1695 92.4192 35.3147C92.4925 35.4584 92.5292 35.6411 92.5292 35.8626V38.112H92.1452V37.5879H92.1214C92.0755 37.6858 92.0072 37.7807 91.9166 37.8726C91.8261 37.9647 91.7124 38.0401 91.5758 38.099C91.4392 38.1581 91.2789 38.1875 91.0949 38.1875ZM91.1467 37.8359C91.3508 37.8359 91.5276 37.7907 91.6772 37.7C91.8268 37.6095 91.9418 37.4894 92.0223 37.3398C92.1042 37.1889 92.1452 37.0229 92.1452 36.8417V36.3628C92.1165 36.3902 92.0683 36.4147 92.0007 36.4362C91.9346 36.4578 91.8576 36.4771 91.77 36.4945C91.6837 36.5103 91.5974 36.5239 91.5111 36.5354C91.4248 36.5469 91.3473 36.5569 91.2782 36.5655C91.0913 36.5886 90.9317 36.6246 90.7994 36.6734C90.6672 36.7223 90.5657 36.79 90.4953 36.8761C90.4248 36.961 90.3896 37.0704 90.3896 37.204C90.3896 37.4054 90.4615 37.5613 90.6053 37.6721C90.7491 37.7814 90.9295 37.8359 91.1467 37.8359ZM95.5195 34.7991V35.1615H93.9343V38.112H93.5504V34.7991H95.5195ZM97.0795 38.1875C96.8796 38.1875 96.697 38.1488 96.5317 38.0711C96.3663 37.992 96.2347 37.8784 96.1369 37.7303C96.0392 37.5808 95.9903 37.3996 95.9903 37.1867C95.9903 37.0229 96.0213 36.8848 96.083 36.7726C96.1448 36.6605 96.2326 36.5685 96.3461 36.4966C96.4598 36.4247 96.5942 36.3679 96.7495 36.3263C96.9048 36.2845 97.076 36.2521 97.2628 36.2291C97.4483 36.2062 97.6051 36.186 97.733 36.1688C97.8624 36.1515 97.9609 36.1241 98.0285 36.0869C98.096 36.0494 98.1299 35.989 98.1299 35.9056V35.8279C98.1299 35.6022 98.0623 35.4247 97.9271 35.2953C97.7933 35.1644 97.6007 35.099 97.3491 35.099C97.1104 35.099 96.9156 35.1515 96.7646 35.2565C96.6151 35.3614 96.5101 35.485 96.4497 35.6274L96.0852 35.4959C96.16 35.3147 96.2635 35.1702 96.3958 35.0622C96.5281 34.9531 96.6762 34.8747 96.8401 34.8272C97.0041 34.7783 97.17 34.7539 97.3384 34.7539C97.4648 34.7539 97.5964 34.7704 97.733 34.8035C97.871 34.8365 97.999 34.894 98.1169 34.9761C98.2349 35.0566 98.3305 35.1695 98.4038 35.3147C98.4771 35.4584 98.5138 35.6411 98.5138 35.8626V38.112H98.1299V37.5879H98.1062C98.0602 37.6858 97.9918 37.7807 97.9012 37.8726C97.8107 37.9647 97.697 38.0401 97.5604 38.099C97.4238 38.1581 97.2635 38.1875 97.0795 38.1875ZM97.1313 37.8359C97.3354 37.8359 97.5123 37.7907 97.6618 37.7C97.8114 37.6095 97.9264 37.4894 98.0069 37.3398C98.0888 37.1889 98.1299 37.0229 98.1299 36.8417V36.3628C98.1011 36.3902 98.0529 36.4147 97.9854 36.4362C97.9192 36.4578 97.8424 36.4771 97.7546 36.4945C97.6683 36.5103 97.582 36.5239 97.4957 36.5354C97.4094 36.5469 97.3319 36.5569 97.2628 36.5655C97.076 36.5886 96.9163 36.6246 96.784 36.6734C96.6518 36.7223 96.5504 36.79 96.4799 36.8761C96.4094 36.961 96.3742 37.0704 96.3742 37.204C96.3742 37.4054 96.4461 37.5613 96.5899 37.6721C96.7337 37.7814 96.9141 37.8359 97.1313 37.8359ZM99.3215 37.2665H99.7291C99.7407 37.4434 99.8168 37.5815 99.9578 37.6807C100.099 37.7798 100.284 37.8296 100.514 37.8296C100.753 37.8296 100.95 37.7763 101.105 37.6699C101.261 37.562 101.338 37.4054 101.338 37.1997C101.338 37.0746 101.309 36.9661 101.25 36.874C101.192 36.7821 101.113 36.7102 101.012 36.6583C100.913 36.6051 100.8 36.5778 100.674 36.5764H100.096V36.2248H100.667C100.864 36.2133 101.014 36.1602 101.116 36.0652C101.218 35.9689 101.269 35.8431 101.269 35.6878C101.269 35.511 101.207 35.3693 101.081 35.2628C100.956 35.155 100.787 35.1011 100.573 35.1011C100.355 35.1011 100.175 35.1543 100.031 35.2607C99.8873 35.3672 99.811 35.5038 99.8024 35.6705H99.3992C99.4064 35.4908 99.4603 35.3326 99.5609 35.196C99.6616 35.058 99.7975 34.9501 99.9685 34.8726C100.141 34.7949 100.337 34.756 100.555 34.756C100.78 34.756 100.974 34.7963 101.14 34.8768C101.305 34.9573 101.433 35.0673 101.524 35.2067C101.614 35.3449 101.66 35.5015 101.66 35.677C101.66 35.8596 101.609 36.0099 101.509 36.1278C101.409 36.2442 101.282 36.3263 101.127 36.3736V36.4061C101.245 36.4189 101.348 36.4621 101.437 36.5354C101.528 36.6088 101.599 36.703 101.651 36.8179C101.703 36.9329 101.728 37.0602 101.728 37.1997C101.728 37.3952 101.677 37.5671 101.575 37.7151C101.473 37.8619 101.331 37.9762 101.148 38.0581C100.967 38.1402 100.758 38.1811 100.521 38.1811C100.292 38.1811 100.089 38.143 99.9103 38.0667C99.7321 37.9892 99.5904 37.882 99.4855 37.7454C99.3819 37.6074 99.3273 37.4478 99.3215 37.2665ZM102.902 37.5664L104.652 34.7991H105.111V38.112H104.727V35.3449L102.984 38.112H102.518V34.7991H102.902V37.5664ZM108.361 36.2765V36.639H106.414V36.2765H108.361ZM106.509 34.7991V38.112H106.125V34.7991H106.509ZM108.644 34.7991V38.112H108.26V34.7991H108.644ZM112.668 38.1811C112.372 38.1811 112.114 38.107 111.894 37.9589C111.675 37.8108 111.505 37.6081 111.385 37.3507C111.264 37.0934 111.203 36.8 111.203 36.4708C111.203 36.1385 111.265 35.8431 111.387 35.5843C111.51 35.3254 111.682 35.1227 111.9 34.9761C112.119 34.8279 112.372 34.7539 112.661 34.7539C112.883 34.7539 113.083 34.797 113.263 34.8833C113.443 34.9682 113.591 35.0882 113.707 35.2435C113.825 35.3973 113.899 35.5771 113.93 35.7827H113.542C113.501 35.5957 113.404 35.4361 113.25 35.3039C113.098 35.1702 112.904 35.1034 112.668 35.1034C112.457 35.1034 112.27 35.1608 112.107 35.2758C111.945 35.3894 111.817 35.5483 111.725 35.7525C111.635 35.9552 111.589 36.1904 111.589 36.4578C111.589 36.7267 111.634 36.9646 111.723 37.1716C111.812 37.3773 111.938 37.5383 112.099 37.6548C112.261 37.7712 112.451 37.8296 112.668 37.8296C112.815 37.8296 112.948 37.8022 113.069 37.7475C113.191 37.6914 113.293 37.6123 113.375 37.5103C113.459 37.4082 113.515 37.2867 113.544 37.1458H113.932C113.903 37.3456 113.832 37.5239 113.718 37.6807C113.606 37.8359 113.46 37.9582 113.28 38.0474C113.102 38.1365 112.898 38.1811 112.668 38.1811ZM114.481 35.1615V34.7991H117.069V35.1615H115.973V38.112H115.589V35.1615H114.481ZM117.88 39.3543V34.7991H118.253V35.4312H118.299C118.345 35.3319 118.408 35.2305 118.489 35.1269C118.569 35.022 118.676 34.9336 118.808 34.8617C118.942 34.7898 119.11 34.7539 119.313 34.7539C119.586 34.7539 119.824 34.8258 120.029 34.9696C120.234 35.112 120.394 35.3118 120.507 35.5692C120.622 35.8251 120.68 36.1234 120.68 36.4643C120.68 36.8065 120.622 37.1062 120.507 37.3636C120.394 37.6211 120.234 37.8216 120.029 37.9654C119.824 38.1092 119.587 38.1811 119.317 38.1811C119.117 38.1811 118.95 38.1451 118.814 38.0732C118.681 38.0013 118.572 37.9129 118.489 37.8079C118.407 37.7016 118.343 37.5981 118.299 37.4973H118.264V39.3543H117.88ZM118.26 36.4578C118.26 36.7251 118.3 36.9624 118.379 37.1695C118.459 37.3752 118.574 37.5369 118.724 37.6548C118.875 37.7712 119.057 37.8296 119.272 37.8296C119.492 37.8296 119.677 37.7691 119.828 37.6483C119.981 37.5262 120.096 37.3615 120.175 37.1544C120.256 36.9473 120.296 36.7151 120.296 36.4578C120.296 36.2032 120.257 35.9739 120.177 35.7698C120.1 35.5655 119.985 35.4038 119.832 35.2844C119.68 35.1637 119.493 35.1034 119.272 35.1034C119.056 35.1034 118.873 35.1615 118.722 35.2779C118.571 35.393 118.456 35.5527 118.377 35.7568C118.299 35.9596 118.26 36.1932 118.26 36.4578ZM122.81 38.1811C122.524 38.1811 122.271 38.1085 122.051 37.9632C121.832 37.818 121.661 37.6174 121.537 37.3615C121.414 37.1041 121.352 36.8072 121.352 36.4708C121.352 36.1313 121.414 35.833 121.537 35.5757C121.661 35.3168 121.832 35.1155 122.051 34.9717C122.271 34.8265 122.524 34.7539 122.81 34.7539C123.096 34.7539 123.348 34.8265 123.567 34.9717C123.785 35.1169 123.957 35.3182 124.08 35.5757C124.205 35.833 124.268 36.1313 124.268 36.4708C124.268 36.8072 124.206 37.1041 124.082 37.3615C123.959 37.6174 123.787 37.818 123.567 37.9632C123.348 38.1085 123.096 38.1811 122.81 38.1811ZM122.81 37.8296C123.04 37.8296 123.235 37.7677 123.394 37.644C123.554 37.5204 123.675 37.3557 123.757 37.1502C123.84 36.9445 123.882 36.7181 123.882 36.4708C123.882 36.2234 123.84 35.9962 123.757 35.7891C123.675 35.582 123.554 35.4161 123.394 35.2909C123.235 35.1658 123.04 35.1034 122.81 35.1034C122.581 35.1034 122.386 35.1658 122.225 35.2909C122.066 35.4161 121.944 35.582 121.861 35.7891C121.779 35.9962 121.738 36.2234 121.738 36.4708C121.738 36.7181 121.779 36.9445 121.861 37.1502C121.944 37.3557 122.066 37.5204 122.225 37.644C122.385 37.7677 122.58 37.8296 122.81 37.8296ZM125.494 37.5664L127.244 34.7991H127.703V38.112H127.319V35.3449L125.577 38.112H125.111V34.7991H125.494V37.5664ZM128.253 35.1615V34.7991H130.841V35.1615H129.746V38.112H129.362V35.1615H128.253ZM132.82 38.1811C132.511 38.1811 132.244 38.1092 132.018 37.9654C131.792 37.8201 131.617 37.6195 131.494 37.3636C131.371 37.1062 131.31 36.81 131.31 36.475C131.31 36.1414 131.371 35.8452 131.494 35.5864C131.617 35.3261 131.788 35.1227 132.005 34.9761C132.223 34.8279 132.476 34.7539 132.762 34.7539C132.942 34.7539 133.115 34.787 133.282 34.8531C133.449 34.9178 133.598 35.0178 133.73 35.1529C133.864 35.2865 133.97 35.4556 134.047 35.6597C134.125 35.8626 134.164 36.1027 134.164 36.3801V36.5699H131.576V36.2313H133.771C133.771 36.0185 133.728 35.8272 133.642 35.6576C133.557 35.4864 133.438 35.3514 133.286 35.2521C133.135 35.1529 132.96 35.1034 132.762 35.1034C132.552 35.1034 132.367 35.1594 132.208 35.2716C132.048 35.3837 131.923 35.5318 131.832 35.7158C131.743 35.8998 131.698 36.1011 131.696 36.3198V36.5225C131.696 36.7856 131.742 37.0157 131.832 37.2126C131.924 37.4082 132.055 37.5599 132.223 37.6677C132.391 37.7756 132.59 37.8296 132.82 37.8296C132.977 37.8296 133.114 37.8051 133.232 37.7561C133.351 37.7072 133.451 37.6418 133.532 37.5599C133.614 37.4764 133.676 37.3852 133.717 37.286L134.082 37.4045C134.032 37.5441 133.949 37.6728 133.834 37.7907C133.72 37.9087 133.578 38.0034 133.407 38.0753C133.237 38.1458 133.042 38.1811 132.82 38.1811ZM134.684 38.112V37.7497H134.788C134.906 37.7497 135.001 37.7281 135.072 37.6851C135.146 37.6404 135.203 37.5657 135.243 37.4606C135.283 37.3557 135.313 37.2126 135.333 37.0315C135.354 36.8503 135.369 36.6232 135.381 36.35L135.452 34.7991H137.557V38.112H137.171V35.1615H135.817L135.754 36.4794C135.741 36.7482 135.719 36.9848 135.689 37.1889C135.661 37.3931 135.613 37.5634 135.547 37.7C135.482 37.8368 135.392 37.9394 135.275 38.0085C135.16 38.0776 135.009 38.112 134.822 38.112H134.684ZM138.894 36.0781H139.862C140.235 36.0781 140.522 36.1688 140.725 36.35C140.928 36.5311 141.029 36.7763 141.029 37.0855C141.029 37.291 140.984 37.4708 140.893 37.6246C140.803 37.7784 140.67 37.8985 140.496 37.9848C140.322 38.0697 140.111 38.112 139.862 38.112H138.575V34.7991H138.959V37.7497H139.862C140.097 37.7497 140.286 37.6937 140.429 37.5815C140.573 37.4694 140.645 37.3098 140.645 37.1027C140.645 36.8913 140.573 36.7281 140.429 36.613C140.286 36.498 140.097 36.4405 139.862 36.4405H138.894V36.0781ZM144.109 36.2765V36.639H142.161V36.2765H144.109ZM142.256 34.7991V38.112H141.872V34.7991H142.256ZM144.392 34.7991V38.112H144.008V34.7991H144.392ZM145.736 36.0781H146.707C147.08 36.0781 147.368 36.1688 147.57 36.35C147.773 36.5311 147.875 36.7763 147.875 37.0855C147.875 37.291 147.828 37.4708 147.736 37.6246C147.646 37.7784 147.513 37.8985 147.34 37.9848C147.166 38.0697 146.955 38.112 146.707 38.112H145.417V34.7991H145.804V37.7497H146.707C146.941 37.7497 147.131 37.6937 147.273 37.5815C147.416 37.4694 147.488 37.3098 147.488 37.1027C147.488 36.8913 147.416 36.7281 147.273 36.613C147.131 36.498 146.941 36.4405 146.707 36.4405H145.736V36.0781ZM148.433 38.112V34.7991H148.817V38.112H148.433ZM150.076 34.7991L150.93 36.2119L151.783 34.7991H152.23L151.165 36.4556L152.23 38.112H151.783L150.93 36.7446L150.076 38.112H149.631L150.683 36.4556L149.631 34.7991H150.076ZM156.475 37.575L157.72 34.7991H158.093L156.628 38.112H156.321L154.875 34.7991H155.241L156.475 37.575ZM155.126 34.7991V38.112H154.744V34.7991H155.126ZM157.823 38.112V34.7991H158.207V38.112H157.823ZM160.152 38.1875C159.953 38.1875 159.771 38.1488 159.604 38.0711C159.439 37.992 159.307 37.8784 159.21 37.7303C159.112 37.5808 159.063 37.3996 159.063 37.1867C159.063 37.0229 159.094 36.8848 159.156 36.7726C159.218 36.6605 159.306 36.5685 159.419 36.4966C159.533 36.4247 159.668 36.3679 159.823 36.3263C159.978 36.2845 160.149 36.2521 160.336 36.2291C160.521 36.2062 160.677 36.186 160.806 36.1688C160.936 36.1515 161.033 36.1241 161.101 36.0869C161.169 36.0494 161.203 35.989 161.203 35.9056V35.8279C161.203 35.6022 161.135 35.4247 161 35.2953C160.867 35.1644 160.673 35.099 160.422 35.099C160.183 35.099 159.988 35.1515 159.837 35.2565C159.687 35.3614 159.583 35.485 159.522 35.6274L159.158 35.4959C159.233 35.3147 159.337 35.1702 159.468 35.0622C159.601 34.9531 159.75 34.8747 159.913 34.8272C160.077 34.7783 160.242 34.7539 160.412 34.7539C160.538 34.7539 160.669 34.7704 160.806 34.8035C160.944 34.8365 161.072 34.894 161.19 34.9761C161.307 35.0566 161.403 35.1695 161.477 35.3147C161.55 35.4584 161.587 35.6411 161.587 35.8626V38.112H161.203V37.5879H161.179C161.134 37.6858 161.065 37.7807 160.974 37.8726C160.884 37.9647 160.771 38.0401 160.634 38.099C160.497 38.1581 160.337 38.1875 160.152 38.1875ZM160.204 37.8359C160.409 37.8359 160.586 37.7907 160.735 37.7C160.884 37.6095 161 37.4894 161.08 37.3398C161.162 37.1889 161.203 37.0229 161.203 36.8417V36.3628C161.175 36.3902 161.125 36.4147 161.059 36.4362C160.992 36.4578 160.915 36.4771 160.827 36.4945C160.741 36.5103 160.655 36.5239 160.569 36.5354C160.483 36.5469 160.405 36.5569 160.336 36.5655C160.149 36.5886 159.99 36.6246 159.857 36.6734C159.724 36.7223 159.624 36.79 159.553 36.8761C159.483 36.961 159.447 37.0704 159.447 37.204C159.447 37.4054 159.519 37.5613 159.663 37.6721C159.806 37.7814 159.987 37.8359 160.204 37.8359ZM162.144 35.1615V34.7991H164.733V35.1615H163.637V38.112H163.252V35.1615H162.144ZM166.712 38.1811C166.402 38.1811 166.135 38.1092 165.909 37.9654C165.683 37.8201 165.508 37.6195 165.385 37.3636C165.262 37.1062 165.202 36.81 165.202 36.475C165.202 36.1414 165.262 35.8452 165.385 35.5864C165.508 35.3261 165.679 35.1227 165.897 34.9761C166.114 34.8279 166.367 34.7539 166.654 34.7539C166.833 34.7539 167.007 34.787 167.173 34.8531C167.34 34.9178 167.49 35.0178 167.621 35.1529C167.755 35.2865 167.861 35.4556 167.939 35.6597C168.017 35.8626 168.055 36.1027 168.055 36.3801V36.5699H165.467V36.2313H167.662C167.662 36.0185 167.62 35.8272 167.534 35.6576C167.449 35.4864 167.33 35.3514 167.178 35.2521C167.027 35.1529 166.851 35.1034 166.654 35.1034C166.443 35.1034 166.258 35.1594 166.099 35.2716C165.939 35.3837 165.815 35.5318 165.724 35.7158C165.634 35.8998 165.589 36.1011 165.587 36.3198V36.5225C165.587 36.7856 165.632 37.0157 165.724 37.2126C165.816 37.4082 165.946 37.5599 166.114 37.6677C166.282 37.7756 166.481 37.8296 166.712 37.8296C166.868 37.8296 167.005 37.8051 167.124 37.7561C167.243 37.7072 167.343 37.6418 167.423 37.5599C167.505 37.4764 167.568 37.3852 167.608 37.286L167.973 37.4045C167.923 37.5441 167.84 37.6728 167.726 37.7907C167.611 37.9087 167.469 38.0034 167.298 38.0753C167.128 38.1458 166.933 38.1811 166.712 38.1811ZM168.901 39.3543V34.7991H169.274V35.4312H169.319C169.366 35.3319 169.429 35.2305 169.51 35.1269C169.59 35.022 169.696 34.9336 169.829 34.8617C169.962 34.7898 170.131 34.7539 170.333 34.7539C170.606 34.7539 170.844 34.8258 171.049 34.9696C171.255 35.112 171.415 35.3118 171.528 35.5692C171.642 35.8251 171.7 36.1234 171.7 36.4643C171.7 36.8065 171.642 37.1062 171.528 37.3636C171.415 37.6211 171.255 37.8216 171.049 37.9654C170.844 38.1092 170.609 38.1811 170.337 38.1811C170.138 38.1811 169.97 38.1451 169.835 38.0732C169.702 38.0013 169.593 37.9129 169.51 37.8079C169.428 37.7016 169.364 37.5981 169.319 37.4973H169.285V39.3543H168.901ZM169.281 36.4578C169.281 36.7251 169.32 36.9624 169.399 37.1695C169.48 37.3752 169.594 37.5369 169.744 37.6548C169.895 37.7712 170.077 37.8296 170.292 37.8296C170.512 37.8296 170.698 37.7691 170.849 37.6483C171.001 37.5262 171.117 37.3615 171.196 37.1544C171.277 36.9473 171.316 36.7151 171.316 36.4578C171.316 36.2032 171.277 35.9739 171.198 35.7698C171.12 35.5655 171.005 35.4038 170.853 35.2844C170.7 35.1637 170.514 35.1034 170.292 35.1034C170.076 35.1034 169.894 35.1615 169.743 35.2779C169.592 35.393 169.476 35.5527 169.397 35.7568C169.319 35.9596 169.281 36.1932 169.281 36.4578ZM172.926 37.5664L174.676 34.7991H175.136V38.112H174.751V35.3449L173.008 38.112H172.542V34.7991H172.926V37.5664ZM177.075 38.1875C176.874 38.1875 176.692 38.1488 176.527 38.0711C176.362 37.992 176.23 37.8784 176.131 37.7303C176.034 37.5808 175.986 37.3996 175.986 37.1867C175.986 37.0229 176.015 36.8848 176.078 36.7726C176.14 36.6605 176.227 36.5685 176.342 36.4966C176.455 36.4247 176.589 36.3679 176.744 36.3263C176.9 36.2845 177.071 36.2521 177.257 36.2291C177.443 36.2062 177.6 36.186 177.727 36.1688C177.857 36.1515 177.956 36.1241 178.024 36.0869C178.09 36.0494 178.124 35.989 178.124 35.9056V35.8279C178.124 35.6022 178.056 35.4247 177.922 35.2953C177.788 35.1644 177.596 35.099 177.345 35.099C177.106 35.099 176.911 35.1515 176.76 35.2565C176.61 35.3614 176.506 35.485 176.445 35.6274L176.08 35.4959C176.155 35.3147 176.258 35.1702 176.391 35.0622C176.523 34.9531 176.671 34.8747 176.835 34.8272C176.999 34.7783 177.165 34.7539 177.333 34.7539C177.46 34.7539 177.592 34.7704 177.727 34.8035C177.866 34.8365 177.994 34.894 178.112 34.9761C178.23 35.0566 178.325 35.1695 178.398 35.3147C178.472 35.4584 178.508 35.6411 178.508 35.8626V38.112H178.124V37.5879H178.102C178.055 37.6858 177.987 37.7807 177.895 37.8726C177.805 37.9647 177.692 38.0401 177.555 38.099C177.418 38.1581 177.258 38.1875 177.075 38.1875ZM177.126 37.8359C177.33 37.8359 177.507 37.7907 177.657 37.7C177.806 37.6095 177.921 37.4894 178.001 37.3398C178.083 37.1889 178.124 37.0229 178.124 36.8417V36.3628C178.096 36.3902 178.048 36.4147 177.98 36.4362C177.914 36.4578 177.838 36.4771 177.75 36.4945C177.664 36.5103 177.576 36.5239 177.49 36.5354C177.404 36.5469 177.326 36.5569 177.257 36.5655C177.071 36.5886 176.911 36.6246 176.778 36.6734C176.647 36.7223 176.545 36.79 176.475 36.8761C176.404 36.961 176.369 37.0704 176.369 37.204C176.369 37.4054 176.441 37.5613 176.585 37.6721C176.729 37.7814 176.91 37.8359 177.126 37.8359ZM179.205 38.112V37.7497H179.308C179.425 37.7497 179.521 37.7281 179.592 37.6851C179.665 37.6404 179.723 37.5657 179.763 37.4606C179.804 37.3557 179.833 37.2126 179.853 37.0315C179.873 36.8503 179.89 36.6232 179.901 36.35L179.972 34.7991H182.078V38.112H181.691V35.1615H180.336L180.274 36.4794C180.261 36.7482 180.24 36.9848 180.209 37.1889C180.181 37.3931 180.133 37.5634 180.066 37.7C180.003 37.8368 179.911 37.9394 179.795 38.0085C179.681 38.0776 179.53 38.112 179.342 38.112H179.205ZM184.382 38.1811C184.096 38.1811 183.843 38.1085 183.623 37.9632C183.404 37.818 183.233 37.6174 183.11 37.3615C182.986 37.1041 182.924 36.8072 182.924 36.4708C182.924 36.1313 182.986 35.833 183.11 35.5757C183.233 35.3168 183.404 35.1155 183.623 34.9717C183.843 34.8265 184.096 34.7539 184.382 34.7539C184.668 34.7539 184.921 34.8265 185.139 34.9717C185.358 35.1169 185.528 35.3182 185.653 35.5757C185.777 35.833 185.841 36.1313 185.841 36.4708C185.841 36.8072 185.778 37.1041 185.654 37.3615C185.531 37.6174 185.359 37.818 185.139 37.9632C184.921 38.1085 184.668 38.1811 184.382 38.1811ZM184.382 37.8296C184.612 37.8296 184.807 37.7677 184.966 37.644C185.126 37.5204 185.247 37.3557 185.329 37.1502C185.413 36.9445 185.454 36.7181 185.454 36.4708C185.454 36.2234 185.413 35.9962 185.329 35.7891C185.247 35.582 185.126 35.4161 184.966 35.2909C184.807 35.1658 184.612 35.1034 184.382 35.1034C184.154 35.1034 183.959 35.1658 183.798 35.2909C183.639 35.4161 183.517 35.582 183.434 35.7891C183.352 35.9962 183.311 36.2234 183.311 36.4708C183.311 36.7181 183.352 36.9445 183.434 37.1502C183.517 37.3557 183.639 37.5204 183.798 37.644C183.958 37.7677 184.153 37.8296 184.382 37.8296ZM186.682 38.112V34.7991H187.988C188.341 34.7991 188.617 34.8754 188.821 35.0278C189.024 35.1802 189.126 35.3858 189.126 35.6446C189.126 35.8416 189.069 35.9991 188.956 36.1169C188.842 36.2349 188.691 36.3184 188.499 36.3672C188.627 36.3887 188.746 36.4354 188.855 36.5073C188.965 36.5792 189.055 36.6742 189.125 36.7921C189.194 36.91 189.228 37.0509 189.228 37.2148C189.228 37.3873 189.185 37.5413 189.099 37.6763C189.013 37.8115 188.892 37.918 188.735 37.9955C188.578 38.0732 188.392 38.112 188.178 38.112H186.682ZM187.05 37.7561H188.178C188.38 37.7561 188.541 37.7044 188.658 37.6009C188.777 37.4959 188.835 37.3564 188.835 37.1825C188.835 36.9969 188.78 36.8489 188.667 36.7381C188.557 36.626 188.407 36.5699 188.221 36.5699H187.05V37.7561ZM187.05 36.2291H188.012C188.161 36.2291 188.291 36.2062 188.4 36.1602C188.509 36.1141 188.593 36.0494 188.653 35.9659C188.712 35.8812 188.742 35.7819 188.74 35.6683C188.74 35.5059 188.674 35.3801 188.543 35.2909C188.41 35.2004 188.225 35.155 187.988 35.155H187.05V36.2291Z" fill="#333333"/>
<path d="M55.3691 28.2246V6.47266H64.3185C66.2451 6.47266 67.8921 6.7834 69.2593 7.40488C70.6474 8.02637 71.7142 8.91717 72.46 10.0773C73.2058 11.2374 73.5787 12.615 73.5787 14.2101C73.5787 15.8052 73.2058 17.183 72.46 18.343C71.7142 19.5031 70.6474 20.3939 69.2593 21.0154C67.8921 21.6369 66.2451 21.9476 64.3185 21.9476H57.6065L59.4088 20.0521V28.2246H55.3691ZM59.4088 20.4872L57.6065 18.5295H64.1321C65.9136 18.5295 67.2498 18.1566 68.1407 17.4108C69.0521 16.6443 69.5079 15.5774 69.5079 14.2101C69.5079 12.8222 69.0521 11.7553 68.1407 11.0095C67.2498 10.2637 65.9136 9.89083 64.1321 9.89083H57.6065L59.4088 7.90207V20.4872Z" fill="#333333"/>
<path d="M77.2251 24.8055C78.3645 25.1992 79.3692 25.3027 80.2393 25.1162C81.1094 24.9298 81.8862 24.298 82.5698 23.2207L83.6264 21.5738L84.0303 21.1387L91.6125 6.47168H95.59L86.1434 24.0286C85.3768 25.4994 84.4654 26.6181 83.4088 27.3847C82.3523 28.1512 81.2129 28.5758 79.9907 28.6587C78.7891 28.7622 77.5358 28.5344 76.2307 27.9751L77.2251 24.8055ZM83.9371 24.6191L74.2419 6.47168H78.5613L86.1434 21.5116L83.9371 24.6191Z" fill="#333333"/>
<path d="M98.4465 28.4415C97.7421 28.4415 97.1414 28.2032 96.6442 27.7268C96.147 27.2296 95.8984 26.6081 95.8984 25.8624C95.8984 25.0752 96.147 24.4537 96.6442 23.9979C97.1414 23.5215 97.7421 23.2832 98.4465 23.2832C99.1509 23.2832 99.7516 23.5215 100.249 23.9979C100.746 24.4537 100.995 25.0752 100.995 25.8624C100.995 26.6081 100.746 27.2296 100.249 27.7268C99.7516 28.2032 99.1509 28.4415 98.4465 28.4415Z" fill="#333333"/>
<path d="M105.581 28.5354C105.229 28.5354 104.877 28.5043 104.525 28.4422C104.173 28.38 103.789 28.3076 103.375 28.2246L103.655 24.7133C103.945 24.7962 104.256 24.8376 104.587 24.8376C105.457 24.8376 106.151 24.4854 106.669 23.781C107.187 23.056 107.56 21.9995 107.788 20.6115C108.016 19.2234 108.171 17.5143 108.254 15.4842L108.564 6.47266H124.568V28.2246H120.59V8.89645L121.522 9.89083H111.175L112.045 8.86538L111.827 15.3288C111.765 17.4833 111.62 19.3788 111.392 21.0154C111.164 22.652 110.812 24.0296 110.336 25.1483C109.88 26.2462 109.269 27.0852 108.502 27.6653C107.736 28.2454 106.762 28.5354 105.581 28.5354Z" fill="#333333"/>
<path d="M134.416 15.5143H145.23V18.8392H134.416V15.5143ZM134.727 24.8366H147.001V28.2237H130.687V6.47168H146.566V9.85878H134.727V24.8366Z" fill="#333333"/>
<path d="M156.073 28.2246V8.89645L157.036 9.89083H148.895V6.47266H167.29V9.89083H159.148L160.081 8.89645V28.2246H156.073Z" fill="#333333"/>
<path d="M185.161 28.2246L177.796 17.6283L181.059 15.6085L189.729 28.2246H185.161ZM170.773 28.2246V6.47266H174.751V28.2246H170.773ZM173.539 19.0577V15.5774H180.873V19.0577H173.539ZM181.432 17.8148L177.734 17.3176L185.161 6.47266H189.449L181.432 17.8148Z" fill="#333333"/>
<path d="M189.342 28.2246L199.13 6.47266H203.108L212.927 28.2246H208.701L200.28 8.61678H201.896L193.506 28.2246H189.342ZM193.848 23.1906L194.935 20.021H206.681L207.769 23.1906H193.848Z" fill="#333333"/>
</g>
<defs>
<clipPath id="clip0_145_718">
<rect width="213" height="45.1989" fill="white" transform="translate(0 0.398438)"/>
</clipPath>
</defs>
</svg>
