<svg width="21" height="21" viewBox="0 0 21 21" fill="none" xmlns="http://www.w3.org/2000/svg">
<path id="Vector" d="M12.978 12.8415C12.2761 13.4074 11.4016 13.716 10.5 13.716C9.59838 13.716 8.72391 13.4074 8.022 12.8415C7.80758 12.6633 7.53113 12.5775 7.25348 12.6031C6.97584 12.6287 6.71973 12.7636 6.5415 12.978C6.36328 13.1924 6.27753 13.4689 6.30313 13.7465C6.32873 14.0242 6.46358 14.2803 6.678 14.4585C7.75041 15.3537 9.10304 15.8441 10.5 15.8441C11.897 15.8441 13.2496 15.3537 14.322 14.4585C14.5364 14.2803 14.6713 14.0242 14.6969 13.7465C14.7225 13.4689 14.6367 13.1924 14.4585 12.978C14.3703 12.8718 14.262 12.7841 14.1398 12.7198C14.0176 12.6554 13.884 12.6158 13.7465 12.6031C13.4689 12.5775 13.1924 12.6633 12.978 12.8415ZM7.35 9.45C7.55767 9.45 7.76068 9.38842 7.93335 9.27304C8.10602 9.15767 8.2406 8.99368 8.32008 8.80182C8.39955 8.60995 8.42034 8.39883 8.37983 8.19515C8.33931 7.99147 8.23931 7.80438 8.09247 7.65754C7.94562 7.51069 7.75853 7.41069 7.55485 7.37017C7.35117 7.32966 7.14005 7.35045 6.94819 7.42992C6.75632 7.5094 6.59234 7.64398 6.47696 7.81665C6.36159 7.98932 6.3 8.19233 6.3 8.4C6.3 8.67848 6.41063 8.94555 6.60754 9.14246C6.80445 9.33937 7.07153 9.45 7.35 9.45ZM13.65 7.35C13.4423 7.35 13.2393 7.41158 13.0667 7.52696C12.894 7.64233 12.7594 7.80632 12.6799 7.99818C12.6005 8.19004 12.5797 8.40116 12.6202 8.60484C12.6607 8.80852 12.7607 8.99561 12.9075 9.14246C13.0544 9.2893 13.2415 9.38931 13.4452 9.42982C13.6488 9.47034 13.86 9.44954 14.0518 9.37007C14.2437 9.2906 14.4077 9.15602 14.523 8.98335C14.6384 8.81067 14.7 8.60767 14.7 8.4C14.7 8.12152 14.5894 7.85445 14.3925 7.65754C14.1956 7.46062 13.9285 7.35 13.65 7.35ZM10.5 0C8.4233 0 6.39323 0.615814 4.66652 1.76957C2.9398 2.92332 1.59399 4.5632 0.799269 6.48182C0.00454948 8.40044 -0.203386 10.5116 0.201759 12.5484C0.606904 14.5852 1.60693 16.4562 3.07538 17.9246C4.54383 19.3931 6.41476 20.3931 8.45156 20.7982C10.4884 21.2034 12.5996 20.9955 14.5182 20.2007C16.4368 19.406 18.0767 18.0602 19.2304 16.3335C20.3842 14.6068 21 12.5767 21 10.5C21 9.12112 20.7284 7.75574 20.2007 6.48182C19.6731 5.2079 18.8996 4.05039 17.9246 3.07538C16.9496 2.10036 15.7921 1.32694 14.5182 0.799265C13.2443 0.271591 11.8789 0 10.5 0ZM10.5 18.9C8.83864 18.9 7.21459 18.4073 5.83321 17.4843C4.45184 16.5613 3.37519 15.2494 2.73942 13.7145C2.10364 12.1796 1.93729 10.4907 2.26141 8.86124C2.58552 7.2318 3.38555 5.73506 4.56031 4.5603C5.73507 3.38554 7.2318 2.58552 8.86125 2.2614C10.4907 1.93729 12.1796 2.10364 13.7145 2.73941C15.2494 3.37519 16.5613 4.45184 17.4843 5.83321C18.4073 7.21458 18.9 8.83863 18.9 10.5C18.9 12.7278 18.015 14.8644 16.4397 16.4397C14.8644 18.015 12.7278 18.9 10.5 18.9Z" fill="black"/>
</svg>
