<svg width="20" height="20" viewBox="0 0 20 20" fill="none" xmlns="http://www.w3.org/2000/svg">
<g id="trace - 2024-01-13T184513.752 1">
<path id="Vector" fill-rule="evenodd" clip-rule="evenodd" d="M6.3149 16.5536C6.43677 16.8009 6.72345 16.918 7.05802 16.8572C7.19119 16.833 7.54747 16.49 10.4197 13.6207C12.1867 11.8555 13.6589 10.3555 13.6912 10.2874C13.7664 10.129 13.7664 9.87031 13.6912 9.71188C13.6589 9.64379 12.1867 8.14383 10.4197 6.37863C6.9238 2.88629 7.14622 3.08321 6.75708 3.13539C6.36923 3.18742 6.14259 3.61309 6.29095 4.01078C6.31384 4.07211 7.63107 5.42086 9.26912 7.0602L12.2063 9.99965L9.26912 12.9391C7.63107 14.5784 6.31384 15.9272 6.29095 15.9885C6.2313 16.1484 6.24224 16.4062 6.3149 16.5536Z" fill="#333333"/>
</g>
</svg>
