<svg width="23" height="24" viewBox="0 0 23 24" fill="none" xmlns="http://www.w3.org/2000/svg">
<g id="bxs:basket">
<path id="Vector" d="M7.78391 2.99463L4.38484 9.31078H3.08455C2.9438 9.31094 2.80498 9.34552 2.67885 9.41183C2.55272 9.47814 2.44266 9.57441 2.35721 9.69316C2.27176 9.81191 2.21321 9.94996 2.18611 10.0966C2.159 10.2433 2.16406 10.3946 2.2009 10.5388L4.76394 20.5177C4.87018 20.929 5.1006 21.292 5.41985 21.5509C5.7391 21.8098 6.12953 21.9503 6.53123 21.9509H16.1213C16.9436 21.9509 17.6707 21.3626 17.8886 20.5167L20.4517 10.5378C20.4889 10.3935 20.4943 10.2421 20.4673 10.0952C20.4403 9.94836 20.3817 9.81014 20.296 9.69133C20.2104 9.57252 20.1 9.47635 19.9736 9.41033C19.8471 9.34432 19.708 9.31024 19.5671 9.31078H18.2668L14.8677 2.99463L13.2781 3.95916L16.158 9.31078H6.49369L9.37356 3.95916L7.78391 2.99463ZM13.1572 13.2H14.9886V18.0616H13.1572V13.2ZM7.66304 13.2H9.49443V18.0616H7.66304V13.2Z" fill="white"/>
</g>
</svg>
