<svg width="14" height="14" viewBox="0 0 14 14" fill="none" xmlns="http://www.w3.org/2000/svg">
<g clip-path="url(#clip0_38_3972)">
<path fill-rule="evenodd" clip-rule="evenodd" d="M14 7C14 8.85652 13.2625 10.637 11.9497 11.9497C10.637 13.2625 8.85652 14 7 14C5.14348 14 3.36301 13.2625 2.05025 11.9497C0.737498 10.637 0 8.85652 0 7C0 5.14348 0.737498 3.36301 2.05025 2.05025C3.36301 0.737498 5.14348 0 7 0C8.85652 0 10.637 0.737498 11.9497 2.05025C13.2625 3.36301 14 5.14348 14 7ZM10.188 3.812C10.13 3.75395 10.0611 3.70789 9.98522 3.67647C9.90938 3.64506 9.82809 3.62888 9.746 3.62888C9.66391 3.62888 9.58262 3.64506 9.50678 3.67647C9.43095 3.70789 9.36204 3.75395 9.304 3.812L3.812 9.304C3.75396 9.36204 3.70791 9.43095 3.6765 9.50679C3.64509 9.58263 3.62892 9.66391 3.62892 9.746C3.62892 9.82809 3.64509 9.90937 3.6765 9.98521C3.70791 10.061 3.75396 10.13 3.812 10.188C3.87004 10.246 3.93895 10.2921 4.01479 10.3235C4.09063 10.3549 4.17191 10.3711 4.254 10.3711C4.33609 10.3711 4.41737 10.3549 4.49321 10.3235C4.56905 10.2921 4.63796 10.246 4.696 10.188L10.188 4.696C10.2461 4.63796 10.2921 4.56905 10.3235 4.49322C10.3549 4.41738 10.3711 4.33609 10.3711 4.254C10.3711 4.17191 10.3549 4.09062 10.3235 4.01478C10.2921 3.93895 10.2461 3.87004 10.188 3.812ZM4.803 3.63C4.4915 3.63 4.19276 3.75374 3.9725 3.974C3.75224 4.19426 3.6285 4.493 3.6285 4.8045C3.6285 5.116 3.75224 5.41474 3.9725 5.635C4.19276 5.85526 4.4915 5.979 4.803 5.979C5.1145 5.979 5.41324 5.85526 5.6335 5.635C5.85376 5.41474 5.9775 5.116 5.9775 4.8045C5.9775 4.493 5.85376 4.19426 5.6335 3.974C5.41324 3.75374 5.1145 3.63 4.803 3.63ZM9.197 8.023C8.8855 8.023 8.58676 8.14674 8.3665 8.367C8.14624 8.58727 8.0225 8.886 8.0225 9.1975C8.0225 9.509 8.14624 9.80774 8.3665 10.028C8.58676 10.2483 8.8855 10.372 9.197 10.372C9.5085 10.372 9.80724 10.2483 10.0275 10.028C10.2478 9.80774 10.3715 9.509 10.3715 9.1975C10.3715 8.886 10.2478 8.58727 10.0275 8.367C9.80724 8.14674 9.5085 8.023 9.197 8.023Z" fill="white"/>
</g>
<defs>
<clipPath id="clip0_38_3972">
<rect width="14" height="14" fill="white"/>
</clipPath>
</defs>
</svg>
