<svg width="23" height="24" viewBox="0 0 23 24" fill="none" xmlns="http://www.w3.org/2000/svg">
<path fill-rule="evenodd" clip-rule="evenodd" d="M15.179 1.67138C15.0803 1.49168 14.9407 1.33312 14.7695 1.20626C14.5983 1.0794 14.3993 0.987127 14.1858 0.935583C13.9723 0.88404 13.7492 0.874403 13.5313 0.907313C13.3134 0.940222 13.1057 1.01493 12.922 1.12646C12.3851 1.45199 11.9664 1.91624 11.6426 2.37199C11.3095 2.83907 11.0153 3.38116 10.7554 3.95156C10.2355 5.08953 9.79972 6.45396 9.44795 7.82122C9.02253 9.49206 8.70395 11.1839 8.49381 12.8883C7.86052 12.517 7.35168 11.9946 7.02292 11.3781C6.51239 10.4156 6.40344 9.20688 6.40344 7.62165C6.40337 7.34176 6.31205 7.06816 6.14101 6.83546C5.96998 6.60276 5.72691 6.42139 5.44254 6.31429C5.15817 6.20719 4.84526 6.17916 4.54337 6.23375C4.24148 6.28833 3.96417 6.42309 3.74649 6.62097C2.73347 7.54017 1.9301 8.63229 1.38253 9.83461C0.834951 11.0369 0.553955 12.3258 0.555672 13.6271C0.555801 15.2564 0.997789 16.8605 1.84249 18.2973C2.68719 19.7342 3.90853 20.9594 5.39832 21.8646C6.88812 22.7697 8.6004 23.3267 10.3835 23.4864C12.1666 23.646 13.9655 23.4034 15.6208 22.7799C17.2761 22.1563 18.7368 21.1712 19.8735 19.9118C21.0101 18.6524 21.7877 17.1575 22.1372 15.5595C22.4868 13.9615 22.3976 12.3098 21.8776 10.7507C21.3576 9.19156 20.4227 7.7731 19.1558 6.62097C18.2344 5.78448 17.6305 5.22682 17.0577 4.54461C16.4927 3.87088 15.9308 3.04005 15.179 1.67138ZM14.7509 19.4585C14.0979 20.0516 13.2663 20.4554 12.361 20.6189C11.4558 20.7824 10.5175 20.6984 9.66478 20.3773C8.81204 20.0562 8.08307 19.5125 7.56992 18.815C7.05678 18.1174 6.78248 17.2971 6.78166 16.4579C6.78166 16.4579 8.14983 17.1656 10.6729 17.1656C10.6729 15.7502 11.4512 11.504 12.6185 10.7964C13.3968 12.2117 13.8419 12.6264 14.7525 13.4559C15.1868 13.8496 15.5313 14.3175 15.7661 14.8327C16.0009 15.3479 16.1214 15.9002 16.1207 16.4579C16.1214 17.0156 16.0009 17.5679 15.7661 18.0831C15.5313 18.5983 15.1868 19.0662 14.7525 19.4599L14.7509 19.4585Z" fill="white"/>
</svg>
