<svg width="31" height="26" viewBox="0 0 31 26" fill="none" xmlns="http://www.w3.org/2000/svg">
<g clip-path="url(#clip0_38_3836)">
<path d="M22.5483 2.12793C19.984 2.12793 17.7388 3.2338 16.3393 5.10307C14.9398 3.2338 12.6946 2.12793 10.1303 2.12793C8.08908 2.13024 6.1321 2.94446 4.68873 4.39196C3.24535 5.83946 2.43345 7.80202 2.43115 9.8491C2.43115 18.5665 15.3198 25.6227 15.8687 25.9141C16.0134 25.9922 16.1751 26.033 16.3393 26.033C16.5036 26.033 16.6653 25.9922 16.81 25.9141C17.3588 25.6227 30.2475 18.5665 30.2475 9.8491C30.2452 7.80202 29.4333 5.83946 27.9899 4.39196C26.5466 2.94446 24.5896 2.13024 22.5483 2.12793ZM16.3393 23.8966C14.0718 22.5716 4.41803 16.5354 4.41803 9.8491C4.42001 8.33038 5.02247 6.87444 6.0933 5.80054C7.16414 4.72665 8.61593 4.12247 10.1303 4.12049C12.5456 4.12049 14.5735 5.41067 15.4204 7.48293C15.4952 7.66566 15.6226 7.82195 15.7862 7.93194C15.9498 8.04193 16.1423 8.10066 16.3393 8.10066C16.5363 8.10066 16.7288 8.04193 16.8925 7.93194C17.0561 7.82195 17.1834 7.66566 17.2583 7.48293C18.1052 5.40694 20.133 4.12049 22.5483 4.12049C24.0627 4.12247 25.5145 4.72665 26.5854 5.80054C27.6562 6.87444 28.2587 8.33038 28.2606 9.8491C28.2606 16.5254 18.6044 22.5703 16.3393 23.8966Z" fill="#202020"/>
</g>
<defs>
<clipPath id="clip0_38_3836">
<rect width="31" height="26" fill="white"/>
</clipPath>
</defs>
</svg>
