<svg width="12" height="12" viewBox="0 0 12 12" fill="none" xmlns="http://www.w3.org/2000/svg">
<g id="tabler:message-circle-2-filled" clip-path="url(#clip0_158_8626)">
<g id="Group">
<path id="Vector" d="M2.91099 2.45492C4.85999 1.07242 7.64549 1.18542 9.44749 2.72292C11.281 4.28642 11.5315 6.84192 10.0235 8.67142C8.60249 10.3949 6.04099 10.9629 3.90799 10.0739L3.79199 10.0234L1.60449 10.4889L1.56699 10.4954L1.51199 10.4999L1.45549 10.4979L1.43349 10.4954L1.37849 10.4854L1.32599 10.4684L1.27599 10.4464L1.23799 10.4254L1.18399 10.3869L1.14349 10.3499L1.10699 10.3084L1.08049 10.2709L1.04799 10.2134L1.02699 10.1604L1.01149 10.1039L1.00499 10.0664L1.00049 10.0114L1.00249 9.95492L1.00499 9.93292L1.01499 9.87792L1.02599 9.84192L1.60099 8.11642L1.58999 8.09842C0.484988 6.22492 0.985488 3.90242 2.79549 2.53942L2.91049 2.45542L2.91099 2.45492Z" fill="#667685"/>
</g>
</g>
<defs>
<clipPath id="clip0_158_8626">
<rect width="12" height="12" fill="white" transform="translate(0.000244141)"/>
</clipPath>
</defs>
</svg>
