<svg width="10" height="10" viewBox="0 0 10 10" fill="none" xmlns="http://www.w3.org/2000/svg">
<g id="tabler:message-circle-2-filled" clip-path="url(#clip0_158_1305)">
<g id="Group">
<path id="Vector" d="M2.82204 2.22229C4.28379 1.18542 6.37291 1.27017 7.72441 2.42329C9.09953 3.59592 9.28741 5.51254 8.15641 6.88467C7.09066 8.17729 5.16954 8.60329 3.56979 7.93654L3.48279 7.89867L1.84216 8.24779L1.81404 8.25267L1.77279 8.25604L1.73041 8.25454L1.71391 8.25267L1.67266 8.24517L1.63329 8.23242L1.59579 8.21592L1.56729 8.20017L1.52679 8.17129L1.49641 8.14354L1.46904 8.11242L1.44916 8.08429L1.42479 8.04117L1.40904 8.00142L1.39741 7.95904L1.39254 7.93092L1.38916 7.88967L1.39066 7.84729L1.39254 7.83079L1.40004 7.78954L1.40829 7.76254L1.83954 6.46842L1.83129 6.45492C1.00254 5.04979 1.37791 3.30792 2.73541 2.28567L2.82166 2.22267L2.82204 2.22229Z" fill="#667685"/>
</g>
</g>
<defs>
<clipPath id="clip0_158_1305">
<rect width="9" height="9" fill="white" transform="translate(0.638428 0.380859)"/>
</clipPath>
</defs>
</svg>
